<svg width="690" height="420" viewBox="0 0 690 420" fill="none" xmlns="http://www.w3.org/2000/svg">
<path d="M404.551 244.594H285.439C283.753 244.596 282.139 245.156 280.948 246.15C279.757 247.143 279.091 248.49 279.094 249.894V406.621H410.912V249.894C410.915 249.197 410.75 248.507 410.429 247.865C410.109 247.221 409.642 246.638 409.051 246.146C408.46 245.654 407.758 245.262 406.987 244.996C406.214 244.731 405.386 244.594 404.551 244.594ZM345.396 333.646C341.67 333.631 338.103 332.392 335.468 330.198C332.834 328.004 331.347 325.033 331.331 321.931V303.853C331.331 300.745 332.811 297.766 335.45 295.568C338.087 293.372 341.665 292.138 345.396 292.138C349.125 292.138 352.704 293.372 355.34 295.568C357.979 297.766 359.462 300.745 359.462 303.853V321.931C359.443 325.033 357.956 328.004 355.322 330.198C352.688 332.392 349.121 333.631 345.396 333.646Z" fill="#E6E6E6"/>
<path d="M278.684 401.609V416.729C278.686 417.514 279.06 418.264 279.726 418.819C280.392 419.372 281.293 419.685 282.232 419.685H407.774C408.714 419.681 409.613 419.37 410.279 418.815C410.942 418.262 411.319 417.512 411.323 416.729V401.609H278.684Z" fill="#CCCCCC"/>
<path d="M601.794 0H92.6349C88.2603 0.0056991 84.067 1.45574 80.9739 4.0323C77.8805 6.60868 76.1397 10.1015 76.1328 13.7451V299.931C76.1369 303.574 77.8769 307.068 80.9707 309.646C84.0647 312.222 88.2596 313.671 92.6349 313.675H601.794C606.171 313.671 610.365 312.222 613.46 309.646C616.552 307.068 618.293 303.574 618.297 299.931V13.7451C618.29 10.1015 616.55 6.60868 613.455 4.0323C610.363 1.45574 606.171 0.0056991 601.794 0Z" fill="#E6E6E6"/>
<path d="M597.54 9.92188H96.8876C94.5446 9.92643 92.2995 10.7049 90.6448 12.0866C88.9899 13.468 88.0608 15.3398 88.0605 17.2914V296.38C88.0633 298.329 88.994 300.198 90.6489 301.577C92.3036 302.954 94.5474 303.73 96.8876 303.731H597.54C599.88 303.73 602.124 302.954 603.778 301.577C605.434 300.198 606.364 298.329 606.367 296.38V17.2914C606.367 15.3398 605.438 13.468 603.783 12.0866C602.129 10.7049 599.883 9.92643 597.54 9.92188Z" fill="white"/>
<path d="M606.366 17.2914V260.211C567.845 269.563 526.712 268.207 489.199 256.347C451.686 244.487 419.831 222.77 398.461 194.484C377.09 166.197 367.368 132.88 370.761 99.5784C374.157 66.2765 390.487 34.8026 417.277 9.92188H597.54C599.882 9.92643 602.128 10.7049 603.782 12.0866C605.438 13.468 606.366 15.3398 606.366 17.2914Z" fill="#F4458D"/>
<path d="M572.373 48.3846H103.912C103.424 48.376 102.96 48.2087 102.62 47.9186C102.279 47.6285 102.088 47.2389 102.088 46.8329C102.088 46.4269 102.279 46.0371 102.62 45.7472C102.96 45.4571 103.424 45.2898 103.912 45.2812H572.373C572.861 45.2898 573.324 45.4571 573.666 45.7472C574.006 46.0371 574.197 46.4269 574.197 46.8329C574.197 47.2389 574.006 47.6285 573.666 47.9186C573.324 48.2087 572.861 48.376 572.373 48.3846Z" fill="#CACACA"/>
<path d="M135.804 37.3507C141.834 37.3507 146.722 33.1885 146.722 28.0542C146.722 22.9199 141.834 18.7578 135.804 18.7578C129.775 18.7578 124.887 22.9199 124.887 28.0542C124.887 33.1885 129.775 37.3507 135.804 37.3507Z" fill="#3F3D56"/>
<path d="M173.517 37.3507C179.547 37.3507 184.435 33.1885 184.435 28.0542C184.435 22.9199 179.547 18.7578 173.517 18.7578C167.488 18.7578 162.6 22.9199 162.6 28.0542C162.6 33.1885 167.488 37.3507 173.517 37.3507Z" fill="#3F3D56"/>
<path d="M211.232 37.3507C217.262 37.3507 222.149 33.1885 222.149 28.0542C222.149 22.9199 217.262 18.7578 211.232 18.7578C205.202 18.7578 200.314 22.9199 200.314 28.0542C200.314 33.1885 205.202 37.3507 211.232 37.3507Z" fill="#3F3D56"/>
<path d="M549.669 21.0664H522.877C522.346 21.0753 521.84 21.2571 521.468 21.5731C521.096 21.889 520.889 22.3137 520.889 22.7562C520.889 23.1986 521.096 23.6234 521.468 23.9393C521.84 24.2552 522.346 24.437 522.877 24.4458H549.669C550.2 24.437 550.704 24.2552 551.078 23.9393C551.45 23.6234 551.658 23.1986 551.658 22.7562C551.658 22.3137 551.45 21.889 551.078 21.5731C550.704 21.2571 550.2 21.0753 549.669 21.0664Z" fill="#3F3D56"/>
<path d="M549.669 27.4062H522.877C522.346 27.4152 521.84 27.597 521.468 27.9129C521.096 28.2288 520.889 28.6536 520.889 29.096C520.889 29.5385 521.096 29.9632 521.468 30.2792C521.84 30.5951 522.346 30.7769 522.877 30.7856H549.669C550.2 30.7769 550.704 30.5951 551.078 30.2792C551.45 29.9632 551.658 29.5385 551.658 29.096C551.658 28.6536 551.45 28.2288 551.078 27.9129C550.704 27.597 550.2 27.4152 549.669 27.4062Z" fill="#3F3D56"/>
<path d="M549.669 33.7422H522.877C522.346 33.7509 521.84 33.9329 521.468 34.2488C521.096 34.5648 520.889 34.9895 520.889 35.432C520.889 35.8742 521.096 36.299 521.468 36.6149C521.84 36.9308 522.346 37.1128 522.877 37.1216H549.669C550.2 37.1128 550.704 36.9308 551.078 36.6149C551.45 36.299 551.658 35.8742 551.658 35.432C551.658 34.9895 551.45 34.5648 551.078 34.2488C550.704 33.9329 550.2 33.7509 549.669 33.7422Z" fill="#3F3D56"/>
<path d="M170.87 404.078C195.397 404.078 215.279 387.516 215.279 367.087C215.279 346.657 195.397 330.094 170.87 330.094C146.342 330.094 126.459 346.657 126.459 367.087C126.459 387.516 146.342 404.078 170.87 404.078Z" fill="#FFD524"/>
<path d="M164.121 396.117H150.629V416.252H164.121V396.117Z" fill="#2F2E41"/>
<path d="M191.107 396.117H177.615V416.252H191.107V396.117Z" fill="#2F2E41"/>
<path d="M161.872 420C168.082 420 173.115 418.429 173.115 416.489C173.115 414.55 168.082 412.977 161.872 412.977C155.663 412.977 150.629 414.55 150.629 416.489C150.629 418.429 155.663 420 161.872 420Z" fill="#2F2E41"/>
<path d="M188.858 419.525C195.068 419.525 200.102 417.952 200.102 416.013C200.102 414.073 195.068 412.5 188.858 412.5C182.649 412.5 177.615 414.073 177.615 416.013C177.615 417.952 182.649 419.525 188.858 419.525Z" fill="#2F2E41"/>
<path d="M127.789 332.682C124.204 319.306 135.666 305.788 153.392 302.492C171.119 299.196 188.395 307.367 191.981 320.742C195.567 334.12 183.82 339.054 166.093 342.35C148.367 345.648 131.375 346.058 127.789 332.682Z" fill="#F77721"/>
<path d="M227.817 376.58C229.815 373.434 221.684 366.59 209.655 361.289C197.628 355.989 186.258 354.243 184.261 357.389C182.263 360.533 190.395 367.38 202.422 372.678C214.449 377.978 225.819 379.726 227.817 376.58Z" fill="#E5287E"/>
<path d="M109.05 210.983C108.818 212.045 108.839 213.135 109.113 214.189C109.386 215.246 109.907 216.245 110.645 217.134C111.382 218.021 112.322 218.779 113.412 219.364C114.501 219.949 115.718 220.35 116.994 220.544C118.269 220.738 119.578 220.719 120.845 220.491C122.112 220.263 123.313 219.83 124.379 219.216C125.445 218.601 126.355 217.818 127.057 216.91C127.76 216.004 128.241 214.989 128.473 213.927L128.477 213.912C129.448 209.444 125.3 207.862 119.936 207.052C114.571 206.245 110.021 206.515 109.05 210.983Z" fill="white"/>
<path d="M688.778 419.681L1.2314 419.945C1.06986 419.945 0.909799 419.92 0.760435 419.869C0.611049 419.818 0.475279 419.742 0.360901 419.647C0.2465 419.552 0.15575 419.44 0.0938059 419.314C0.0318845 419.191 0 419.058 0 418.923C0 418.788 0.0318845 418.655 0.0938059 418.531C0.15575 418.406 0.2465 418.294 0.360901 418.199C0.475279 418.104 0.611049 418.028 0.760435 417.977C0.909799 417.925 1.06986 417.899 1.2314 417.901L688.778 417.637C689.101 417.637 689.414 417.745 689.642 417.937C689.872 418.129 690 418.387 690 418.659C690 418.929 689.872 419.189 689.642 419.381C689.414 419.573 689.101 419.681 688.778 419.681Z" fill="#CACACA"/>
<path d="M200.525 221.672H266.52V193.837H200.525V221.672Z" fill="#E5287E"/>
<path d="M254.887 216.076C254.887 207.001 246.13 199.645 235.328 199.645C224.526 199.645 215.77 207.001 215.77 216.076C215.77 225.151 224.526 232.507 235.328 232.507C246.13 232.507 254.887 225.151 254.887 216.076Z" fill="#363C54"/>
<path d="M225.07 216.075C225.07 217.995 225.818 219.768 227.082 221.199C228.948 223.32 231.949 224.695 235.331 224.695C240.998 224.695 245.593 220.836 245.593 216.075C245.593 212.379 242.825 209.226 238.937 208C237.815 207.647 236.6 207.453 235.331 207.453C229.664 207.453 225.07 211.312 225.07 216.075Z" fill="#41D6CE"/>
<path d="M338.563 187.806C338.563 187.953 338.561 188.099 338.561 188.244C338.56 188.534 338.557 188.822 338.554 189.107C338.554 189.249 338.553 189.391 338.551 189.532C338.538 190.911 338.517 192.229 338.487 193.509C338.367 198.81 338.116 203.469 337.762 209.069C337.66 210.7 337.548 212.413 337.428 214.243C337.327 215.448 336.915 216.576 336.259 217.571C334.639 220.032 331.53 221.678 327.977 221.678H258.793C258.794 221.674 258.796 221.672 258.796 221.668C258.816 221.608 258.818 221.549 258.842 221.489C259.419 219.761 259.695 217.951 259.695 216.076C259.695 209.399 255.893 203.462 249.999 199.719C248.942 199.046 247.817 198.445 246.635 197.923C244.264 196.874 241.673 196.155 238.935 195.812C237.878 195.679 236.802 195.602 235.705 195.585C231.519 195.543 227.557 196.386 224.098 197.923C221.035 199.273 218.35 201.149 216.218 203.409C212.995 206.825 211.038 211.117 210.963 215.781C210.939 217.761 211.238 219.677 211.815 221.489C211.839 221.549 211.863 221.608 211.864 221.668C211.866 221.672 211.866 221.674 211.866 221.678H119.828V129.491L125.088 128.672L182.765 119.685L223.837 113.286L304.665 100.691C306.875 100.691 308.995 100.992 310.972 101.544C311.232 101.616 311.49 101.693 311.745 101.773C311.749 101.774 311.752 101.776 311.755 101.777C311.884 101.818 312.013 101.86 312.141 101.904C312.268 101.948 312.396 101.992 312.522 102.037C312.648 102.083 312.774 102.13 312.899 102.177C313.025 102.224 313.15 102.273 313.273 102.323C313.396 102.373 313.519 102.424 313.642 102.475C316.526 103.695 318.999 105.481 320.856 107.641C320.874 107.663 320.893 107.684 320.911 107.706C321.028 107.841 321.141 107.978 321.25 108.116C321.517 108.45 321.771 108.793 322.008 109.144C322.019 109.158 322.029 109.173 322.04 109.188C322.464 109.816 322.839 110.47 323.162 111.143C323.164 111.148 323.167 111.153 323.168 111.158C323.478 111.803 323.739 112.466 323.947 113.145C323.963 113.191 323.978 113.238 323.992 113.286C324.263 114.093 325.306 117.31 326.69 121.729C326.706 121.782 326.724 121.837 326.74 121.891C327.224 123.433 327.748 125.12 328.293 126.898C328.378 127.176 328.466 127.457 328.552 127.74C328.682 128.165 328.813 128.594 328.945 129.028C329.032 129.317 329.121 129.607 329.209 129.899C329.342 130.337 329.476 130.779 329.609 131.223C329.691 131.491 329.771 131.759 329.851 132.03C330.13 132.954 330.409 133.892 330.688 134.832C330.732 134.983 330.777 135.135 330.823 135.289C330.915 135.599 331.005 135.91 331.097 136.221C331.185 136.52 331.272 136.819 331.36 137.118C331.367 137.144 331.374 137.17 331.382 137.197C331.508 137.628 331.634 138.06 331.759 138.491C332.067 139.559 332.373 140.624 332.669 141.675C332.784 142.078 332.896 142.479 333.008 142.878C333.063 143.075 333.117 143.271 333.171 143.466C333.254 143.763 333.335 144.058 333.416 144.351C333.595 145 333.77 145.643 333.941 146.276C333.941 146.276 333.941 146.276 333.941 146.278C334.04 146.644 334.138 147.008 334.233 147.368C334.294 147.597 334.355 147.825 334.412 148.052C334.639 148.915 334.856 149.755 335.059 150.566C335.096 150.713 335.132 150.859 335.169 151.003C335.169 151.005 335.169 151.006 335.169 151.006C335.199 151.127 335.228 151.248 335.259 151.367C335.291 151.5 335.323 151.633 335.356 151.765C335.363 151.8 335.372 151.834 335.381 151.869C335.414 152.005 335.446 152.14 335.477 152.273C335.479 152.279 335.48 152.286 335.482 152.292C335.516 152.431 335.549 152.571 335.581 152.708C335.583 152.713 335.583 152.717 335.584 152.722C335.654 153.013 335.721 153.299 335.785 153.579C335.786 153.584 335.786 153.59 335.787 153.595C335.841 153.823 335.891 154.046 335.94 154.267C335.973 154.415 336.006 154.562 336.037 154.708C336.053 154.783 336.069 154.858 336.086 154.931C336.133 155.148 336.178 155.361 336.221 155.569C336.317 156.037 336.405 156.483 336.483 156.905C336.505 157.02 336.526 157.135 336.545 157.247C336.615 157.638 336.676 158.007 336.726 158.352C336.91 159.515 337.078 160.696 337.229 161.894C338.09 168.679 338.45 175.966 338.557 183.054C338.569 184.732 338.57 186.307 338.563 187.806Z" fill="#41D6CE"/>
<path d="M294.018 201.638H306.104C307.317 201.638 308.309 200.804 308.309 199.786C308.309 198.767 307.317 197.934 306.104 197.934H294.018C292.805 197.934 291.812 198.767 291.812 199.786C291.812 200.804 292.805 201.638 294.018 201.638Z" fill="#F77721"/>
<path d="M338.563 187.812C338.563 187.959 338.561 188.105 338.561 188.25C338.56 188.54 338.557 188.828 338.554 189.113C338.554 189.255 338.553 189.397 338.551 189.538H119.828V152.475C158.602 152.407 201.048 152.343 238.988 152.303C256.582 152.283 273.21 152.269 288.051 152.263C289.177 152.262 290.294 152.262 291.399 152.262C298.335 152.258 304.853 152.257 310.865 152.259C313.578 152.259 316.189 152.259 318.687 152.26C320.104 152.262 321.485 152.263 322.829 152.263C323.281 152.264 323.729 152.264 324.173 152.264C324.578 152.264 324.98 152.265 325.377 152.265C326.318 152.267 327.237 152.267 328.136 152.268C330.422 152.27 332.574 152.274 334.583 152.277C334.884 152.278 335.182 152.279 335.477 152.279C335.479 152.285 335.48 152.292 335.482 152.298C335.516 152.437 335.549 152.577 335.581 152.714C335.583 152.719 335.583 152.723 335.584 152.728C335.653 153.018 335.719 153.305 335.785 153.585C335.786 153.59 335.786 153.596 335.787 153.601C335.841 153.829 335.891 154.052 335.94 154.273C335.973 154.421 336.006 154.568 336.037 154.714C336.053 154.789 336.069 154.864 336.086 154.937C336.133 155.154 336.178 155.367 336.221 155.575C336.317 156.043 336.405 156.489 336.483 156.911C336.505 157.026 336.526 157.141 336.545 157.253C336.615 157.644 336.676 158.013 336.726 158.358C336.91 159.521 337.078 160.702 337.229 161.9C338.09 168.685 338.45 175.972 338.557 183.06C338.569 184.738 338.57 186.313 338.563 187.812Z" fill="#57E5D4"/>
<path d="M347.589 142.044L346.199 142.156L343.243 142.393L341.445 142.537C340.892 142.582 340.364 142.473 339.92 142.25C339.251 141.917 338.777 141.33 338.696 140.631L338.67 140.395L336.575 121.963C336.448 120.842 337.384 119.845 338.689 119.672C337.299 114.614 333.822 110.819 326.562 109.538C324.962 109.256 323.415 109.15 322.008 109.147H321.999C322.013 109.16 322.026 109.175 322.04 109.19C322.401 109.599 322.769 110.254 323.162 111.145C323.164 111.15 323.167 111.155 323.168 111.16C323.418 111.727 323.676 112.39 323.947 113.147C324.011 113.324 324.076 113.506 324.14 113.693C324.282 114.097 324.426 114.524 324.576 114.975C324.579 114.986 324.582 114.998 324.586 115.009C324.741 115.472 324.898 115.96 325.061 116.472C325.076 116.522 325.092 116.57 325.109 116.62C325.174 116.828 325.242 117.041 325.31 117.259C325.339 117.348 325.367 117.438 325.395 117.529C325.488 117.828 325.583 118.134 325.681 118.448C325.761 118.705 325.843 118.967 325.925 119.235C325.954 119.333 325.985 119.433 326.016 119.532C326.068 119.702 326.12 119.873 326.174 120.046C326.251 120.295 326.328 120.549 326.408 120.807C326.469 121.004 326.53 121.204 326.591 121.406C326.623 121.513 326.656 121.621 326.69 121.731C326.706 121.784 326.724 121.839 326.74 121.893C327.004 122.754 327.28 123.655 327.57 124.596H238.988V152.71H119.828V100.694H224.148C224.153 100.69 224.159 100.687 224.163 100.684H304.671C306.863 100.684 308.986 100.988 310.972 101.546C311.232 101.617 311.49 101.694 311.745 101.775C311.749 101.777 311.752 101.778 311.755 101.779C311.884 101.82 312.013 101.863 312.141 101.906C312.268 101.95 312.396 101.995 312.522 102.039C312.648 102.086 312.774 102.132 312.899 102.179C313.025 102.226 313.15 102.275 313.273 102.325C313.396 102.375 313.519 102.426 313.642 102.477C316.541 103.701 319.031 105.489 320.856 107.644C320.874 107.665 320.893 107.686 320.911 107.708C321.023 107.843 321.135 107.98 321.243 108.118H321.25C323.057 108.172 325.131 108.335 327.265 108.709C335.233 110.104 340.266 113.797 341.877 119.409L342.847 119.332C344.139 119.228 345.314 119.966 345.562 121.038L349.825 139.534C350.108 140.76 349.07 141.926 347.589 142.044Z" fill="#E5287E"/>
<path d="M335.581 152.715H119.828V113.293H323.996C324.044 113.425 324.091 113.561 324.14 113.698C324.281 114.102 324.425 114.529 324.576 114.98C324.579 114.992 324.582 115.003 324.586 115.014C324.739 115.478 324.898 115.965 325.061 116.477C325.076 116.527 325.092 116.575 325.109 116.625C325.174 116.833 325.242 117.047 325.31 117.265C325.339 117.353 325.367 117.443 325.395 117.534C325.488 117.833 325.583 118.139 325.681 118.454C325.761 118.71 325.841 118.972 325.924 119.24C325.954 119.338 325.985 119.438 326.016 119.538C326.068 119.707 326.12 119.878 326.174 120.051C326.251 120.3 326.328 120.555 326.408 120.813C326.467 121.009 326.528 121.209 326.591 121.411C326.623 121.518 326.656 121.626 326.69 121.736C326.706 121.79 326.724 121.844 326.74 121.898C327.224 123.441 327.748 125.127 328.293 126.905C328.379 127.183 328.466 127.465 328.552 127.748C328.682 128.173 328.813 128.601 328.945 129.035C329.032 129.324 329.121 129.615 329.209 129.906C329.342 130.345 329.476 130.786 329.609 131.231C329.689 131.499 329.771 131.767 329.851 132.037C330.13 132.962 330.409 133.899 330.688 134.84C330.732 134.992 330.777 135.144 330.823 135.296C330.915 135.606 331.005 135.918 331.097 136.228C331.185 136.527 331.272 136.826 331.36 137.125C331.367 137.152 331.374 137.178 331.382 137.204C331.508 137.635 331.634 138.068 331.759 138.499C332.067 139.567 332.373 140.631 332.669 141.683C332.784 142.085 332.896 142.487 333.008 142.885C333.063 143.082 333.117 143.278 333.171 143.474C333.254 143.77 333.335 144.066 333.416 144.358C333.595 145.008 333.77 145.651 333.941 146.284C333.941 146.284 333.941 146.284 333.941 146.285C334.04 146.651 334.138 147.015 334.233 147.375C334.294 147.605 334.355 147.833 334.412 148.06C334.639 148.922 334.856 149.762 335.059 150.573C335.096 150.72 335.132 150.866 335.169 151.011C335.169 151.012 335.169 151.013 335.169 151.013C335.199 151.135 335.228 151.256 335.258 151.376C335.291 151.509 335.323 151.641 335.356 151.772C335.363 151.807 335.372 151.842 335.381 151.877C335.414 152.013 335.446 152.147 335.477 152.281C335.479 152.287 335.48 152.293 335.482 152.299C335.516 152.439 335.549 152.578 335.581 152.715Z" fill="#F4458D"/>
<path d="M285.869 122.65C285.735 120.843 287.443 119.316 289.598 119.316H306.669C317.657 119.316 325.225 126.629 326.565 136.032L330.529 176.873C330.665 178.271 329.35 179.469 327.68 179.469H292.687C291.212 179.469 289.992 178.505 289.9 177.268L285.869 122.65Z" fill="#F4458D"/>
<path d="M289.207 125.251L292.126 161.176L293.147 173.746C293.147 175.365 294.708 176.675 296.633 176.675H323.9C328.689 176.675 327.264 170.708 326.878 166.942L323.865 137.415C323.865 136.845 323.83 136.282 323.76 135.727C322.832 128.178 315.736 122.309 307.121 122.309H296.9C294.826 122.309 289.207 122.309 289.207 125.251Z" fill="#363C54"/>
<path d="M225.07 216.075C225.07 217.994 225.818 219.767 227.082 221.199C238.474 218.559 239.228 211.312 238.937 208C237.815 207.647 236.6 207.453 235.331 207.453C229.664 207.453 225.07 211.312 225.07 216.075Z" fill="#57E5D4"/>
<path d="M292.125 161.172L293.146 173.742C293.146 175.36 294.707 176.671 296.631 176.671H323.899C328.688 176.671 327.263 170.704 326.877 166.938L323.864 137.411C323.864 136.841 323.829 136.278 323.759 135.723C319.007 145.026 309.489 157.779 292.125 161.172Z" fill="#282F47"/>
<path d="M194.802 147.667H245.646C247.79 147.667 249.544 146.193 249.544 144.392V121.834C249.544 120.032 247.79 118.559 245.646 118.559H194.802C192.659 118.559 190.904 120.032 190.904 121.834V144.392C190.904 146.193 192.659 147.667 194.802 147.667Z" fill="#363C54"/>
<path d="M258.728 147.667H281.506C282.993 147.667 284.209 146.645 284.209 145.396V120.829C284.209 119.58 282.993 118.559 281.506 118.559H258.728C257.242 118.559 256.025 119.58 256.025 120.829V145.396C256.026 146.645 257.242 147.667 258.728 147.667Z" fill="#363C54"/>
<path d="M128.988 147.667H179.831C181.975 147.667 183.729 146.193 183.729 144.392V121.834C183.729 120.032 181.975 118.559 179.831 118.559H128.988C126.844 118.559 125.09 120.032 125.09 121.834V144.392C125.09 146.193 126.844 147.667 128.988 147.667Z" fill="#363C54"/>
<path d="M379.522 182.892C364.476 174.618 341.133 164.814 337.689 163.379C337.736 163.784 337.789 164.247 337.839 164.717C343.085 166.917 364.629 176.068 378.776 183.847C379.09 184.019 379.508 183.947 379.715 183.684C379.923 183.42 379.837 183.065 379.522 182.892Z" fill="#41D6CE"/>
<path d="M311.145 232.001C310.489 231.529 310.883 228.884 310.883 228.884C310.883 228.884 314.264 226.611 314.728 228.351C315.193 230.091 317.94 230.872 319.504 231.085C320.547 231.227 320.894 231.701 321.01 232.001L311.145 232.001Z" fill="#E5287E"/>
<path d="M310.767 229.006C313.897 229.414 315.042 228.787 315.042 228.787C315.001 226.197 315.952 220.357 317.256 213.651C318.974 204.809 321.304 194.463 322.777 188.084C323.624 184.415 324.188 182.059 324.188 182.059L321.63 182.017L308.87 181.805C308.87 181.805 309.825 193.668 309.564 199.527C309.501 200.926 309.369 201.984 309.138 202.455C306.964 206.895 310.767 229.006 310.767 229.006Z" fill="#FFD524"/>
<path d="M309.565 199.528C311.298 202.253 315.64 209.271 317.257 213.651C318.975 204.809 321.306 194.462 322.778 188.084C322.705 185.673 322.362 183.566 321.631 182.017L308.871 181.805C308.871 181.805 309.826 193.668 309.565 199.528Z" fill="#F2B111"/>
<path d="M321.893 232.001C321.237 231.529 321.631 228.884 321.631 228.884C321.631 228.884 325.012 226.611 325.477 228.351C325.941 230.091 328.689 230.872 330.252 231.085C331.296 231.227 331.642 231.701 331.758 232.001L321.893 232.001Z" fill="#E5287E"/>
<path d="M329.733 181.797C329.733 181.797 329.708 181.994 329.661 182.361C329.609 182.778 329.528 183.415 329.426 184.235C328.353 192.886 324.872 221.95 325.714 228.617C325.714 228.617 324.643 229.323 321.482 229.16C321.482 229.16 315.755 206.714 316.968 203.082C317.811 200.556 314.453 182.721 314.453 182.721L321.419 182.3L326.235 182.008L329.733 181.797Z" fill="#FFD524"/>
<path d="M329.664 182.364C329.612 182.781 329.531 183.418 329.429 184.238C324.542 184.817 316.654 183.357 316.654 183.357C318.293 182.856 319.902 182.516 321.422 182.303C323.173 182.057 324.809 181.978 326.238 182.011C327.589 182.044 328.756 182.176 329.664 182.364Z" fill="#F2B111"/>
<path d="M344.343 145.435C344.343 145.435 343.158 143.17 343.243 142.354C343.327 141.538 343.877 140.356 344.571 140.416C345.264 140.477 346.579 142.625 346.614 143.084C346.648 143.542 346.153 145.489 346.153 145.489L344.343 145.435Z" fill="#ECAF94"/>
<path d="M337.555 142.369C337.555 142.369 338.211 140.599 338.716 140.37C339.221 140.141 340.956 140.172 341.284 140.467C341.612 140.761 340.349 141.753 340.051 142.022C339.753 142.29 339.97 143.117 338.873 143.17C337.777 143.223 337.555 142.369 337.555 142.369Z" fill="#ECAF94"/>
<path d="M338.587 142.421C337.74 142.014 337.375 142.336 337.375 142.336C337.375 142.336 331.448 149.161 330.844 149.701C330.239 150.24 320.369 152.939 320.369 152.939C320.369 152.939 316.369 153.885 316.003 155.844C315.685 157.546 316.728 158.686 317.926 159.417C319.355 160.288 321.277 160.323 322.763 159.523C326.099 157.728 332.719 154.11 333.832 153.077C336.312 150.778 339.601 143.229 339.601 143.229C339.601 143.229 339.252 142.741 338.587 142.421Z" fill="#E86A13"/>
<path d="M317.393 153.938C317.393 153.938 323.766 156.613 326.928 155.393C326.928 155.393 325.6 153.948 324.112 153.349C324.144 152.872 324.162 152.442 324.171 152.062C324.2 150.795 324.124 150.082 324.124 150.082L321.375 148.401L319.511 147.262C319.617 147.967 319.634 148.619 319.586 149.217C319.34 152.299 317.393 153.938 317.393 153.938Z" fill="#ECAF94"/>
<path d="M319.59 149.214C319.59 149.214 321.076 151.703 324.175 152.059C324.203 150.792 324.128 150.078 324.128 150.078L321.379 148.398C320.178 148.778 319.59 149.214 319.59 149.214Z" fill="#E59D80"/>
<path d="M324.837 149.923C324.837 149.923 319.132 151.629 317.922 148.628C316.711 145.627 315.159 143.826 318.751 142.609C322.342 141.392 323.516 142.335 324.21 143.254C324.904 144.174 326.29 149.401 324.837 149.923Z" fill="#ECAF94"/>
<path d="M331.223 172.044C331.219 172.127 331.215 172.207 331.21 172.288C330.925 177.359 329.735 180.587 329.659 182.399V182.4C326.742 183.23 311.636 183.255 308.871 182.081C308.871 178.151 310.105 173.953 310.539 167.038C310.546 166.946 310.551 166.854 310.557 166.76C310.574 166.467 310.588 166.171 310.596 165.875C310.74 161.035 312.627 156.939 313.957 154.626C314.701 153.335 316.246 152.508 317.953 152.463C323.488 152.321 326.639 152.658 330.876 154.202C331.624 154.475 331.398 158.647 331.434 163.084C331.434 163.146 331.435 163.208 331.435 163.271C331.452 166.045 331.367 169.156 331.223 172.044Z" fill="#F77721"/>
<path d="M325.037 160.212C325.037 160.212 325.681 168.01 331.221 172.056C331.365 169.168 331.444 164.834 331.428 162.061C329.773 160.201 327.594 160.085 325.037 160.212Z" fill="#E86A13"/>
<path d="M324.585 140.913C324.585 140.913 324.248 143.776 323.224 144.557C322.201 145.339 322.471 146.415 322.359 146.571C322.247 146.727 321.188 146.267 321.001 146.531C320.573 147.137 321.243 147.579 321.666 147.725C322.089 147.871 320.586 150.329 319.481 150.42C317.572 150.576 314.623 146.141 314.374 144.841C314.048 143.141 315.194 140.489 318.479 140.619C323.643 140.825 324.689 139.884 324.585 140.913Z" fill="#461E0F"/>
<path d="M331.223 172.05C331.219 172.132 331.215 172.213 331.21 172.294C330.924 177.365 329.808 182.426 329.808 182.426C329.751 183.799 308.871 183.821 308.871 182.087C308.871 178.157 310.105 173.959 310.539 167.044C310.546 166.952 310.551 166.859 310.557 166.766C311.595 166.468 312.25 164.265 312.25 164.265L321.001 165.089C321.001 165.089 321.962 169.622 325.315 169.232C326.334 169.113 327.023 168.535 327.491 167.789C328.556 166.081 328.452 163.488 328.452 163.488L331.283 163.11L331.434 163.09C331.434 163.152 331.435 163.214 331.435 163.277C331.452 166.05 331.367 169.162 331.223 172.05Z" fill="#FFD524"/>
<path d="M313.878 165.5L312.502 165.292C312.51 165.261 313.3 162.206 314.398 159.098C316.663 152.687 317.508 152.588 317.952 152.461L318.571 152.449C316.814 152.954 315.071 160.862 313.878 165.5Z" fill="#FFD524"/>
<path d="M331.224 172.05C329.591 170.857 328.383 169.338 327.492 167.789C328.557 166.081 328.454 163.488 328.454 163.488L331.284 163.11C331.332 163.103 331.387 163.095 331.435 163.09C331.452 165.863 331.368 169.162 331.224 172.05Z" fill="#F2B111"/>
<path d="M321.225 154.174C321.225 154.174 324.208 152.217 326.664 152.943C328.425 153.463 341.854 155.801 342.329 155.543C342.803 155.284 343.486 144.688 343.486 144.688C343.486 144.688 346.137 143.935 347.046 144.709C347.046 144.709 350.259 156.453 346.277 160.717C346.277 160.717 332.034 163.429 326.238 161.2C323.252 160.052 321.225 154.174 321.225 154.174Z" fill="#F77721"/>
<path d="M319.821 165.572L318.732 165.289C318.002 165.161 319.589 162.284 320.745 159.257C323.13 153.013 324.435 152.889 324.878 152.762L325.475 152.819C323.714 153.325 321.104 161.057 319.821 165.572Z" fill="#FFD524"/>
</svg>
