<svg width="690" height="420" viewBox="0 0 690 420" fill="none" xmlns="http://www.w3.org/2000/svg">
<path d="M214.15 385.477H389.289V296.791H214.15V385.477Z" fill="#E5287E"/>
<path d="M358.431 367.648C358.431 338.737 335.191 315.297 306.526 315.297C277.86 315.297 254.621 338.737 254.621 367.648C254.621 396.562 277.86 420.001 306.526 420.001C335.191 420.001 358.431 396.562 358.431 367.648Z" fill="#363C54"/>
<path d="M279.295 367.653C279.295 373.77 281.28 379.418 284.633 383.978C289.587 390.738 297.55 395.117 306.524 395.117C321.564 395.117 333.759 382.822 333.759 367.653C333.759 355.876 326.414 345.833 316.096 341.926C313.118 340.801 309.893 340.184 306.524 340.184C291.485 340.184 279.295 352.479 279.295 367.653Z" fill="#41D6CE"/>
<path d="M580.485 277.588C580.485 278.056 580.481 278.521 580.481 278.981C580.477 279.906 580.469 280.824 580.461 281.733C580.461 282.185 580.457 282.638 580.453 283.087C580.418 287.478 580.363 291.679 580.284 295.757C579.965 312.647 579.3 327.489 578.359 345.333C578.087 350.53 577.792 355.986 577.473 361.818C577.206 365.658 576.111 369.251 574.371 372.42C570.072 380.262 561.821 385.507 552.393 385.507H368.788C368.792 385.495 368.796 385.487 368.796 385.475C368.851 385.284 368.855 385.094 368.918 384.903C370.449 379.4 371.182 373.631 371.182 367.659C371.182 346.385 361.092 327.469 345.452 315.542C342.645 313.398 339.661 311.484 336.523 309.82C330.233 306.477 323.355 304.186 316.088 303.094C313.285 302.669 310.427 302.427 307.518 302.372C296.409 302.237 285.894 304.925 276.714 309.82C268.585 314.12 261.46 320.1 255.803 327.299C247.248 338.182 242.056 351.856 241.855 366.718C241.792 373.027 242.587 379.13 244.119 384.903C244.182 385.094 244.245 385.284 244.249 385.475C244.253 385.487 244.253 385.495 244.253 385.507H0V91.7903L13.9593 89.1817L167.024 60.5462L276.021 40.1575L490.525 0.03125C496.39 0.03125 502.016 0.988136 507.263 2.74708C507.952 2.97737 508.637 3.22356 509.314 3.47767C509.326 3.48164 509.334 3.4856 509.342 3.48957C509.684 3.6206 510.027 3.7556 510.365 3.89457C510.704 4.03354 511.042 4.17648 511.377 4.31942C511.712 4.46633 512.046 4.61324 512.377 4.76412C512.712 4.915 513.042 5.06985 513.369 5.22867C513.696 5.38749 514.023 5.55029 514.349 5.71309C522.002 9.60024 528.564 15.29 533.493 22.1749C533.54 22.2424 533.592 22.3099 533.639 22.3814C533.95 22.8102 534.249 23.247 534.54 23.6877C535.249 24.7518 535.922 25.8437 536.552 26.9634C536.579 27.0071 536.607 27.0547 536.635 27.1024C537.76 29.1035 538.756 31.188 539.615 33.3321C539.619 33.348 539.626 33.3639 539.63 33.3797C540.453 35.4325 541.146 37.5449 541.697 39.7088C541.74 39.8557 541.78 40.0066 541.815 40.1575C542.536 42.7304 545.303 52.9783 548.976 67.0579C549.019 67.2286 549.066 67.4033 549.11 67.574C550.393 72.4895 551.783 77.8617 553.231 83.5276C553.456 84.4131 553.688 85.3104 553.916 86.2117C554.263 87.5657 554.609 88.9315 554.96 90.3133C555.192 91.2344 555.428 92.1596 555.66 93.0887C556.015 94.4863 556.369 95.8919 556.723 97.3093C556.94 98.163 557.152 99.0167 557.365 99.8783C558.105 102.824 558.845 105.81 559.585 108.808C559.703 109.288 559.821 109.773 559.943 110.261C560.187 111.25 560.428 112.243 560.672 113.231C560.904 114.184 561.136 115.137 561.368 116.09C561.388 116.173 561.408 116.257 561.428 116.34C561.762 117.714 562.097 119.092 562.427 120.466C563.246 123.868 564.057 127.259 564.845 130.61C565.148 131.893 565.447 133.171 565.742 134.442C565.888 135.069 566.033 135.693 566.175 136.316C566.396 137.261 566.612 138.202 566.825 139.135C567.301 141.204 567.766 143.252 568.218 145.269C568.218 145.269 568.218 145.269 568.218 145.273C568.482 146.441 568.742 147.6 568.994 148.748C569.155 149.478 569.317 150.205 569.47 150.927C570.072 153.675 570.647 156.351 571.186 158.936C571.285 159.405 571.379 159.869 571.478 160.33C571.478 160.334 571.478 160.338 571.478 160.338C571.556 160.723 571.635 161.108 571.718 161.489C571.801 161.914 571.887 162.335 571.974 162.756C571.993 162.867 572.017 162.978 572.041 163.089C572.127 163.522 572.214 163.951 572.297 164.376C572.301 164.396 572.304 164.415 572.308 164.435C572.399 164.88 572.486 165.325 572.572 165.761C572.576 165.777 572.576 165.789 572.58 165.805C572.765 166.734 572.942 167.643 573.111 168.537C573.115 168.553 573.115 168.573 573.119 168.588C573.261 169.315 573.395 170.026 573.525 170.729C573.611 171.201 573.698 171.67 573.781 172.134C573.824 172.372 573.867 172.611 573.911 172.845C574.037 173.536 574.155 174.215 574.269 174.878C574.525 176.367 574.757 177.788 574.966 179.134C575.025 179.499 575.08 179.865 575.131 180.222C575.316 181.469 575.477 182.644 575.611 183.744C576.099 187.448 576.544 191.212 576.946 195.028C579.229 216.648 580.186 239.863 580.469 262.448C580.501 267.792 580.504 272.811 580.485 277.588Z" fill="#41D6CE"/>
<path d="M462.272 321.631H494.347C497.566 321.631 500.198 318.975 500.198 315.729C500.198 312.483 497.566 309.828 494.347 309.828H462.272C459.054 309.828 456.42 312.483 456.42 315.729C456.42 318.975 459.054 321.631 462.272 321.631Z" fill="#F77721"/>
<path d="M580.485 277.588C580.485 278.057 580.481 278.521 580.481 278.982C580.477 279.907 580.469 280.824 580.461 281.733C580.461 282.186 580.457 282.639 580.453 283.087H0V165C102.9 164.785 215.543 164.579 316.23 164.452C362.923 164.388 407.048 164.344 446.434 164.325C449.422 164.321 452.387 164.321 455.319 164.321C473.727 164.309 491.025 164.305 506.98 164.313C514.18 164.313 521.108 164.313 527.738 164.317C531.497 164.321 535.162 164.325 538.729 164.325C539.93 164.329 541.118 164.329 542.295 164.329C543.37 164.329 544.437 164.333 545.492 164.333C547.988 164.337 550.429 164.337 552.814 164.341C558.881 164.348 564.593 164.36 569.923 164.368C570.722 164.372 571.513 164.376 572.297 164.376C572.301 164.396 572.304 164.416 572.308 164.436C572.399 164.881 572.486 165.325 572.572 165.762C572.576 165.778 572.576 165.79 572.58 165.806C572.761 166.731 572.938 167.644 573.111 168.537C573.115 168.553 573.115 168.573 573.119 168.589C573.261 169.316 573.395 170.026 573.525 170.729C573.611 171.202 573.698 171.67 573.781 172.135C573.824 172.373 573.867 172.611 573.911 172.845C574.037 173.536 574.155 174.215 574.269 174.878C574.525 176.367 574.757 177.789 574.966 179.135C575.025 179.5 575.08 179.865 575.131 180.223C575.316 181.469 575.477 182.645 575.611 183.745C576.099 187.449 576.544 191.213 576.946 195.029C579.229 216.648 580.186 239.864 580.469 262.448C580.501 267.793 580.504 272.812 580.485 277.588Z" fill="#57E5D4"/>
<path d="M604.439 131.778L600.751 132.135L592.905 132.89L588.134 133.35C586.665 133.493 585.264 133.144 584.087 132.433C582.311 131.373 581.052 129.503 580.839 127.276L580.768 126.525L575.21 67.7969C574.871 64.2274 577.355 61.051 580.819 60.499C577.131 44.3826 567.903 32.2924 548.637 28.2107C544.39 27.3133 540.284 26.9758 536.552 26.9639H536.528C536.564 27.0076 536.599 27.0552 536.635 27.1029C537.595 28.4052 538.571 30.4937 539.615 33.3326C539.619 33.3485 539.626 33.3644 539.63 33.3803C540.292 35.1869 540.977 37.2992 541.697 39.7093C541.866 40.2731 542.04 40.8528 542.209 41.4484C542.587 42.7349 542.969 44.0967 543.366 45.5341C543.374 45.5698 543.382 45.6056 543.394 45.6413C543.803 47.1183 544.22 48.6708 544.654 50.3027C544.693 50.4615 544.736 50.6164 544.779 50.7752C544.953 51.4383 545.134 52.1173 545.315 52.8121C545.39 53.094 545.464 53.3799 545.539 53.6697C545.787 54.6227 546.039 55.5994 546.299 56.6C546.512 57.4179 546.728 58.2517 546.945 59.1054C547.023 59.4191 547.106 59.7367 547.189 60.0543C547.326 60.5943 547.464 61.1383 547.606 61.6902C547.811 62.4843 548.015 63.2943 548.228 64.1162C548.389 64.7435 548.551 65.3788 548.712 66.0221C548.799 66.3635 548.885 66.709 548.976 67.0584C549.019 67.2291 549.066 67.4038 549.11 67.5745C549.81 70.3182 550.543 73.1889 551.31 76.1866H316.23V165.762H0V0.0317711H276.848C276.86 0.0198595 276.876 0.0119116 276.887 0H490.54C496.359 0 501.992 0.968804 507.263 2.7476C507.952 2.97392 508.637 3.22011 509.314 3.47819C509.326 3.48216 509.334 3.48612 509.342 3.49009C509.684 3.62112 510.027 3.75613 510.365 3.89509C510.704 4.03406 511.042 4.17701 511.377 4.31994C511.712 4.46685 512.046 4.61376 512.377 4.76464C512.712 4.91552 513.042 5.07037 513.369 5.22919C513.696 5.38801 514.023 5.55081 514.349 5.71361C522.041 9.61267 528.651 15.3104 533.493 22.1754C533.54 22.2429 533.592 22.3104 533.639 22.3819C533.938 22.8107 534.233 23.2475 534.521 23.6882H534.54C539.335 23.859 544.839 24.3791 550.503 25.5703C571.647 30.0133 585.004 41.7819 589.279 59.6613L591.854 59.4151C595.283 59.0855 598.4 61.4361 599.058 64.8507L610.372 123.781C611.124 127.688 608.368 131.401 604.439 131.778Z" fill="#E5287E"/>
<path d="M572.572 165.764H0V40.1602H541.827C541.953 40.581 542.079 41.0138 542.209 41.4506C542.583 42.737 542.965 44.0989 543.366 45.5362C543.374 45.572 543.382 45.6077 543.394 45.6434C543.799 47.1205 544.22 48.673 544.654 50.3048C544.693 50.4637 544.736 50.6185 544.779 50.7774C544.953 51.4404 545.134 52.1194 545.315 52.8143C545.39 53.0962 545.464 53.3821 545.539 53.6719C545.787 54.6248 546.039 55.6016 546.299 56.6022C546.512 57.4201 546.724 58.2539 546.945 59.1075C547.023 59.4212 547.106 59.7389 547.189 60.0565C547.326 60.5965 547.464 61.1405 547.606 61.6924C547.811 62.4865 548.015 63.2965 548.228 64.1184C548.385 64.7457 548.547 65.381 548.712 66.0242C548.799 66.3657 548.885 66.7111 548.976 67.0605C549.019 67.2313 549.066 67.4059 549.11 67.5767C550.393 72.4922 551.783 77.8644 553.231 83.5303C553.46 84.4157 553.688 85.3131 553.916 86.2144C554.263 87.5683 554.609 88.9342 554.96 90.3159C555.192 91.2371 555.428 92.1622 555.66 93.0913C556.015 94.489 556.369 95.8945 556.723 97.312C556.936 98.1657 557.152 99.0194 557.365 99.881C558.105 102.827 558.845 105.813 559.585 108.811C559.703 109.295 559.821 109.779 559.943 110.264C560.187 111.253 560.428 112.245 560.672 113.234C560.904 114.187 561.136 115.14 561.368 116.093C561.388 116.176 561.408 116.259 561.428 116.343C561.762 117.717 562.097 119.094 562.427 120.468C563.246 123.871 564.057 127.262 564.845 130.613C565.148 131.895 565.447 133.174 565.742 134.444C565.888 135.072 566.033 135.695 566.175 136.319C566.396 137.264 566.612 138.205 566.825 139.138C567.301 141.206 567.766 143.255 568.218 145.272C568.218 145.272 568.218 145.272 568.218 145.276C568.482 146.443 568.742 147.603 568.994 148.75C569.155 149.481 569.317 150.208 569.47 150.93C570.072 153.678 570.647 156.354 571.186 158.939C571.285 159.407 571.379 159.872 571.478 160.332C571.478 160.336 571.478 160.34 571.478 160.34C571.556 160.729 571.635 161.115 571.714 161.496C571.801 161.921 571.887 162.341 571.974 162.758C571.993 162.87 572.017 162.981 572.041 163.092C572.127 163.525 572.214 163.953 572.297 164.378C572.301 164.398 572.304 164.418 572.308 164.438C572.399 164.883 572.486 165.327 572.572 165.764Z" fill="#F4458D"/>
<path d="M440.635 70.0024C440.281 64.2471 444.814 59.3828 450.532 59.3828H495.836C524.997 59.3828 545.08 82.6823 548.637 112.639L559.155 242.763C559.515 247.219 556.028 251.035 551.595 251.035H458.73C454.815 251.035 451.576 247.963 451.333 244.022L440.635 70.0024Z" fill="#F4458D"/>
<path d="M449.496 78.2725L457.243 192.735L459.953 232.784C459.953 237.94 464.094 242.116 469.202 242.116H541.565C554.274 242.116 550.493 223.103 549.47 211.104L541.472 117.03C541.472 115.214 541.38 113.42 541.195 111.651C538.731 87.6004 519.9 68.8984 497.037 68.8984H469.911C464.408 68.8984 449.496 68.8984 449.496 78.2725Z" fill="#363C54"/>
<path d="M279.295 367.653C279.295 373.769 281.28 379.418 284.633 383.978C314.867 375.569 316.868 352.479 316.096 341.926C313.118 340.801 309.893 340.184 306.524 340.184C291.485 340.184 279.295 352.479 279.295 367.653Z" fill="#57E5D4"/>
<path d="M457.242 192.736L459.953 232.786C459.953 237.942 464.094 242.118 469.201 242.118H541.564C554.274 242.118 550.492 223.105 549.469 211.106L541.472 117.031C541.472 115.216 541.379 113.421 541.194 111.652C528.582 141.295 503.322 181.926 457.242 192.736Z" fill="#282F47"/>
<path d="M198.966 149.698H333.895C339.585 149.698 344.241 145.003 344.241 139.264V67.3916C344.241 61.6526 339.585 56.957 333.895 56.957H198.966C193.277 56.957 188.621 61.6526 188.621 67.3916V139.264C188.621 145.003 193.277 149.698 198.966 149.698Z" fill="#363C54"/>
<path d="M368.617 149.698H429.067C433.012 149.698 436.239 146.443 436.239 142.464V64.1905C436.239 60.2124 433.012 56.957 429.067 56.957H368.617C364.673 56.957 361.445 60.2124 361.445 64.1905V142.464C361.446 146.443 364.673 149.698 368.617 149.698Z" fill="#363C54"/>
<path d="M24.3064 149.698H159.235C164.925 149.698 169.58 145.003 169.58 139.264V67.3916C169.58 61.6526 164.925 56.957 159.235 56.957H24.3064C18.6168 56.957 13.9609 61.6526 13.9609 67.3916V139.264C13.9609 145.003 18.6168 149.698 24.3064 149.698Z" fill="#363C54"/>
<path d="M689.187 261.952C649.256 235.592 587.309 204.353 578.17 199.781C578.295 201.072 578.434 202.548 578.568 204.046C592.489 211.054 649.663 240.21 687.207 264.994C688.039 265.544 689.15 265.312 689.699 264.476C690.25 263.635 690.023 262.503 689.187 261.952Z" fill="#41D6CE"/>
<path d="M507.734 418.381C505.993 416.877 507.037 408.451 507.037 408.451C507.037 408.451 516.01 401.21 517.243 406.753C518.477 412.297 525.767 414.785 529.918 415.465C532.686 415.917 533.607 417.425 533.913 418.382L507.734 418.381Z" fill="#E5287E"/>
<path d="M506.731 408.843C515.039 410.143 518.076 408.148 518.076 408.148C517.969 399.896 520.491 381.287 523.951 359.922C528.51 331.751 534.696 298.786 538.603 278.463C540.852 266.774 542.348 259.268 542.348 259.268L535.559 259.134L501.697 258.457C501.697 258.457 504.231 296.256 503.538 314.924C503.372 319.38 503.02 322.75 502.409 324.252C496.638 338.397 506.731 408.843 506.731 408.843Z" fill="#FFD524"/>
<path d="M503.538 314.924C508.139 323.607 519.662 345.969 523.951 359.922C528.511 331.75 534.696 298.786 538.603 278.462C538.411 270.782 537.5 264.068 535.559 259.134L501.697 258.457C501.697 258.457 504.231 296.256 503.538 314.924Z" fill="#F2B111"/>
<path d="M536.254 418.381C534.512 416.877 535.556 408.451 535.556 408.451C535.556 408.451 544.529 401.21 545.763 406.753C546.997 412.297 554.287 414.785 558.437 415.465C561.206 415.917 562.126 417.425 562.433 418.382L536.254 418.381Z" fill="#E5287E"/>
<path d="M557.066 258.445C557.066 258.445 557 259.073 556.874 260.242C556.737 261.572 556.521 263.6 556.251 266.212C553.403 293.775 544.165 386.378 546.399 407.62C546.399 407.62 543.558 409.868 535.168 409.35C535.168 409.35 519.971 337.835 523.189 326.261C525.427 318.215 516.516 261.389 516.516 261.389L535.002 260.048L547.784 259.118L557.066 258.445Z" fill="#FFD524"/>
<path d="M556.876 260.241C556.739 261.571 556.524 263.599 556.253 266.211C543.285 268.056 522.352 263.405 522.352 263.405C526.7 261.81 530.97 260.726 535.004 260.047C539.652 259.262 543.993 259.012 547.786 259.116C551.372 259.221 554.468 259.643 556.876 260.241Z" fill="#F2B111"/>
<path d="M595.831 142.574C595.831 142.574 592.685 135.358 592.91 132.758C593.135 130.159 594.595 126.392 596.435 126.585C598.274 126.778 601.765 133.623 601.857 135.084C601.948 136.545 600.634 142.748 600.634 142.748L595.831 142.574Z" fill="#ECAF94"/>
<path d="M577.82 132.803C577.82 132.803 579.562 127.164 580.903 126.434C582.244 125.704 586.846 125.803 587.717 126.743C588.587 127.681 585.237 130.842 584.445 131.697C583.654 132.551 584.23 135.188 581.32 135.355C578.41 135.523 577.82 132.803 577.82 132.803Z" fill="#ECAF94"/>
<path d="M580.569 132.993C578.323 131.695 577.353 132.721 577.353 132.721C577.353 132.721 561.624 154.468 560.02 156.186C558.414 157.904 532.223 166.504 532.223 166.504C532.223 166.504 521.607 169.52 520.636 175.759C519.792 181.181 522.56 184.814 525.74 187.143C529.53 189.919 534.631 190.029 538.575 187.482C547.428 181.762 564.996 170.235 567.952 166.944C574.532 159.619 583.261 135.566 583.261 135.566C583.261 135.566 582.334 134.014 580.569 132.993Z" fill="#E86A13"/>
<path d="M524.32 169.667C524.32 169.667 541.234 178.187 549.626 174.302C549.626 174.302 546.1 169.698 542.154 167.788C542.238 166.271 542.286 164.9 542.31 163.688C542.385 159.651 542.185 157.379 542.185 157.379L534.89 152.026L529.941 148.395C530.224 150.643 530.267 152.718 530.141 154.624C529.487 164.443 524.32 169.667 524.32 169.667Z" fill="#ECAF94"/>
<path d="M530.143 154.626C530.143 154.626 534.088 162.557 542.311 163.689C542.386 159.653 542.186 157.38 542.186 157.38L534.891 152.027C531.702 153.238 530.143 154.626 530.143 154.626Z" fill="#E59D80"/>
<path d="M544.072 156.869C544.072 156.869 528.932 162.307 525.719 152.745C522.506 143.183 518.388 137.445 527.919 133.568C537.451 129.691 540.564 132.695 542.406 135.623C544.249 138.552 547.928 155.207 544.072 156.869Z" fill="#ECAF94"/>
<path d="M561.016 227.373C561.005 227.634 560.994 227.892 560.982 228.15C560.223 244.307 557.067 254.591 556.864 260.363V260.367C549.123 263.012 509.035 263.09 501.697 259.351C501.697 246.829 504.972 233.455 506.123 211.421C506.142 211.129 506.156 210.834 506.171 210.535C506.215 209.601 506.253 208.66 506.275 207.715C506.657 192.296 511.664 179.244 515.194 171.877C517.169 167.764 521.269 165.126 525.799 164.985C540.488 164.533 548.85 165.604 560.095 170.524C562.081 171.395 561.479 184.687 561.575 198.824C561.575 199.022 561.579 199.22 561.579 199.421C561.623 208.256 561.397 218.171 561.016 227.373Z" fill="#F77721"/>
<path d="M544.604 189.636C544.604 189.636 546.312 214.48 561.016 227.372C561.397 218.17 561.607 204.36 561.563 195.524C557.17 189.6 551.389 189.229 544.604 189.636Z" fill="#E86A13"/>
<path d="M543.4 128.161C543.4 128.161 542.505 137.283 539.788 139.773C537.072 142.264 537.789 145.691 537.492 146.189C537.196 146.687 534.384 145.222 533.889 146.062C532.751 147.992 534.529 149.399 535.652 149.866C536.775 150.333 532.786 158.163 529.855 158.452C524.787 158.95 516.961 144.819 516.3 140.676C515.435 135.259 518.476 126.811 527.195 127.227C540.9 127.881 543.676 124.884 543.4 128.161Z" fill="#461E0F"/>
<path d="M561.015 227.369C561.004 227.631 560.993 227.888 560.981 228.146C560.223 244.304 557.26 260.426 557.26 260.426C557.108 264.801 501.697 264.873 501.697 259.348C501.697 246.826 504.972 233.451 506.123 211.417C506.142 211.126 506.156 210.831 506.171 210.532C508.927 209.583 510.664 202.563 510.664 202.563L533.888 205.189C533.888 205.189 536.44 219.632 545.336 218.388C548.04 218.011 549.87 216.169 551.111 213.793C553.938 208.35 553.663 200.09 553.663 200.09L561.175 198.883L561.575 198.82C561.575 199.018 561.579 199.216 561.579 199.417C561.623 208.253 561.396 218.168 561.015 227.369Z" fill="#FFD524"/>
<path d="M514.985 206.531L511.334 205.867C511.355 205.77 513.451 196.034 516.365 186.133C522.377 165.708 524.619 165.391 525.797 164.985L527.44 164.949C522.776 166.557 518.153 191.754 514.985 206.531Z" fill="#FFD524"/>
<path d="M561.015 227.369C556.681 223.566 553.474 218.728 551.111 213.793C553.937 208.35 553.663 200.09 553.663 200.09L561.175 198.883C561.302 198.863 561.447 198.837 561.575 198.82C561.619 207.655 561.396 218.168 561.015 227.369Z" fill="#F2B111"/>
<path d="M534.484 170.423C534.484 170.423 542.401 164.188 548.92 166.5C553.593 168.158 589.231 175.608 590.491 174.783C591.751 173.959 593.561 140.198 593.561 140.198C593.561 140.198 600.599 137.8 603.009 140.267C603.009 140.267 611.536 177.684 600.969 191.269C600.969 191.269 563.171 199.91 547.788 192.808C539.864 189.15 534.484 170.423 534.484 170.423Z" fill="#F77721"/>
<path d="M530.773 206.748L527.883 205.847C525.943 205.44 530.157 196.274 533.225 186.627C539.552 166.733 543.017 166.339 544.192 165.934L545.777 166.117C541.104 167.729 534.177 192.364 530.773 206.748Z" fill="#FFD524"/>
</svg>
