<svg width="609" height="367" viewBox="0 0 609 367" fill="none" xmlns="http://www.w3.org/2000/svg">
<path d="M216.277 54.0664H174.123V306.533H216.277V54.0664Z" fill="#FFD524"/>
<path d="M206.809 54.0664H164.654V306.533H206.809V54.0664Z" fill="#FFDF5A"/>
<path d="M206.798 54H164.654V68.5889H206.798V54Z" fill="#FFD524"/>
<path d="M206.798 85.6406H164.654V100.229H206.798V85.6406Z" fill="#FFD524"/>
<path d="M206.798 117.281H164.654V131.87H206.798V117.281Z" fill="#FFD524"/>
<path d="M206.798 148.926H164.654V163.514H206.798V148.926Z" fill="#FFD524"/>
<path d="M206.798 180.566H164.654V195.155H206.798V180.566Z" fill="#FFD524"/>
<path d="M206.798 212.207H164.654V226.796H206.798V212.207Z" fill="#FFD524"/>
<path d="M206.798 243.848H164.654V258.436H206.798V243.848Z" fill="#FFD524"/>
<path d="M206.798 275.488H164.654V290.077H206.798V275.488Z" fill="#FFD524"/>
<path d="M148.887 20.0742H106.732V306.529H148.887V20.0742Z" fill="#FFD524"/>
<path d="M139.418 20.0742H97.2637V306.529H139.418V20.0742Z" fill="#FFDF5A"/>
<path d="M139.407 20H97.2637V36.5527H139.407V20Z" fill="#FFD524"/>
<path d="M139.407 55.9023H97.2637V72.455H139.407V55.9023Z" fill="#FFD524"/>
<path d="M139.407 91.8008H97.2637V108.353H139.407V91.8008Z" fill="#FFD524"/>
<path d="M139.407 127.703H97.2637V144.256H139.407V127.703Z" fill="#FFD524"/>
<path d="M139.407 163.605H97.2637V180.158H139.407V163.605Z" fill="#FFD524"/>
<path d="M139.407 199.504H97.2637V216.057H139.407V199.504Z" fill="#FFD524"/>
<path d="M139.407 235.406H97.2637V251.959H139.407V235.406Z" fill="#FFD524"/>
<path d="M139.407 271.305H97.2637V287.857H139.407V271.305Z" fill="#FFD524"/>
<path d="M239.09 295.508H221.438V340.643H239.09V295.508Z" fill="#DCEAF9"/>
<path d="M501.786 356.159V115.112H481.168V87.4753H476.342V39.9548H450.466V87.4753H426.274V10.0421H399.578V60.3083H393.49V0.296875H366.794V112.814H333.031V178.426H320.416V194.955H291.44V166.492H274.803V89.1503H237.232V231.923H233.701V356.159H501.786Z" fill="#FFDF5A"/>
<path d="M274.993 89.9258H237.311V107.775H274.993V89.9258Z" fill="#FFD524"/>
<path d="M274.993 116.469H254.262V134.318H274.993V116.469Z" fill="#FFD524"/>
<path d="M274.993 143.016H254.262V160.865H274.993V143.016Z" fill="#FFD524"/>
<path d="M274.993 170.844H254.262V188.693H274.993V170.844Z" fill="#FFD524"/>
<path d="M274.993 197.805H254.262V215.654H274.993V197.805Z" fill="#FFD524"/>
<path d="M274.993 224.77H254.262V242.619H274.993V224.77Z" fill="#FFD524"/>
<path d="M274.993 252.977H254.262V270.826H274.993V252.977Z" fill="#FFD524"/>
<path d="M282.349 89.9297H274.705V167.934H282.349V89.9297Z" fill="#FFD524"/>
<path d="M306.815 167.934H291.439V196.643H306.815V167.934Z" fill="#FFD524"/>
<path d="M426.266 10.168H431.573V88.2312H426.274L426.266 10.168Z" fill="#FFD524"/>
<path d="M396.746 0.296875H393.488V60.7898H396.746V0.296875Z" fill="#FFD524"/>
<path d="M393.488 7.96094H366.777V19.5247H393.488V7.96094Z" fill="#FFD524"/>
<path d="M393.488 29.6836H366.777V41.247H393.488V29.6836Z" fill="#FFD524"/>
<path d="M393.488 49.2266H366.777V60.7904H393.488V49.2266Z" fill="#FFD524"/>
<path d="M426.265 49.2266H399.555V60.7904H426.265V49.2266Z" fill="#FFD524"/>
<path d="M426.265 29.6836H399.555V41.247H426.265V29.6836Z" fill="#FFD524"/>
<path d="M426.265 10.168H399.555V21.7314H426.265V10.168Z" fill="#FFD524"/>
<path d="M426.272 68.1797H366.777V79.7434H426.272V68.1797Z" fill="#FFD524"/>
<path d="M426.272 87.1289H366.777V98.6923H426.272V87.1289Z" fill="#FFD524"/>
<path d="M426.272 105.648H366.777V112.989H426.272V105.648Z" fill="#FFD524"/>
<path d="M343.072 144.918H338.547V156.103H343.072V144.918Z" fill="#FFD524"/>
<path d="M351.535 144.918H347.01V156.103H351.535V144.918Z" fill="#FFD524"/>
<path d="M359.809 144.918H355.283V156.103H359.809V144.918Z" fill="#FFD524"/>
<path d="M367.653 144.918H363.127V156.103H367.653V144.918Z" fill="#FFD524"/>
<path d="M375.649 144.918H371.123V156.103H375.649V144.918Z" fill="#FFD524"/>
<path d="M383.735 144.918H379.209V156.103H383.735V144.918Z" fill="#FFD524"/>
<path d="M392.197 144.918H387.672V156.103H392.197V144.918Z" fill="#FFD524"/>
<path d="M400.471 144.918H395.945V156.103H400.471V144.918Z" fill="#FFD524"/>
<path d="M408.317 144.918H403.791V156.103H408.317V144.918Z" fill="#FFD524"/>
<path d="M416.311 144.918H411.785V156.103H416.311V144.918Z" fill="#FFD524"/>
<path d="M424.643 144.918H420.117V156.103H424.643V144.918Z" fill="#FFD524"/>
<path d="M433.105 144.918H428.58V156.103H433.105V144.918Z" fill="#FFD524"/>
<path d="M441.379 144.918H436.854V156.103H441.379V144.918Z" fill="#FFD524"/>
<path d="M449.225 144.918H444.699V156.103H449.225V144.918Z" fill="#FFD524"/>
<path d="M457.219 144.918H452.693V156.103H457.219V144.918Z" fill="#FFD524"/>
<path d="M465.305 144.918H460.779V156.103H465.305V144.918Z" fill="#FFD524"/>
<path d="M473.77 144.918H469.244V156.103H473.77V144.918Z" fill="#FFD524"/>
<path d="M482.041 144.918H477.516V156.103H482.041V144.918Z" fill="#FFD524"/>
<path d="M489.887 144.918H485.361V156.103H489.887V144.918Z" fill="#FFD524"/>
<path d="M497.881 144.918H493.355V156.103H497.881V144.918Z" fill="#FFD524"/>
<path d="M343.072 164.352H338.547V175.536H343.072V164.352Z" fill="#FFD524"/>
<path d="M351.535 164.352H347.01V175.536H351.535V164.352Z" fill="#FFD524"/>
<path d="M359.809 164.352H355.283V175.536H359.809V164.352Z" fill="#FFD524"/>
<path d="M367.653 164.352H363.127V175.536H367.653V164.352Z" fill="#FFD524"/>
<path d="M375.649 164.352H371.123V175.536H375.649V164.352Z" fill="#FFD524"/>
<path d="M383.735 164.352H379.209V175.536H383.735V164.352Z" fill="#FFD524"/>
<path d="M392.197 164.352H387.672V175.536H392.197V164.352Z" fill="#FFD524"/>
<path d="M400.471 164.352H395.945V175.536H400.471V164.352Z" fill="#FFD524"/>
<path d="M408.317 164.352H403.791V175.536H408.317V164.352Z" fill="#FFD524"/>
<path d="M416.311 164.352H411.785V175.536H416.311V164.352Z" fill="#FFD524"/>
<path d="M424.643 164.352H420.117V175.536H424.643V164.352Z" fill="#FFD524"/>
<path d="M433.105 164.352H428.58V175.536H433.105V164.352Z" fill="#FFD524"/>
<path d="M441.379 164.352H436.854V175.536H441.379V164.352Z" fill="#FFD524"/>
<path d="M449.225 164.352H444.699V175.536H449.225V164.352Z" fill="#FFD524"/>
<path d="M457.219 164.352H452.693V175.536H457.219V164.352Z" fill="#FFD524"/>
<path d="M465.305 164.352H460.779V175.536H465.305V164.352Z" fill="#FFD524"/>
<path d="M473.77 164.352H469.244V175.536H473.77V164.352Z" fill="#FFD524"/>
<path d="M482.041 164.352H477.516V175.536H482.041V164.352Z" fill="#FFD524"/>
<path d="M489.887 164.352H485.361V175.536H489.887V164.352Z" fill="#FFD524"/>
<path d="M497.881 164.352H493.355V175.536H497.881V164.352Z" fill="#FFD524"/>
<path d="M343.072 185H338.547V196.185H343.072V185Z" fill="#FFD524"/>
<path d="M351.535 185H347.01V196.185H351.535V185Z" fill="#FFD524"/>
<path d="M359.809 185H355.283V196.185H359.809V185Z" fill="#FFD524"/>
<path d="M367.653 185H363.127V196.185H367.653V185Z" fill="#FFD524"/>
<path d="M375.649 185H371.123V196.185H375.649V185Z" fill="#FFD524"/>
<path d="M383.735 185H379.209V196.185H383.735V185Z" fill="#FFD524"/>
<path d="M392.197 185H387.672V196.185H392.197V185Z" fill="#FFD524"/>
<path d="M400.471 185H395.945V196.185H400.471V185Z" fill="#FFD524"/>
<path d="M408.317 185H403.791V196.185H408.317V185Z" fill="#FFD524"/>
<path d="M416.311 185H411.785V196.185H416.311V185Z" fill="#FFD524"/>
<path d="M424.643 185H420.117V196.185H424.643V185Z" fill="#FFD524"/>
<path d="M433.105 185H428.58V196.185H433.105V185Z" fill="#FFD524"/>
<path d="M441.379 185H436.854V196.185H441.379V185Z" fill="#FFD524"/>
<path d="M449.225 185H444.699V196.185H449.225V185Z" fill="#FFD524"/>
<path d="M457.219 185H452.693V196.185H457.219V185Z" fill="#FFD524"/>
<path d="M465.305 185H460.779V196.185H465.305V185Z" fill="#FFD524"/>
<path d="M473.77 185H469.244V196.185H473.77V185Z" fill="#FFD524"/>
<path d="M482.041 185H477.516V196.185H482.041V185Z" fill="#FFD524"/>
<path d="M489.887 185H485.361V196.185H489.887V185Z" fill="#FFD524"/>
<path d="M497.881 185H493.355V196.185H497.881V185Z" fill="#FFD524"/>
<path d="M343.072 204.734H338.547V215.919H343.072V204.734Z" fill="#FFD524"/>
<path d="M351.535 204.734H347.01V215.919H351.535V204.734Z" fill="#FFD524"/>
<path d="M359.809 204.734H355.283V215.919H359.809V204.734Z" fill="#FFD524"/>
<path d="M367.653 204.734H363.127V215.919H367.653V204.734Z" fill="#FFD524"/>
<path d="M375.649 204.734H371.123V215.919H375.649V204.734Z" fill="#FFD524"/>
<path d="M383.735 204.734H379.209V215.919H383.735V204.734Z" fill="#FFD524"/>
<path d="M392.197 204.734H387.672V215.919H392.197V204.734Z" fill="#FFD524"/>
<path d="M400.471 204.734H395.945V215.919H400.471V204.734Z" fill="#FFD524"/>
<path d="M408.317 204.734H403.791V215.919H408.317V204.734Z" fill="#FFD524"/>
<path d="M416.311 204.734H411.785V215.919H416.311V204.734Z" fill="#FFD524"/>
<path d="M424.643 204.734H420.117V215.919H424.643V204.734Z" fill="#FFD524"/>
<path d="M433.105 204.734H428.58V215.919H433.105V204.734Z" fill="#FFD524"/>
<path d="M441.379 204.734H436.854V215.919H441.379V204.734Z" fill="#FFD524"/>
<path d="M449.225 204.734H444.699V215.919H449.225V204.734Z" fill="#FFD524"/>
<path d="M457.219 204.734H452.693V215.919H457.219V204.734Z" fill="#FFD524"/>
<path d="M465.305 204.734H460.779V215.919H465.305V204.734Z" fill="#FFD524"/>
<path d="M473.77 204.734H469.244V215.919H473.77V204.734Z" fill="#FFD524"/>
<path d="M482.041 204.734H477.516V215.919H482.041V204.734Z" fill="#FFD524"/>
<path d="M489.887 204.734H485.361V215.919H489.887V204.734Z" fill="#FFD524"/>
<path d="M497.881 204.734H493.355V215.919H497.881V204.734Z" fill="#FFD524"/>
<path d="M343.072 224.172H338.547V235.356H343.072V224.172Z" fill="#FFD524"/>
<path d="M351.535 224.172H347.01V235.356H351.535V224.172Z" fill="#FFD524"/>
<path d="M359.809 224.172H355.283V235.356H359.809V224.172Z" fill="#FFD524"/>
<path d="M367.653 224.172H363.127V235.356H367.653V224.172Z" fill="#FFD524"/>
<path d="M375.649 224.172H371.123V235.356H375.649V224.172Z" fill="#FFD524"/>
<path d="M383.735 224.172H379.209V235.356H383.735V224.172Z" fill="#FFD524"/>
<path d="M392.197 224.172H387.672V235.356H392.197V224.172Z" fill="#FFD524"/>
<path d="M400.471 224.172H395.945V235.356H400.471V224.172Z" fill="#FFD524"/>
<path d="M408.317 224.172H403.791V235.356H408.317V224.172Z" fill="#FFD524"/>
<path d="M416.311 224.172H411.785V235.356H416.311V224.172Z" fill="#FFD524"/>
<path d="M424.643 224.172H420.117V235.356H424.643V224.172Z" fill="#FFD524"/>
<path d="M433.105 224.172H428.58V235.356H433.105V224.172Z" fill="#FFD524"/>
<path d="M441.379 224.172H436.854V235.356H441.379V224.172Z" fill="#FFD524"/>
<path d="M449.225 224.172H444.699V235.356H449.225V224.172Z" fill="#FFD524"/>
<path d="M457.219 224.172H452.693V235.356H457.219V224.172Z" fill="#FFD524"/>
<path d="M465.305 224.172H460.779V235.356H465.305V224.172Z" fill="#FFD524"/>
<path d="M473.77 224.172H469.244V235.356H473.77V224.172Z" fill="#FFD524"/>
<path d="M482.041 224.172H477.516V235.356H482.041V224.172Z" fill="#FFD524"/>
<path d="M489.887 224.172H485.361V235.356H489.887V224.172Z" fill="#FFD524"/>
<path d="M497.881 224.172H493.355V235.356H497.881V224.172Z" fill="#FFD524"/>
<path d="M411.708 259.211H306.814V357.689H411.708V259.211Z" fill="#FFD524"/>
<path d="M332.169 308.824H227.275V357.691H332.169V308.824Z" fill="#FFD524"/>
<path d="M525.011 274.672H420.117V357.8H525.011V274.672Z" fill="#FFD524"/>
<path d="M333.365 270.828H313.822V289.205H333.365V270.828Z" fill="#FFDF5A"/>
<path d="M358.452 270.828H338.908V289.205H358.452V270.828Z" fill="#FFDF5A"/>
<path d="M383.061 270.828H363.518V289.205H383.061V270.828Z" fill="#FFDF5A"/>
<path d="M407.196 270.828H387.652V289.205H407.196V270.828Z" fill="#FFDF5A"/>
<path d="M420.688 259.211H410.619V357.689H420.688V259.211Z" fill="#FFD524"/>
<path d="M545.576 239.855H535.508V357.628H545.576V239.855Z" fill="#FFD524"/>
<path d="M535.82 274.672H525.012V357.628H535.82V274.672Z" fill="#FFD524"/>
<path d="M258.932 82.1602H258.387V89.9282H258.932V82.1602Z" fill="#DCEAF9"/>
<path d="M278.522 82.1602H277.977V89.9282H278.522V82.1602Z" fill="#DCEAF9"/>
<path d="M535.819 239.566H478.088V357.629H535.819V239.566Z" fill="#FFDF5A"/>
<path d="M531.948 215.918H530.881V239.855H531.948V215.918Z" fill="#FFDF5A"/>
<path d="M550.108 272.695H478.086V357.624H550.108V272.695Z" fill="#FFDF5A"/>
<path d="M550.108 261.602H478.086V289.205H550.108V261.602Z" fill="#FFD524"/>
<path d="M486.689 297.383H482.99V306.525H486.689V297.383Z" fill="#FFD524"/>
<path d="M493.607 297.383H489.908V306.525H493.607V297.383Z" fill="#FFD524"/>
<path d="M500.369 297.383H496.67V306.525H500.369V297.383Z" fill="#FFD524"/>
<path d="M506.781 297.383H503.082V306.525H506.781V297.383Z" fill="#FFD524"/>
<path d="M513.314 297.383H509.615V306.525H513.314V297.383Z" fill="#FFD524"/>
<path d="M519.923 297.383H516.225V306.525H519.923V297.383Z" fill="#FFD524"/>
<path d="M526.841 297.383H523.143V306.525H526.841V297.383Z" fill="#FFD524"/>
<path d="M533.603 297.383H529.904V306.525H533.603V297.383Z" fill="#FFD524"/>
<path d="M540.015 297.383H536.316V306.525H540.015V297.383Z" fill="#FFD524"/>
<path d="M546.55 297.383H542.852V306.525H546.55V297.383Z" fill="#FFD524"/>
<path d="M486.689 313.516H482.99V322.658H486.689V313.516Z" fill="#FFD524"/>
<path d="M493.607 313.516H489.908V322.658H493.607V313.516Z" fill="#FFD524"/>
<path d="M500.369 313.516H496.67V322.658H500.369V313.516Z" fill="#FFD524"/>
<path d="M506.781 313.516H503.082V322.658H506.781V313.516Z" fill="#FFD524"/>
<path d="M513.314 313.516H509.615V322.658H513.314V313.516Z" fill="#FFD524"/>
<path d="M519.923 313.516H516.225V322.658H519.923V313.516Z" fill="#FFD524"/>
<path d="M526.841 313.516H523.143V322.658H526.841V313.516Z" fill="#FFD524"/>
<path d="M533.603 313.516H529.904V322.658H533.603V313.516Z" fill="#FFD524"/>
<path d="M540.015 313.516H536.316V322.658H540.015V313.516Z" fill="#FFD524"/>
<path d="M546.55 313.516H542.852V322.658H546.55V313.516Z" fill="#FFD524"/>
<path d="M486.689 329.402H482.99V338.544H486.689V329.402Z" fill="#FFD524"/>
<path d="M493.607 329.402H489.908V338.544H493.607V329.402Z" fill="#FFD524"/>
<path d="M500.369 329.402H496.67V338.544H500.369V329.402Z" fill="#FFD524"/>
<path d="M506.781 329.402H503.082V338.544H506.781V329.402Z" fill="#FFD524"/>
<path d="M513.314 329.402H509.615V338.544H513.314V329.402Z" fill="#FFD524"/>
<path d="M519.923 329.402H516.225V338.544H519.923V329.402Z" fill="#FFD524"/>
<path d="M526.841 329.402H523.143V338.544H526.841V329.402Z" fill="#FFD524"/>
<path d="M533.603 329.402H529.904V338.544H533.603V329.402Z" fill="#FFD524"/>
<path d="M540.015 329.402H536.316V338.544H540.015V329.402Z" fill="#FFD524"/>
<path d="M546.55 329.402H542.852V338.544H546.55V329.402Z" fill="#FFD524"/>
<path d="M486.688 269.355H483.58V278.785H486.688V269.355Z" fill="#FFD524"/>
<path d="M517.548 269.355H514.439V278.785H517.548V269.355Z" fill="#FFD524"/>
<path d="M542.095 269.355H538.986V278.785H542.095V269.355Z" fill="#FFD524"/>
<path d="M247.133 272.695H175.111V357.624H247.133V272.695Z" fill="#FFDF5A"/>
<path d="M247.133 261.602H175.111V289.205H247.133V261.602Z" fill="#FFD524"/>
<path d="M183.715 297.383H180.016V306.525H183.715V297.383Z" fill="#FFD524"/>
<path d="M190.631 297.383H186.932V306.525H190.631V297.383Z" fill="#FFD524"/>
<path d="M197.394 297.383H193.695V306.525H197.394V297.383Z" fill="#FFD524"/>
<path d="M203.806 297.383H200.107V306.525H203.806V297.383Z" fill="#FFD524"/>
<path d="M210.339 297.383H206.641V306.525H210.339V297.383Z" fill="#FFD524"/>
<path d="M216.949 297.383H213.25V306.525H216.949V297.383Z" fill="#FFD524"/>
<path d="M223.867 297.383H220.168V306.525H223.867V297.383Z" fill="#FFD524"/>
<path d="M230.629 297.383H226.93V306.525H230.629V297.383Z" fill="#FFD524"/>
<path d="M237.041 297.383H233.342V306.525H237.041V297.383Z" fill="#FFD524"/>
<path d="M243.574 297.383H239.875V306.525H243.574V297.383Z" fill="#FFD524"/>
<path d="M183.715 313.516H180.016V322.658H183.715V313.516Z" fill="#FFD524"/>
<path d="M190.631 313.516H186.932V322.658H190.631V313.516Z" fill="#FFD524"/>
<path d="M197.394 313.516H193.695V322.658H197.394V313.516Z" fill="#FFD524"/>
<path d="M203.806 313.516H200.107V322.658H203.806V313.516Z" fill="#FFD524"/>
<path d="M210.339 313.516H206.641V322.658H210.339V313.516Z" fill="#FFD524"/>
<path d="M216.949 313.516H213.25V322.658H216.949V313.516Z" fill="#FFD524"/>
<path d="M223.867 313.516H220.168V322.658H223.867V313.516Z" fill="#FFD524"/>
<path d="M230.629 313.516H226.93V322.658H230.629V313.516Z" fill="#FFD524"/>
<path d="M237.041 313.516H233.342V322.658H237.041V313.516Z" fill="#FFD524"/>
<path d="M243.574 313.516H239.875V322.658H243.574V313.516Z" fill="#FFD524"/>
<path d="M183.715 329.402H180.016V338.544H183.715V329.402Z" fill="#FFD524"/>
<path d="M190.631 329.402H186.932V338.544H190.631V329.402Z" fill="#FFD524"/>
<path d="M197.394 329.402H193.695V338.544H197.394V329.402Z" fill="#FFD524"/>
<path d="M203.806 329.402H200.107V338.544H203.806V329.402Z" fill="#FFD524"/>
<path d="M210.339 329.402H206.641V338.544H210.339V329.402Z" fill="#FFD524"/>
<path d="M216.949 329.402H213.25V338.544H216.949V329.402Z" fill="#FFD524"/>
<path d="M223.867 329.402H220.168V338.544H223.867V329.402Z" fill="#FFD524"/>
<path d="M230.629 329.402H226.93V338.544H230.629V329.402Z" fill="#FFD524"/>
<path d="M237.041 329.402H233.342V338.544H237.041V329.402Z" fill="#FFD524"/>
<path d="M243.574 329.402H239.875V338.544H243.574V329.402Z" fill="#FFD524"/>
<path d="M183.714 269.355H180.605V278.785H183.714V269.355Z" fill="#FFD524"/>
<path d="M214.573 269.355H211.465V278.785H214.573V269.355Z" fill="#FFD524"/>
<path d="M239.12 269.355H236.012V278.785H239.12V269.355Z" fill="#FFD524"/>
<path d="M170.588 272.695H98.5664V357.624H170.588V272.695Z" fill="#FFDF5A"/>
<path d="M170.588 261.602H98.5664V289.205H170.588V261.602Z" fill="#FFD524"/>
<path d="M107.17 297.383H103.471V306.525H107.17V297.383Z" fill="#FFD524"/>
<path d="M114.088 297.383H110.389V306.525H114.088V297.383Z" fill="#FFD524"/>
<path d="M120.849 297.383H117.15V306.525H120.849V297.383Z" fill="#FFD524"/>
<path d="M127.261 297.383H123.562V306.525H127.261V297.383Z" fill="#FFD524"/>
<path d="M133.795 297.383H130.096V306.525H133.795V297.383Z" fill="#FFD524"/>
<path d="M140.404 297.383H136.705V306.525H140.404V297.383Z" fill="#FFD524"/>
<path d="M147.322 297.383H143.623V306.525H147.322V297.383Z" fill="#FFD524"/>
<path d="M154.084 297.383H150.385V306.525H154.084V297.383Z" fill="#FFD524"/>
<path d="M160.496 297.383H156.797V306.525H160.496V297.383Z" fill="#FFD524"/>
<path d="M167.029 297.383H163.33V306.525H167.029V297.383Z" fill="#FFD524"/>
<path d="M107.17 313.516H103.471V322.658H107.17V313.516Z" fill="#FFD524"/>
<path d="M114.088 313.516H110.389V322.658H114.088V313.516Z" fill="#FFD524"/>
<path d="M120.849 313.516H117.15V322.658H120.849V313.516Z" fill="#FFD524"/>
<path d="M127.261 313.516H123.562V322.658H127.261V313.516Z" fill="#FFD524"/>
<path d="M133.795 313.516H130.096V322.658H133.795V313.516Z" fill="#FFD524"/>
<path d="M140.404 313.516H136.705V322.658H140.404V313.516Z" fill="#FFD524"/>
<path d="M147.322 313.516H143.623V322.658H147.322V313.516Z" fill="#FFD524"/>
<path d="M154.084 313.516H150.385V322.658H154.084V313.516Z" fill="#FFD524"/>
<path d="M160.496 313.516H156.797V322.658H160.496V313.516Z" fill="#FFD524"/>
<path d="M167.029 313.516H163.33V322.658H167.029V313.516Z" fill="#FFD524"/>
<path d="M107.17 329.398H103.471V338.54H107.17V329.398Z" fill="#FFD524"/>
<path d="M114.088 329.398H110.389V338.54H114.088V329.398Z" fill="#FFD524"/>
<path d="M120.849 329.398H117.15V338.54H120.849V329.398Z" fill="#FFD524"/>
<path d="M127.261 329.398H123.562V338.54H127.261V329.398Z" fill="#FFD524"/>
<path d="M133.795 329.398H130.096V338.54H133.795V329.398Z" fill="#FFD524"/>
<path d="M140.404 329.398H136.705V338.54H140.404V329.398Z" fill="#FFD524"/>
<path d="M147.322 329.398H143.623V338.54H147.322V329.398Z" fill="#FFD524"/>
<path d="M154.084 329.398H150.385V338.54H154.084V329.398Z" fill="#FFD524"/>
<path d="M160.496 329.398H156.797V338.54H160.496V329.398Z" fill="#FFD524"/>
<path d="M167.029 329.398H163.33V338.54H167.029V329.398Z" fill="#FFD524"/>
<path d="M107.169 269.355H104.061V278.785H107.169V269.355Z" fill="#FFD524"/>
<path d="M138.026 269.355H134.918V278.785H138.026V269.355Z" fill="#FFD524"/>
<path d="M162.575 269.355H159.467V278.785H162.575V269.355Z" fill="#FFD524"/>
<path d="M93.873 272.695H21.8516V357.624H93.873V272.695Z" fill="#FFDF5A"/>
<path d="M93.873 261.602H21.8516V289.205H93.873V261.602Z" fill="#FFD524"/>
<path d="M30.4544 297.383H26.7559V306.525H30.4544V297.383Z" fill="#FFD524"/>
<path d="M37.3707 297.383H33.6719V306.525H37.3707V297.383Z" fill="#FFD524"/>
<path d="M44.1344 297.383H40.4355V306.525H44.1344V297.383Z" fill="#FFD524"/>
<path d="M50.5465 297.383H46.8477V306.525H50.5465V297.383Z" fill="#FFD524"/>
<path d="M57.0797 297.383H53.3809V306.525H57.0797V297.383Z" fill="#FFD524"/>
<path d="M63.6888 297.383H59.9902V306.525H63.6888V297.383Z" fill="#FFD524"/>
<path d="M70.6051 297.383H66.9062V306.525H70.6051V297.383Z" fill="#FFD524"/>
<path d="M77.3688 297.383H73.6699V306.525H77.3688V297.383Z" fill="#FFD524"/>
<path d="M83.779 297.383H80.0801V306.525H83.779V297.383Z" fill="#FFD524"/>
<path d="M90.3141 297.383H86.6152V306.525H90.3141V297.383Z" fill="#FFD524"/>
<path d="M30.4544 313.516H26.7559V322.658H30.4544V313.516Z" fill="#FFD524"/>
<path d="M37.3707 313.516H33.6719V322.658H37.3707V313.516Z" fill="#FFD524"/>
<path d="M44.1344 313.516H40.4355V322.658H44.1344V313.516Z" fill="#FFD524"/>
<path d="M50.5465 313.516H46.8477V322.658H50.5465V313.516Z" fill="#FFD524"/>
<path d="M57.0797 313.516H53.3809V322.658H57.0797V313.516Z" fill="#FFD524"/>
<path d="M63.6888 313.516H59.9902V322.658H63.6888V313.516Z" fill="#FFD524"/>
<path d="M70.6051 313.516H66.9062V322.658H70.6051V313.516Z" fill="#FFD524"/>
<path d="M77.3688 313.516H73.6699V322.658H77.3688V313.516Z" fill="#FFD524"/>
<path d="M83.779 313.516H80.0801V322.658H83.779V313.516Z" fill="#FFD524"/>
<path d="M90.3141 313.516H86.6152V322.658H90.3141V313.516Z" fill="#FFD524"/>
<path d="M30.4544 329.398H26.7559V338.54H30.4544V329.398Z" fill="#FFD524"/>
<path d="M37.3707 329.398H33.6719V338.54H37.3707V329.398Z" fill="#FFD524"/>
<path d="M44.1344 329.398H40.4355V338.54H44.1344V329.398Z" fill="#FFD524"/>
<path d="M50.5465 329.398H46.8477V338.54H50.5465V329.398Z" fill="#FFD524"/>
<path d="M57.0797 329.398H53.3809V338.54H57.0797V329.398Z" fill="#FFD524"/>
<path d="M63.6888 329.398H59.9902V338.54H63.6888V329.398Z" fill="#FFD524"/>
<path d="M70.6051 329.398H66.9062V338.54H70.6051V329.398Z" fill="#FFD524"/>
<path d="M77.3688 329.398H73.6699V338.54H77.3688V329.398Z" fill="#FFD524"/>
<path d="M83.779 329.398H80.0801V338.54H83.779V329.398Z" fill="#FFD524"/>
<path d="M90.3141 329.398H86.6152V338.54H90.3141V329.398Z" fill="#FFD524"/>
<path d="M30.454 269.355H27.3457V278.785H30.454V269.355Z" fill="#FFD524"/>
<path d="M61.3133 269.355H58.2051V278.785H61.3133V269.355Z" fill="#FFD524"/>
<path d="M85.8602 269.355H82.752V278.785H85.8602V269.355Z" fill="#FFD524"/>
<path d="M547.874 282.84H96.7969V323.147H547.874V282.84Z" fill="#18B5A5"/>
<path d="M286.442 124.198H35.2148V115.555C35.2148 111.659 38.0448 108.5 41.5357 108.5H273.301C275.363 108.5 277.295 109.622 278.478 111.507L286.442 124.198Z" fill="#57E5D4"/>
<path d="M35.2148 119.062V124.2H286.442L283.218 119.062H35.2148Z" fill="#2BCCC0"/>
<path d="M548.521 124.199H19.6197C10.6523 124.199 3.38281 132.314 3.38281 142.324V307.344C3.38281 311.792 6.22584 315.606 10.1436 316.416L54.6603 325.615H104.115C104.115 306.174 118.234 290.413 135.65 290.413C153.066 290.413 167.185 306.174 167.185 325.615H461.51C461.51 306.174 475.629 290.413 493.045 290.413C510.461 290.413 524.58 306.174 524.58 325.615H556.712C561.156 325.615 564.759 321.594 564.759 316.633V142.325C564.759 132.314 557.489 124.199 548.521 124.199Z" fill="#57E5D4"/>
<path d="M519.08 305.746C522.549 311.4 524.58 318.241 524.58 325.611H556.713C561.157 325.611 564.759 321.59 564.759 316.63C564.759 310.619 560.394 305.746 555.009 305.746H519.08Z" fill="#2BCCC0"/>
<path d="M3.38281 305.746V307.34C3.38281 311.788 6.22584 315.602 10.1436 316.412L54.6603 325.611H104.115C104.115 318.241 106.146 311.4 109.615 305.746H3.38281Z" fill="#2BCCC0"/>
<path d="M161.686 305.746C165.155 311.4 167.185 318.241 167.185 325.611H461.51C461.51 318.241 463.541 311.4 467.01 305.746H161.686Z" fill="#2BCCC0"/>
<path d="M7.18275 257.324H0V299.762H7.18275V257.324Z" fill="#F2B111"/>
<path d="M7.18275 245.816H0V253.835H7.18275V245.816Z" fill="#F2B111"/>
<path d="M564.759 255.176H561.057V293.552H564.759V255.176Z" fill="#F2B111"/>
<path d="M196.348 237.004H348.59C351.493 237.004 353.846 234.377 353.846 231.137V154.262C353.846 151.021 351.493 148.395 348.59 148.395H196.348C193.445 148.395 191.092 151.021 191.092 154.262V231.137C191.092 234.377 193.445 237.004 196.348 237.004Z" fill="#363C54"/>
<path d="M449.558 237.004H505.586C508.489 237.004 510.842 234.377 510.842 231.137V154.262C510.842 151.021 508.489 148.395 505.586 148.395H449.558C446.656 148.395 444.303 151.021 444.303 154.262V231.137C444.302 234.377 446.656 237.004 449.558 237.004Z" fill="#363C54"/>
<path d="M551.129 237.004H564.759V154.262C564.759 151.021 562.406 148.395 559.503 148.395H521.33C518.427 148.395 516.074 151.021 516.074 154.262V197.873C516.075 219.484 531.769 237.004 551.129 237.004Z" fill="#363C54"/>
<path d="M196.348 237.004H348.59C351.493 237.004 353.846 234.377 353.846 231.137V154.262C353.846 151.021 351.493 148.395 348.59 148.395H196.348C193.445 148.395 191.092 151.021 191.092 154.262V231.137C191.092 234.377 193.445 237.004 196.348 237.004Z" fill="#FF9CCE"/>
<path d="M449.558 237.004H505.586C508.489 237.004 510.842 234.377 510.842 231.137V154.262C510.842 151.021 508.489 148.395 505.586 148.395H449.558C446.656 148.395 444.303 151.021 444.303 154.262V231.137C444.302 234.377 446.656 237.004 449.558 237.004Z" fill="#FF9CCE"/>
<path d="M551.129 237.004H564.759V154.262C564.759 151.021 562.406 148.395 559.503 148.395H521.33C518.427 148.395 516.074 151.021 516.074 154.262V197.873C516.075 219.484 531.769 237.004 551.129 237.004Z" fill="#FF9CCE"/>
<path d="M22.4842 237.004H174.727C177.629 237.004 179.982 234.377 179.982 231.137V154.262C179.982 151.021 177.629 148.395 174.727 148.395H22.4842C19.5817 148.395 17.2285 151.021 17.2285 154.262V231.137C17.2285 234.377 19.5817 237.004 22.4842 237.004Z" fill="#363C54"/>
<path d="M22.4842 237.004H174.727C177.629 237.004 179.982 234.377 179.982 231.137V154.262C179.982 151.021 177.629 148.395 174.727 148.395H22.4842C19.5817 148.395 17.2285 151.021 17.2285 154.262V231.137C17.2285 234.377 19.5817 237.004 22.4842 237.004Z" fill="#FF9CCE"/>
<path d="M434.655 148.395H395.329H390.675H364.227C361.324 148.395 358.971 151.021 358.971 154.262V325.613H390.675H395.329H439.911V154.262C439.911 151.021 437.557 148.395 434.655 148.395Z" fill="#FF9CCE"/>
<mask id="mask0_255_934" style="mask-type:luminance" maskUnits="userSpaceOnUse" x="191" y="148" width="163" height="90">
<path d="M196.349 237.008H348.592C351.495 237.008 353.848 234.381 353.848 231.141V154.266C353.848 151.025 351.495 148.398 348.592 148.398H196.349C193.447 148.398 191.094 151.025 191.094 154.266V231.141C191.094 234.381 193.447 237.008 196.349 237.008Z" fill="white"/>
</mask>
<g mask="url(#mask0_255_934)">
<path opacity="0.5" d="M194.598 285.544H172.131L271.066 90.9492H293.534L194.598 285.544Z" fill="#FFF5DE"/>
</g>
<mask id="mask1_255_934" style="mask-type:luminance" maskUnits="userSpaceOnUse" x="191" y="148" width="163" height="90">
<path d="M196.349 237.008H348.592C351.495 237.008 353.848 234.381 353.848 231.141V154.266C353.848 151.025 351.495 148.398 348.592 148.398H196.349C193.447 148.398 191.094 151.025 191.094 154.266V231.141C191.094 234.381 193.447 237.008 196.349 237.008Z" fill="white"/>
</mask>
<g mask="url(#mask1_255_934)">
<path opacity="0.5" d="M231.243 290.001H208.775L307.711 95.4062H330.178L231.243 290.001Z" fill="#FFF5DE"/>
</g>
<mask id="mask2_255_934" style="mask-type:luminance" maskUnits="userSpaceOnUse" x="191" y="148" width="163" height="90">
<path d="M196.349 237.008H348.592C351.495 237.008 353.848 234.381 353.848 231.141V154.266C353.848 151.025 351.495 148.398 348.592 148.398H196.349C193.447 148.398 191.094 151.025 191.094 154.266V231.141C191.094 234.381 193.447 237.008 196.349 237.008Z" fill="white"/>
</mask>
<g mask="url(#mask2_255_934)">
<path opacity="0.5" d="M297.335 293.958H274.867L373.803 99.3633H396.27L297.335 293.958Z" fill="#FFF5DE"/>
</g>
<mask id="mask3_255_934" style="mask-type:luminance" maskUnits="userSpaceOnUse" x="191" y="148" width="163" height="90">
<path d="M196.349 237.008H348.592C351.495 237.008 353.848 234.381 353.848 231.141V154.266C353.848 151.025 351.495 148.398 348.592 148.398H196.349C193.447 148.398 191.094 151.025 191.094 154.266V231.141C191.094 234.381 193.447 237.008 196.349 237.008Z" fill="white"/>
</mask>
<g mask="url(#mask3_255_934)">
<path opacity="0.5" d="M245.184 293.551H239.26L338.195 98.957H344.119L245.184 293.551Z" fill="#FFF5DE"/>
</g>
<mask id="mask4_255_934" style="mask-type:luminance" maskUnits="userSpaceOnUse" x="444" y="148" width="67" height="90">
<path d="M449.557 237.008H505.584C508.487 237.008 510.84 234.381 510.84 231.141V154.266C510.84 151.025 508.487 148.398 505.584 148.398H449.557C446.654 148.398 444.301 151.025 444.301 154.266V231.141C444.3 234.381 446.654 237.008 449.557 237.008Z" fill="white"/>
</mask>
<g mask="url(#mask4_255_934)">
<path opacity="0.5" d="M451.882 275.52H429.414L528.35 80.9258H550.817L451.882 275.52Z" fill="#FFF5DE"/>
</g>
<mask id="mask5_255_934" style="mask-type:luminance" maskUnits="userSpaceOnUse" x="444" y="148" width="67" height="90">
<path d="M449.557 237.008H505.584C508.487 237.008 510.84 234.381 510.84 231.141V154.266C510.84 151.025 508.487 148.398 505.584 148.398H449.557C446.654 148.398 444.301 151.025 444.301 154.266V231.141C444.3 234.381 446.654 237.008 449.557 237.008Z" fill="white"/>
</mask>
<g mask="url(#mask5_255_934)">
<path opacity="0.5" d="M465.823 279.071H459.898L558.834 84.4766H564.758L465.823 279.071Z" fill="#FFF5DE"/>
</g>
<mask id="mask6_255_934" style="mask-type:luminance" maskUnits="userSpaceOnUse" x="516" y="148" width="49" height="90">
<path d="M551.129 237.008H564.759V154.266C564.759 151.025 562.406 148.398 559.503 148.398H521.33C518.427 148.398 516.074 151.025 516.074 154.266V197.876C516.075 219.488 531.769 237.008 551.129 237.008Z" fill="white"/>
</mask>
<g mask="url(#mask6_255_934)">
<path opacity="0.5" d="M505.616 271.966H499.51L598.445 77.3711H604.551L505.616 271.966Z" fill="#FFF5DE"/>
</g>
<mask id="mask7_255_934" style="mask-type:luminance" maskUnits="userSpaceOnUse" x="516" y="148" width="49" height="90">
<path d="M551.129 237.008H564.759V154.266C564.759 151.025 562.406 148.398 559.503 148.398H521.33C518.427 148.398 516.074 151.025 516.074 154.266V197.876C516.075 219.488 531.769 237.008 551.129 237.008Z" fill="white"/>
</mask>
<g mask="url(#mask7_255_934)">
<path opacity="0.5" d="M519.555 275.52H513.631L612.567 80.9258H618.491L519.555 275.52Z" fill="#FFF5DE"/>
</g>
<mask id="mask8_255_934" style="mask-type:luminance" maskUnits="userSpaceOnUse" x="17" y="148" width="163" height="90">
<path d="M22.4862 237.008H174.729C177.631 237.008 179.984 234.381 179.984 231.141V154.266C179.984 151.025 177.631 148.398 174.729 148.398H22.4862C19.5837 148.398 17.2305 151.025 17.2305 154.266V231.141C17.2305 234.381 19.5837 237.008 22.4862 237.008Z" fill="white"/>
</mask>
<g mask="url(#mask8_255_934)">
<path opacity="0.5" d="M18.2666 283.489H-4.20117L94.7346 88.8945H117.202L18.2666 283.489Z" fill="#FFF5DE"/>
</g>
<mask id="mask9_255_934" style="mask-type:luminance" maskUnits="userSpaceOnUse" x="17" y="148" width="163" height="90">
<path d="M22.4862 237.008H174.729C177.631 237.008 179.984 234.381 179.984 231.141V154.266C179.984 151.025 177.631 148.398 174.729 148.398H22.4862C19.5837 148.398 17.2305 151.025 17.2305 154.266V231.141C17.2305 234.381 19.5837 237.008 22.4862 237.008Z" fill="white"/>
</mask>
<g mask="url(#mask9_255_934)">
<path opacity="0.5" d="M95.7897 283.489H73.3223L172.258 88.8945H194.725L95.7897 283.489Z" fill="#FFF5DE"/>
</g>
<mask id="mask10_255_934" style="mask-type:luminance" maskUnits="userSpaceOnUse" x="17" y="148" width="163" height="90">
<path d="M22.4862 237.008H174.729C177.631 237.008 179.984 234.381 179.984 231.141V154.266C179.984 151.025 177.631 148.398 174.729 148.398H22.4862C19.5837 148.398 17.2305 151.025 17.2305 154.266V231.141C17.2305 234.381 19.5837 237.008 22.4862 237.008Z" fill="white"/>
</mask>
<g mask="url(#mask10_255_934)">
<path opacity="0.5" d="M31.1479 283.489H25.2324L124.168 88.8945H130.083L31.1479 283.489Z" fill="#FFF5DE"/>
</g>
<mask id="mask11_255_934" style="mask-type:luminance" maskUnits="userSpaceOnUse" x="358" y="148" width="82" height="178">
<path d="M434.655 148.398H395.329H390.675H364.227C361.324 148.398 358.971 151.025 358.971 154.266V325.617H390.675H395.329H439.911V154.266C439.911 151.025 437.557 148.398 434.655 148.398Z" fill="white"/>
</mask>
<g mask="url(#mask11_255_934)">
<path opacity="0.5" d="M330.229 331.083H307.762L406.697 136.488H429.165L330.229 331.083Z" fill="#FFF5DE"/>
</g>
<mask id="mask12_255_934" style="mask-type:luminance" maskUnits="userSpaceOnUse" x="358" y="148" width="82" height="178">
<path d="M434.655 148.398H395.329H390.675H364.227C361.324 148.398 358.971 151.025 358.971 154.266V325.617H390.675H395.329H439.911V154.266C439.911 151.025 437.557 148.398 434.655 148.398Z" fill="white"/>
</mask>
<g mask="url(#mask12_255_934)">
<path opacity="0.5" d="M344.17 334.638H338.246L437.182 140.043H443.106L344.17 334.638Z" fill="#FFF5DE"/>
</g>
<mask id="mask13_255_934" style="mask-type:luminance" maskUnits="userSpaceOnUse" x="358" y="148" width="82" height="178">
<path d="M434.655 148.398H395.329H390.675H364.227C361.324 148.398 358.971 151.025 358.971 154.266V325.617H390.675H395.329H439.911V154.266C439.911 151.025 437.557 148.398 434.655 148.398Z" fill="white"/>
</mask>
<g mask="url(#mask13_255_934)">
<path opacity="0.5" d="M383.96 327.532H372.727L471.662 132.938H482.896L383.96 327.532Z" fill="#FFF5DE"/>
</g>
<path d="M401.541 148.395H397.205V325.613H401.541V148.395Z" fill="#363C54"/>
<path d="M174.726 238.473H22.4838C18.8611 238.473 15.9141 235.183 15.9141 231.139V154.263C15.9141 150.22 18.8611 146.93 22.4838 146.93H174.726C178.349 146.93 181.296 150.219 181.296 154.263V231.139C181.296 235.183 178.349 238.473 174.726 238.473ZM22.4838 149.863C20.3101 149.863 18.5418 151.837 18.5418 154.263V231.139C18.5418 233.566 20.3101 235.539 22.4838 235.539H174.726C176.9 235.539 178.668 233.566 178.668 231.139V154.263C178.668 151.837 176.9 149.863 174.726 149.863H22.4838Z" fill="#363C54"/>
<path d="M348.589 238.473H196.347C192.725 238.473 189.777 235.183 189.777 231.139V154.263C189.777 150.22 192.724 146.93 196.347 146.93H348.589C352.212 146.93 355.159 150.219 355.159 154.263V231.139C355.159 235.183 352.212 238.473 348.589 238.473ZM196.347 149.863C194.173 149.863 192.405 151.837 192.405 154.263V231.139C192.405 233.566 194.173 235.539 196.347 235.539H348.589C350.763 235.539 352.531 233.566 352.531 231.139V154.263C352.531 151.837 350.763 149.863 348.589 149.863H196.347Z" fill="#363C54"/>
<path d="M441.225 327.082H357.658V154.263C357.658 150.22 360.605 146.93 364.228 146.93H434.656C438.278 146.93 441.225 150.219 441.225 154.263V327.082ZM360.286 324.149H438.598V154.263C438.598 151.837 436.829 149.863 434.656 149.863H364.228C362.055 149.863 360.286 151.837 360.286 154.263V324.149Z" fill="#363C54"/>
<path d="M505.585 238.473H449.558C445.935 238.473 442.988 235.183 442.988 231.139V154.263C442.988 150.22 445.935 146.93 449.558 146.93H505.585C509.208 146.93 512.155 150.219 512.155 154.263V231.139C512.155 235.183 509.208 238.473 505.585 238.473ZM449.558 149.863C447.384 149.863 445.616 151.837 445.616 154.263V231.139C445.616 233.566 447.384 235.539 449.558 235.539H505.585C507.759 235.539 509.527 233.566 509.527 231.139V154.263C509.527 151.837 507.759 149.863 505.585 149.863H449.558Z" fill="#363C54"/>
<path d="M563.25 238.473H551.129C531.075 238.473 514.76 220.26 514.76 197.875V154.263C514.76 150.22 517.707 146.93 521.33 146.93H559.503C563.125 146.93 566.072 150.219 566.072 154.263V235.322C566.072 237.059 564.806 238.473 563.25 238.473ZM521.33 149.863C519.156 149.863 517.388 151.837 517.388 154.263V197.875C517.388 218.643 532.524 235.539 551.129 235.539H563.25C563.357 235.539 563.444 235.442 563.444 235.322V154.263C563.444 151.837 561.676 149.863 559.503 149.863H521.33Z" fill="#363C54"/>
<path d="M448.977 325.613H349.773V330.857H448.977V325.613Z" fill="#57E5D4"/>
<path d="M453.313 330.859H345.438V336.103H453.313V330.859Z" fill="#2BCCC0"/>
<path d="M577.262 203.743C574.166 203.743 571.656 200.941 571.656 197.485V146.246C571.656 142.79 574.166 139.988 577.262 139.988C580.358 139.988 582.868 142.79 582.868 146.246V197.485C582.868 200.94 580.358 203.743 577.262 203.743Z" fill="#57E5D4"/>
<path d="M574.875 144.067H522.142C520.122 144.067 518.484 142.24 518.484 139.985C518.484 137.73 520.122 135.902 522.142 135.902H574.875C576.895 135.902 578.532 137.73 578.532 139.985C578.532 142.239 576.895 144.067 574.875 144.067Z" fill="#2BCCC0"/>
<path d="M163.294 335.861C168.2 318.667 159.691 300.289 144.288 294.812C128.885 289.335 112.421 298.833 107.515 316.028C102.608 333.222 111.117 351.6 126.52 357.077C141.923 362.554 158.387 353.055 163.294 335.861Z" fill="#363C54"/>
<path d="M135.424 306.848C125.971 306.848 118.309 315.401 118.309 325.953C118.309 336.505 125.971 345.058 135.424 345.058C144.876 345.058 152.539 336.505 152.539 325.953C152.539 315.401 144.876 306.848 135.424 306.848ZM137.768 308.941C141.496 309.576 144.781 311.704 147.127 314.757L141.195 318.846C140.228 317.867 139.06 317.133 137.768 316.725V308.941ZM133.079 308.941V316.725C131.788 317.134 130.619 317.867 129.653 318.846L123.721 314.757C126.067 311.704 129.352 309.576 133.079 308.941ZM121.21 332.625C120.436 330.573 120.007 328.319 120.007 325.953C120.007 323.555 120.447 321.273 121.241 319.199L127.17 323.287C126.951 324.133 126.831 325.027 126.831 325.953C126.831 326.847 126.943 327.711 127.148 328.531L121.21 332.625ZM133.079 342.964C129.325 342.325 126.019 340.171 123.669 337.081L129.594 332.997C130.572 334.007 131.762 334.764 133.079 335.18V342.964ZM131.538 325.953C131.538 323.557 133.278 321.615 135.424 321.615C137.57 321.615 139.309 323.557 139.309 325.953C139.309 328.348 137.57 330.29 135.424 330.29C133.278 330.29 131.538 328.348 131.538 325.953ZM137.768 342.964V335.18C139.086 334.764 140.275 334.007 141.254 332.997L147.178 337.081C144.829 340.171 141.523 342.325 137.768 342.964ZM143.7 328.531C143.905 327.711 144.017 326.847 144.017 325.953C144.017 325.028 143.897 324.134 143.678 323.287L149.607 319.199C150.4 321.273 150.84 323.555 150.84 325.953C150.84 328.319 150.412 330.574 149.638 332.625L143.7 328.531Z" fill="#2BCCC0"/>
<path d="M522.294 325.3C522.294 343.346 509.189 357.975 493.023 357.975C476.857 357.975 463.752 343.346 463.752 325.3C463.752 307.254 476.857 292.625 493.023 292.625C509.189 292.625 522.294 307.254 522.294 325.3Z" fill="#363C54"/>
<path d="M493.023 306.195C483.571 306.195 475.908 314.749 475.908 325.301C475.908 335.852 483.571 344.406 493.023 344.406C502.475 344.406 510.138 335.852 510.138 325.301C510.138 314.749 502.475 306.195 493.023 306.195ZM495.368 308.289C499.095 308.924 502.38 311.051 504.727 314.105L498.795 318.194C497.828 317.215 496.659 316.481 495.368 316.073V308.289H495.368ZM490.679 308.289V316.073C489.387 316.481 488.219 317.215 487.252 318.194L481.32 314.105C483.666 311.051 486.952 308.924 490.679 308.289ZM478.809 331.973C478.035 329.921 477.606 327.667 477.606 325.301C477.606 322.903 478.046 320.621 478.84 318.547L484.769 322.635C484.55 323.481 484.43 324.375 484.43 325.301C484.43 326.194 484.542 327.059 484.747 327.879L478.809 331.973ZM490.679 342.312C486.924 341.673 483.618 339.518 481.269 336.429L487.193 332.344C488.171 333.354 489.361 334.112 490.679 334.528V342.312ZM489.138 325.301C489.138 322.905 490.877 320.963 493.023 320.963C495.169 320.963 496.909 322.905 496.909 325.301C496.909 327.696 495.169 329.638 493.023 329.638C490.877 329.638 489.138 327.696 489.138 325.301ZM495.368 342.312V334.528C496.686 334.112 497.875 333.354 498.853 332.344L504.778 336.429C502.429 339.518 499.122 341.673 495.368 342.312ZM501.3 327.879C501.504 327.058 501.616 326.194 501.616 325.3C501.616 324.375 501.497 323.481 501.278 322.634L507.206 318.547C508 320.62 508.44 322.903 508.44 325.3C508.44 327.666 508.012 329.921 507.238 331.973L501.3 327.879Z" fill="#2BCCC0"/>
<path d="M124.892 346.612C124.892 346.612 122.613 348.934 123.058 350.584C123.502 352.234 125.559 353.333 125.838 355.35C126.116 357.367 127.227 358.467 128.228 358.467C129.229 358.467 132.999 358.467 132.999 358.467C132.999 358.467 133.735 357.047 131.956 356.62C130.177 356.192 129.507 353.822 129.618 351.623C129.729 349.422 129.451 346.489 129.451 346.489L125.671 345.512L124.892 346.612Z" fill="#461E0F"/>
<path d="M124.893 345.154C125.309 346.53 129.897 348.546 129.897 348.546C129.897 348.546 132.398 344.147 140.404 328.38C141.093 327.022 141.813 325.532 142.555 323.944C150.416 307.085 160.584 279.067 160.584 279.067L141.153 273.02C141.153 273.02 140.237 281.726 140.07 286.126C139.968 288.814 138.598 294.559 136.858 299.578C135.751 302.77 134.493 305.668 133.315 307.298C127.955 314.719 124.893 345.154 124.893 345.154Z" fill="#F77721"/>
<path d="M136.857 299.578C138.079 306.492 140.32 318.072 142.554 323.944C150.415 307.085 160.584 279.067 160.584 279.067L141.152 273.02C141.152 273.02 140.236 281.726 140.069 286.126C139.967 288.815 138.598 294.559 136.857 299.578Z" fill="#E86A13"/>
<path d="M172.744 267.215L174.262 266.992C174.262 266.992 175.835 263.467 178.987 265.832C178.987 265.832 180.245 266.936 179.489 267.783C178.733 268.63 178.921 268.141 177.877 269.37C176.833 270.599 175.416 270.993 174.446 270.251L173.244 270.044L172.744 267.215Z" fill="#ECAF94"/>
<path d="M153.743 231.754C153.743 231.754 142.562 245.636 149.194 265.676C151.264 271.931 174.194 271.075 174.194 271.075C174.194 271.075 175.32 269.507 173.29 267.198C173.29 267.198 158.99 261.398 157.306 260.571C155.811 259.837 159.278 244.024 158.204 239.01C157.129 233.997 153.743 231.754 153.743 231.754Z" fill="#E5287E"/>
<path d="M152.856 352.616C152.856 352.616 152.447 357.9 153.448 358.45L166.254 358.421C166.254 358.421 166.254 356.771 164.198 356.404C162.141 356.037 158.527 354.693 157.915 351.699C157.304 348.705 152.856 352.616 152.856 352.616Z" fill="#461E0F"/>
<path d="M163.668 277.971C163.668 277.971 162.993 287.234 162.199 298.369C161.12 313.495 159.822 332.074 159.694 335.594C159.472 341.705 158.581 351.482 158.581 351.482C158.581 351.482 156.47 353.805 152.244 352.826C152.244 352.826 148.477 338.87 147.402 324.103C147.385 323.861 147.369 323.618 147.352 323.374C146.351 308.342 144.795 276.688 144.795 276.688L163.668 277.971Z" fill="#F77721"/>
<path d="M145.961 227.369C145.961 227.369 153.561 232.949 158.311 231.303C158.311 231.303 156.99 229.071 155.733 227.289C155.898 226.225 156.025 225.301 156.099 224.518C156.3 222.711 156.3 221.687 156.3 221.687L153.121 218.897L150.107 216.227C150.345 223.735 145.961 227.369 145.961 227.369Z" fill="#ECAF94"/>
<path d="M135.234 295.499C144.893 302.779 164.412 300.7 164.558 300.56C164.883 295.926 165.068 288.286 165.169 281.214C165.295 272.43 165.297 264.526 165.287 264.359C165.287 264.359 165.28 264.093 165.271 263.643C165.239 262.215 165.161 258.943 165.077 256.505C165.062 256.049 165.047 255.624 165.031 255.244C165.029 255.222 165.029 255.203 165.028 255.182C164.967 254.088 164.367 251.159 163.523 247.749C162.285 242.748 160.526 236.714 159.175 233.908C158.482 232.468 156.153 228.301 156.153 228.301C154.508 228.663 153.323 228.121 151.587 227.177C149.687 226.153 147.642 225.049 147.313 225.329C144.828 227.358 143.148 231.914 142.252 237.737C141.742 241.09 134.757 295.138 135.234 295.499Z" fill="#F4458D"/>
<path d="M150.051 219.099C150.051 219.099 152.133 223.335 156.097 224.52C156.298 222.712 156.298 221.688 156.298 221.688L153.119 218.898L150.051 219.099Z" fill="#E59D80"/>
<path d="M157.748 221.567C157.748 221.567 149.889 223.002 149.151 217.61C148.414 212.217 146.902 208.77 151.889 207.626C156.875 206.481 158.134 208.378 158.778 210.112C159.423 211.846 159.773 221.055 157.748 221.567Z" fill="#ECAF94"/>
<path d="M146.295 206.979C146.224 206.887 146.059 206.814 145.693 206.792C145.693 206.792 145.986 206.587 146.377 206.576C146.454 206.008 146.725 205.002 147.601 204.757C147.601 204.757 147.13 205.037 147.069 205.642C148.084 204.478 150.259 203.631 156.281 204.162C164.219 204.862 161.603 210.534 160.575 211.21C159.548 211.887 156.961 210.033 155.046 210.202C153.132 210.372 152.768 213.46 152.118 213.884C151.469 214.307 151.724 213.558 150.845 213.115C149.967 212.672 149.883 214.297 150.137 215.354C150.391 216.411 149.183 217.805 149.183 217.805C149.183 217.805 149.183 217.805 147.963 216.338C146.743 214.871 145.593 208.658 146.148 207.333C146.197 207.216 146.246 207.098 146.295 206.979Z" fill="#461E0F"/>
<path d="M165.169 281.216C165.225 277.301 165.256 273.562 165.273 270.604C167.271 270.373 166.561 268.393 166.563 267.307C166.564 266.186 165.289 264.408 165.287 264.361C165.287 264.361 165.28 264.094 165.271 263.645C157.697 253.182 147.941 242.316 147.941 242.316C147.941 242.316 145.827 273.007 165.169 281.216Z" fill="#E5287E"/>
<path d="M154.895 240.527C154.998 240.716 157.397 256.522 163.552 256.697C164.151 256.715 164.656 256.646 165.079 256.504C165.064 256.047 165.049 255.623 165.033 255.243C165.031 255.221 165.031 255.202 165.029 255.18C164.969 254.087 164.369 251.158 163.524 247.747C161.008 247.17 158.062 244.594 154.895 240.527Z" fill="#E5287E"/>
<path d="M147.293 225.328C147.293 225.328 148.023 222.959 148.618 222.691C148.618 222.691 156.888 224.822 159.647 235.024C159.647 235.024 156.429 228.764 147.293 225.328Z" fill="#E5287E"/>
<path d="M183.573 262.043C183.573 262.043 183.675 261.765 184.067 261.472C184.356 261.117 184.679 260.679 184.76 260.4C184.913 259.869 185.504 259.831 185.61 260.348C185.645 260.521 185.639 260.701 185.597 260.884C186.57 260.721 187.992 260.751 190.067 261.247C190.067 261.247 191.685 261.555 190.288 262.713C189.355 263.487 188.766 263.305 187.434 264.373C186.103 265.441 184.439 265.733 183.416 265.012L182.066 264.769L181.814 262.175L183.573 262.043Z" fill="#ECAF94"/>
<path d="M145.472 233.216C145.472 233.216 142.704 249.421 159.299 261.943C163.19 264.879 178.715 265.554 182.731 265.68C183.314 265.699 183.793 265.186 183.813 264.536C183.84 263.644 183.71 262.458 182.951 261.792C182.951 261.792 165.938 255.068 164.275 255.399C162.8 255.693 155.003 239.448 151.955 236.258C148.908 233.069 145.472 233.216 145.472 233.216Z" fill="#F4458D"/>
<path d="M176.436 267.753C177.818 266.597 180.599 266.405 178.466 268.718C176.333 271.031 175.055 268.91 176.436 267.753Z" fill="#ECAF94"/>
<mask id="mask14_255_934" style="mask-type:luminance" maskUnits="userSpaceOnUse" x="253" y="40" width="87" height="85">
<path d="M339.613 40.2266H253.383V124.199H339.613V40.2266Z" fill="white"/>
</mask>
<g mask="url(#mask14_255_934)">
<path d="M260.64 95.9783C261.748 95.3333 266.447 96.7412 266.447 96.7412C266.447 96.7412 278.269 89.84 279.63 88.9039C281.204 87.8211 285.399 74.9004 288.476 67.7796C290.096 64.0288 294.965 64.0831 296.417 67.9196C296.678 68.6093 296.8 69.3725 296.708 70.2082C296.2 74.8365 285.677 91.3322 284.386 92.7315C282.035 95.279 267.829 99.2277 267.829 99.2277C267.829 99.2277 265.04 100.431 263.174 100.58C261.307 100.728 259.531 96.6234 260.64 95.9783Z" fill="#E59D80"/>
<path d="M286.252 64.637C288.326 63.473 290.025 59.2165 289.845 58.4558C289.824 58.3672 289.727 58.1279 289.573 57.7772L279.709 53.1192C279.709 53.1192 280.767 46.2359 283.921 45.297C284.012 43.9552 284.646 41.0469 288.43 41.0469C288.43 41.0469 286.94 41.498 286.169 42.4008C286.169 42.4008 289.306 40.3451 292.72 43.5041C296.134 46.6634 294.012 54.586 295.051 56.0904C296.089 57.5947 300.132 57.8957 299.638 62.7594C299.144 67.6238 286.807 73.7157 287.599 77.7401C287.599 77.7401 283.07 70.3081 285.914 66.548C285.419 67.1709 284.49 68.5281 284.365 70.0638C284.365 70.0638 283.908 65.9523 286.252 64.637ZM286.222 66.1862C286.222 66.1862 286.191 66.218 286.14 66.2766C286.167 66.2466 286.193 66.2159 286.222 66.1862Z" fill="#461E0F"/>
<path d="M297.73 152.219L300.176 151.818C300.176 151.818 308.398 144.524 309.623 130.914C309.748 129.529 309.774 128.123 309.681 126.706C309.671 126.542 309.687 126.379 309.767 126.241C309.767 126.24 309.768 126.239 309.77 126.237C310.033 125.787 310.688 124.659 311.574 123.054C312.449 121.473 313.945 118.484 315.59 115.131C318.555 109.091 322.007 101.868 323.191 99.568C326.964 92.2361 325.145 87.3057 325.145 87.3057C325.145 87.3057 314.621 86.1442 311.737 83.3281L310.698 85.1153C310.698 85.1153 308.418 96.3841 308.526 96.4362C308.414 96.8195 308.3 97.2095 308.184 97.6063C306.384 103.806 304.314 111.556 303.186 117.867C302.551 121.418 302.215 124.512 302.396 126.62C302.458 127.344 302.382 128.455 302.21 129.826C301.192 137.914 297.73 152.219 297.73 152.219Z" fill="#F77721"/>
<path d="M308.184 97.6063C309.075 103.093 311.18 112.225 315.59 115.131C318.555 109.091 322.007 101.868 323.191 99.5681C326.964 92.2362 325.145 87.3057 325.145 87.3057C325.145 87.3057 314.621 86.1442 311.737 83.3281L310.698 85.1153C310.698 85.1153 308.418 96.3841 308.526 96.4362C308.414 96.8195 308.3 97.2091 308.184 97.6063Z" fill="#E86A13"/>
<path d="M315.339 88.1543L315.305 86.0243C319.107 86.5596 328.413 80.9531 328.413 80.9531C328.413 80.9531 332.391 83.906 332.935 92.3394C333.201 96.4555 334.882 113.864 335.068 119.062C335.136 120.946 335.158 122.291 335.166 122.827C335.165 122.83 335.166 122.832 335.166 122.833C335.168 122.997 335.237 123.142 335.327 123.271C336.114 124.387 336.796 125.57 337.387 126.796C343.189 138.845 340.155 155.217 340.155 155.217L338.808 154.835C338.808 154.835 333.902 137.863 330.697 130.521C330.152 129.276 329.658 128.308 329.245 127.747C328.039 126.113 326.768 123.337 325.515 119.997C323.147 113.682 320.848 105.349 319.208 98.8963C319.093 98.9199 315.339 88.1543 315.339 88.1543Z" fill="#F77721"/>
<path d="M293.092 73.9359C299.307 72.3437 295.337 62.5946 294.976 62.766C294.115 62.5703 292.224 60.8824 290.532 57.5859L290.303 57.8074L286.486 61.5431C286.486 61.5431 287.369 62.996 288.111 64.4196C288.691 65.5336 289.184 66.6314 289.106 67.0082C288.798 67.2782 291.434 74.3612 293.092 73.9359Z" fill="#ECAF94"/>
<path d="M289.028 66.4727C289.028 66.4727 287.63 68.6741 286.779 70.641C285.928 72.6081 283.611 78.9282 283.611 78.9282C283.611 78.9282 286.082 83.2126 290.251 83.678C290.251 83.678 292.995 80.1579 292.679 76.5153C292.362 72.8735 289.028 66.4727 289.028 66.4727Z" fill="#E5287E"/>
<path d="M286.486 61.5444C286.486 61.5444 287.369 62.9955 288.111 64.4205C290.484 62.7873 290.487 59.5072 290.304 57.8086L286.486 61.5444Z" fill="#E59D80"/>
<path d="M286.379 63.415C286.379 63.415 292.142 59.8356 290.09 55.8641C288.038 51.8926 287.399 48.7558 283.634 50.873C279.867 52.9905 279.942 54.962 280.338 56.4738C280.734 57.9853 284.828 64.2436 286.379 63.415Z" fill="#ECAF94"/>
<path d="M279.364 54.1575C279.628 52.3942 280.431 52.2256 280.99 52.3435C283.119 48.4149 287.258 48.4688 287.258 48.4688C289.115 51.0703 291.137 52.9935 291.137 52.9935C291.137 52.9935 290.469 54.3825 287.713 55.2421C286.872 55.505 285.916 55.3457 284.995 54.9996C286.907 56.1892 288.905 56.6453 288.905 56.6453C285.275 57.0161 281.82 53.3106 281.462 52.9142C281.294 53.4885 281 54.6907 281.176 55.5696C281.416 56.7639 282.365 58.9272 281.786 59.2072C281.786 59.2072 278.969 56.8021 279.364 54.1575Z" fill="#461E0F"/>
<path d="M292.359 81.6658C293.672 82.1765 295.514 82.4576 297.399 82.6862C300.082 83.0134 302.852 83.2358 304.303 83.883C304.586 84.0084 305.411 84.3941 306.238 85.062V85.0641C306.238 85.0641 306.259 85.078 306.295 85.1116C306.569 85.3345 306.843 85.5927 307.095 85.8827C307.48 86.3245 307.815 86.8409 308.031 87.4331C308.563 88.9006 307.858 92.9685 307.407 95.1925C307.225 96.0871 307.603 97.0114 308.333 97.4343C309.353 98.0229 310.356 98.5676 311.341 99.0644C311.393 99.0912 311.444 99.1158 311.496 99.1422C311.486 98.9161 311.483 98.6915 311.483 98.4725C311.482 96.9379 311.656 95.6614 311.656 95.6614C311.898 97.21 312.812 98.8826 313.664 100.169C327.356 106.303 336.922 103.637 336.765 100.582C336.225 89.9738 329.817 80.9522 329.817 80.9522C317.866 65.4384 293.691 61.3547 293.691 61.3547C293.691 61.3547 292.533 61.199 291.136 63.073C289.126 65.7727 289.027 66.4763 289.027 66.4763C289.027 66.4763 288.496 80.1611 292.359 81.6658Z" fill="#F4458D"/>
<path d="M297.4 82.6839C300.083 83.0111 302.853 83.2347 304.304 83.8808C304.897 73.9902 300.716 66.5508 300.716 66.5508C300.716 66.5508 297.988 78.9414 297.4 82.6839Z" fill="#E5287E"/>
<path d="M275.428 108.012C277.592 107.894 279.934 109.956 279.934 109.956C279.934 109.956 287.54 95.5815 288.718 94.2365C290.567 92.1243 292.362 66.3264 294.639 64.6367C294.639 64.6367 301.363 65.3781 301.902 70.255C302.441 75.1319 295.456 94.9958 294.455 96.7944C292.634 100.069 281.91 111.294 281.91 111.294C281.91 111.294 280.813 113.67 279.445 113.425C278.459 113.248 275.056 110.861 273.231 109.54C272.756 109.197 272.897 108.381 273.452 108.265C273.976 108.155 274.638 108.055 275.428 108.012Z" fill="#ECAF94"/>
<path d="M307.408 95.1891C307.226 96.0837 307.604 97.008 308.334 97.4309C309.354 98.0195 310.357 98.5641 311.342 99.0609C311.394 98.8738 311.441 98.6773 311.484 98.4688C311.639 97.6941 311.711 96.768 311.657 95.6577C311.429 90.9619 308.564 87.4064 307.096 85.8789C307.481 86.3207 307.816 86.8371 308.032 87.4293C308.564 88.8972 307.859 92.9651 307.408 95.1891Z" fill="#E5287E"/>
<path d="M293.691 61.3527C293.691 61.3527 292.639 59.8673 291.928 59.9152C291.928 59.9152 289.051 64.4113 289.027 66.4742C289.027 66.4742 292.616 61.1438 293.691 61.3527Z" fill="#E5287E"/>
<path d="M291.137 73.9536C291.137 73.9536 290.446 61.3791 299.068 64.4195C307.69 67.4599 297.73 89.0878 297.73 89.0878C297.73 89.0878 292.67 88.8089 290.875 83.8802L291.137 73.9536Z" fill="#F4458D"/>
<path d="M257.092 96.2968C256.64 95.9614 256.821 95.1746 257.363 95.141C259.005 95.0407 261.475 95.3571 263.308 97.6525C266.305 101.406 269.668 108.601 272.139 109.367H262.295C262.295 109.367 262.091 100.013 257.092 96.2968Z" fill="#F4458D"/>
<path d="M265.818 109.371C265.008 104.671 261.281 99.4648 261.281 99.4648C264.046 103.775 263.752 109.371 263.752 109.371H265.818Z" fill="#E5287E"/>
<path d="M269.465 109.368C268.54 107.076 266.34 103.938 265.684 103.023C267.12 105.092 268.533 109.368 268.533 109.368H269.465Z" fill="#E5287E"/>
<path d="M272.194 108.849C272.166 108.834 272.14 108.817 272.112 108.804C271.778 108.643 271.426 108.598 271.09 108.65C271.145 107.997 270.825 107.351 270.256 107.077C269.917 106.913 269.551 106.914 269.229 107.045C269.132 106.977 269.031 106.914 268.923 106.862C268.77 106.788 268.613 106.736 268.455 106.701C268.383 106.114 268.047 105.581 267.524 105.329C267.155 105.151 266.759 105.146 266.406 105.277C266.128 104.845 265.71 104.464 265.19 104.213C264.075 103.676 262.889 103.927 262.407 104.757C262.4 104.754 262.394 104.75 262.388 104.747C261.544 104.34 260.565 104.774 260.201 105.716C260.195 105.731 260.191 105.746 260.186 105.761C259.983 105.564 259.751 105.398 259.491 105.272C258.138 104.62 256.567 105.316 255.984 106.826C255.818 107.256 255.752 107.705 255.77 108.142C255.331 108.296 254.951 108.652 254.754 109.162C254.395 110.09 254.778 111.166 255.609 111.567C255.918 111.716 256.246 111.75 256.554 111.686C256.561 112.331 256.9 112.942 257.464 113.214C258.23 113.583 259.117 113.19 259.448 112.336C259.648 111.818 259.596 111.249 259.354 110.8C259.909 110.572 260.394 110.14 260.714 109.548C260.802 109.624 260.899 109.691 261.006 109.743C261.156 109.815 261.311 109.852 261.465 109.861C261.674 110.721 262.219 111.472 263.009 111.853C264.205 112.429 265.567 111.971 266.295 110.834C266.514 111.121 266.792 111.359 267.122 111.519C267.93 111.908 268.827 111.731 269.464 111.149C269.574 111.831 269.978 112.441 270.591 112.737C271.373 113.114 272.256 112.864 272.79 112.187C272.914 112.353 273.073 112.491 273.263 112.583C273.912 112.895 274.665 112.562 274.945 111.838C275.225 111.114 274.927 110.273 274.278 109.96C274.142 109.895 274.002 109.86 273.862 109.848C273.866 109.841 273.869 109.834 273.872 109.826C274.08 109.289 273.858 108.665 273.377 108.433C272.938 108.222 272.437 108.409 272.194 108.849Z" fill="white"/>
<path d="M268.923 106.861C268.769 106.788 268.613 106.735 268.455 106.701C268.383 106.114 268.047 105.581 267.524 105.329C267.155 105.151 266.759 105.145 266.406 105.277C266.128 104.845 265.71 104.464 265.19 104.213C264.42 103.842 263.616 103.847 263.033 104.159C263.56 104.015 264.191 104.072 264.801 104.366C265.321 104.616 265.739 104.997 266.017 105.429C266.371 105.298 266.766 105.303 267.135 105.481C267.658 105.733 267.994 106.266 268.066 106.854C268.224 106.888 268.38 106.94 268.534 107.014C268.642 107.066 268.743 107.129 268.84 107.197C269.162 107.066 269.528 107.066 269.867 107.229C270.436 107.503 270.757 108.15 270.701 108.803C270.952 108.764 271.214 108.779 271.469 108.857C271.638 108.908 271.818 108.886 271.964 108.779L271.999 108.754C271.699 108.634 271.388 108.604 271.089 108.65C271.145 107.997 270.824 107.35 270.256 107.076C269.916 106.913 269.551 106.914 269.229 107.044C269.132 106.977 269.031 106.914 268.923 106.861Z" fill="#BDD9F9"/>
<path d="M259.492 105.271C258.783 104.929 258.016 104.96 257.361 105.281C257.874 105.129 258.481 105.013 259.01 105.229C259.107 105.269 259.188 105.299 259.287 105.33L260.186 105.759C259.902 105.432 259.66 105.352 259.492 105.271Z" fill="#BDD9F9"/>
<path d="M269.465 111.148C269.456 111.109 269.167 111.235 269.076 111.301C268.924 111.44 268.757 111.555 268.58 111.646C268.761 111.594 269.085 111.503 269.465 111.148Z" fill="#BDD9F9"/>
<path d="M260.982 104.793C261.218 104.735 261.465 104.732 261.709 104.794C261.94 104.852 262.181 104.836 262.407 104.757C261.799 104.405 261.349 104.588 260.982 104.793Z" fill="#BDD9F9"/>
<path d="M260.326 109.702C260.005 110.295 259.52 110.726 258.966 110.954C259.208 111.404 259.26 111.972 259.06 112.49C258.916 112.862 258.666 113.146 258.367 113.318C258.833 113.211 259.246 112.862 259.449 112.337C259.649 111.819 259.597 111.251 259.355 110.802C259.811 110.614 260.377 110.271 260.715 109.549C260.643 109.506 260.507 109.534 260.326 109.702Z" fill="#BDD9F9"/>
<path d="M272.506 108.508C272.665 108.488 272.831 108.51 272.989 108.586C273.47 108.818 273.692 109.442 273.484 109.979C273.481 109.987 273.477 109.993 273.474 110.001C273.614 110.012 273.754 110.048 273.89 110.113C274.538 110.425 274.837 111.266 274.557 111.99C274.439 112.296 274.237 112.53 273.994 112.677C274.403 112.596 274.769 112.295 274.946 111.837C275.226 111.113 274.928 110.273 274.279 109.96C274.143 109.895 274.003 109.859 273.863 109.848C273.867 109.84 273.87 109.834 273.873 109.826C274.081 109.289 273.859 108.665 273.378 108.433C273.082 108.291 272.76 108.333 272.506 108.508Z" fill="#BDD9F9"/>
<path d="M272.662 112.206C272.532 112.258 272.41 112.339 272.311 112.448C272.156 112.618 271.978 112.755 271.785 112.858C272.049 112.789 272.473 112.611 272.79 112.188C272.774 112.171 272.724 112.182 272.662 112.206Z" fill="#BDD9F9"/>
<path d="M266.093 110.853C265.991 110.902 265.908 110.988 265.839 111.086C265.557 111.489 265.192 111.797 264.785 111.996C265.264 111.853 265.914 111.526 266.296 110.832C266.265 110.799 266.185 110.809 266.093 110.853Z" fill="#BDD9F9"/>
<path d="M264.426 108.791C263.797 108.488 263.508 107.675 263.779 106.973C263.885 106.702 264.058 106.488 264.268 106.344C263.984 106.477 263.743 106.728 263.612 107.069C263.34 107.771 263.63 108.585 264.258 108.887C264.643 109.073 265.066 109.022 265.398 108.795C265.097 108.936 264.748 108.947 264.426 108.791Z" fill="#BDD9F9"/>
<path d="M258.172 107.015C258.409 106.914 258.68 106.911 258.931 107.032C259.182 107.153 259.367 107.375 259.463 107.637C259.439 107.319 259.267 107.024 258.986 106.889C258.706 106.753 258.396 106.815 258.172 107.015Z" fill="#FFDF5A"/>
<path d="M271.622 111.276C271.214 111.079 271.026 110.551 271.202 110.096C271.266 109.929 271.371 109.796 271.498 109.703C271.306 109.788 271.143 109.954 271.054 110.182C270.878 110.638 271.066 111.166 271.474 111.363C271.733 111.487 272.017 111.448 272.236 111.287C272.045 111.371 271.825 111.374 271.622 111.276Z" fill="#FFDF5A"/>
<path d="M267.349 99.8334C267.349 98.5516 266.418 97.5123 265.27 97.5123C265.073 97.5123 264.884 97.5448 264.704 97.6016C264.519 97.2609 264.186 97.0312 263.803 97.0312C263.219 97.0312 262.746 97.5595 262.746 98.2109C262.746 98.6423 262.956 99.0159 263.266 99.2216C263.218 99.4166 263.19 99.6213 263.19 99.8334C263.19 100.614 263.536 101.303 264.066 101.723C263.978 101.885 263.925 102.071 263.925 102.273C263.925 102.863 264.354 103.341 264.882 103.341C265.411 103.341 265.839 102.863 265.839 102.273C265.839 102.203 265.833 102.135 265.821 102.069C266.701 101.799 267.349 100.902 267.349 99.8334Z" fill="white"/>
<path d="M265.108 103.026C264.579 103.026 264.151 102.548 264.151 101.958C264.151 101.756 264.204 101.569 264.291 101.408C263.762 100.987 263.416 100.299 263.416 99.5181C263.416 99.306 263.444 99.1017 263.491 98.9063C263.182 98.7006 262.972 98.327 262.972 97.8952C262.972 97.6899 263.023 97.5002 263.105 97.332C262.887 97.5481 262.746 97.8603 262.746 98.212C262.746 98.6435 262.956 99.017 263.266 99.2228C263.218 99.4178 263.19 99.6224 263.19 99.8346C263.19 100.615 263.536 101.304 264.066 101.725C263.978 101.886 263.925 102.072 263.925 102.274C263.925 102.864 264.354 103.342 264.882 103.342C265.251 103.342 265.568 103.107 265.727 102.765C265.56 102.926 265.345 103.026 265.108 103.026Z" fill="#BDD9F9"/>
<path d="M266.047 101.754C266.058 101.82 266.065 101.888 266.065 101.958C266.065 101.964 266.064 101.97 266.064 101.976C266.452 101.797 266.781 101.492 267.009 101.105C266.751 101.412 266.42 101.64 266.047 101.754Z" fill="#BDD9F9"/>
</g>
<path d="M520.852 289.159C520.852 289.159 518.045 280.097 515.332 279.266C512.619 278.435 512.781 282.088 515.356 283.474C517.931 284.86 520.852 289.159 520.852 289.159Z" fill="#F4458D"/>
<path d="M523.755 288.212C523.755 288.212 523.363 282.232 524.61 280.591C525.856 278.951 526.52 280.93 525.459 282.799C524.399 284.668 523.755 288.212 523.755 288.212Z" fill="#57E5D4"/>
<path d="M516.344 295.613C516.344 295.613 513.376 296.22 512.793 297.811C512.209 299.402 513.282 299.764 514.008 298.329C514.734 296.895 516.344 295.613 516.344 295.613Z" fill="#363C54"/>
<path d="M519.213 291.963C519.213 291.963 512.613 286.632 509.062 289.935C507.131 291.73 506.468 293.85 507.83 294.619C508.726 295.125 509.357 293.166 511.965 291.699C515.33 289.806 519.213 291.963 519.213 291.963Z" fill="#FFD524"/>
<path d="M549.965 245.234C549.965 245.234 551.151 241.848 551.187 241.259C551.224 240.671 550.994 238.841 550.842 238.796C550.691 238.751 550.229 238.623 550.161 238.974C550.094 239.324 550.23 239.697 550.108 239.609C549.985 239.52 550.247 238.199 549.621 238.09C548.995 237.981 547.004 238.295 546.728 239.835C546.452 241.376 547.751 244.615 547.739 244.878C547.638 247.114 549.965 245.234 549.965 245.234Z" fill="#E59D80"/>
<path d="M549.049 244.427C550.563 244.072 550.912 244.87 550.912 244.87C550.912 244.87 555.596 260.873 556.169 262.205C556.744 263.537 569.842 273.633 569.842 273.633C569.842 273.633 575.242 277.443 574.59 281.367C574.025 284.776 571.769 286.431 569.532 287.227C566.865 288.176 563.971 287.28 562.239 285.009C558.352 279.911 550.671 269.688 549.638 267.157C547.339 261.525 547.039 245.461 547.039 245.461C547.039 245.461 547.859 244.705 549.049 244.427Z" fill="#F2B111"/>
<path d="M566.59 356.926H555.404C555.581 356.451 556.007 355.831 557.045 355.628C558.807 355.284 561.865 354.22 561.473 351.381C561.076 348.504 565.366 348.133 565.366 348.133C565.366 348.133 567.151 355.831 566.59 356.926Z" fill="#461E0F"/>
<path d="M586.176 328.042C586.084 328.286 585.962 328.501 585.812 328.684C585.638 328.898 585.324 329.106 584.886 329.307C583.427 329.978 580.602 330.564 577.063 330.966C573.385 331.383 568.937 331.605 564.447 331.519C563.064 331.493 561.678 331.438 560.308 331.35C550.378 330.719 541.354 328.393 541.344 323.161C541.332 317.838 556.542 313.885 568.081 311.654C569.275 311.423 570.431 311.209 571.525 311.015C576.892 310.064 580.812 309.566 580.812 309.566C580.812 309.566 581.03 309.997 581.382 310.732C581.556 311.097 581.763 311.536 581.994 312.036C583.145 314.541 584.856 318.543 585.789 322.074C586.429 324.499 586.705 326.7 586.176 328.042Z" fill="#F4458D"/>
<path d="M586.175 328.043C585.759 328.469 585.327 328.892 584.885 329.307C583.426 329.979 580.601 330.565 577.061 330.967C573.384 331.384 556.52 331.409 552.029 331.323C557.301 321.811 573.296 319.923 574.279 318.662C574.358 318.558 584.855 318.544 585.788 322.075C586.428 324.5 586.703 326.701 586.175 328.043Z" fill="#E5287E"/>
<path d="M542.064 325.567C542.064 325.567 559.2 349.504 560.353 352.4C560.353 352.4 565.075 352.89 566.211 349.126C566.211 349.126 557.962 323.409 554.337 321.29C550.712 319.17 542.064 325.567 542.064 325.567Z" fill="#F4458D"/>
<path d="M573.306 270.769C573.306 270.769 568.527 278.069 564.268 278.459C564.268 278.459 564.813 275.711 566.07 273.979C565.732 273.37 565.438 272.814 565.186 272.317C564.349 270.663 563.979 269.673 563.979 269.673L565.937 265.717L566.342 263.59C566.673 264.588 567.061 265.509 567.493 266.27C569.725 270.182 573.306 270.769 573.306 270.769Z" fill="#ECAF94"/>
<path d="M567.68 266.235C567.68 266.235 568.373 269.892 565.186 272.322C564.349 270.667 563.979 269.677 563.979 269.677L565.937 265.721C567.503 265.462 567.68 266.235 567.68 266.235Z" fill="#E59D80"/>
<path d="M563.381 271.881C563.381 271.881 569.375 268.235 567.284 264.104C565.193 259.972 564.558 256.719 560.643 258.872C556.728 261.024 556.788 263.066 557.186 264.634C557.584 266.202 561.768 272.722 563.381 271.881Z" fill="#ECAF94"/>
<path d="M567.264 255.878C567.296 255.774 567.413 255.652 567.714 255.5C567.714 255.5 567.408 255.432 567.076 255.564C566.844 255.107 566.319 254.347 565.511 254.456C565.511 254.456 565.989 254.524 566.219 255.017C565.023 254.392 562.947 254.458 558.044 257.092C551.583 260.563 555.455 264.455 556.518 264.66C557.581 264.864 559.206 262.346 560.864 261.798C562.522 261.249 563.74 263.751 564.411 263.877C565.081 264.003 564.646 263.457 565.253 262.76C565.86 262.064 566.41 263.42 566.509 264.414C566.608 265.407 568.034 266.159 568.034 266.159C568.034 266.159 568.034 266.159 568.625 264.466C569.217 262.773 568.349 257.056 567.492 256.127C567.417 256.045 567.341 255.961 567.264 255.878Z" fill="#461E0F"/>
<path d="M603.052 348.716C603.052 348.716 604.446 351.286 604.77 352.119C605.094 352.951 604.458 354.723 603.502 354.99C602.659 355.225 602.533 357.041 602.533 357.041H606.62C607.053 357.041 607.443 356.752 607.61 356.306C608.186 354.765 608.318 352.762 608.434 352.091C608.678 350.682 609.161 349.5 608.947 348.064C608.735 346.634 606.722 345.807 603.052 345.82C599.02 345.836 603.052 348.716 603.052 348.716Z" fill="#461E0F"/>
<path d="M590.101 322.291C588.938 327.216 586.12 335.145 582.902 342.176C581.271 345.743 579.535 349.079 577.862 351.673C575.977 354.595 574.174 356.573 572.683 356.883C572.289 356.964 571.918 356.929 571.572 356.764C570.715 356.356 570.088 355.232 569.647 353.599V353.597C566.926 343.536 571.182 314.196 571.182 314.196C571.182 314.196 575.469 314.156 580.019 314.563C584.735 314.987 589.733 315.89 590.545 317.814C590.814 318.451 590.627 320.063 590.101 322.291Z" fill="#F4458D"/>
<path d="M591.036 317.414C587.953 321.06 565.319 313.517 567.217 311.595C567.699 311.107 567.534 310.52 567.73 309.734C568.669 306.005 566.801 299.623 565.998 297.149C565.811 296.576 565.683 296.213 565.658 296.14C564.893 293.83 564.301 291.426 563.914 289.103C563.168 284.645 563.182 280.499 564.202 277.959C564.209 277.946 564.211 277.934 564.218 277.925C568.458 276.541 570.792 269.578 570.792 269.578C570.792 269.578 584.223 273.836 589.098 295.231C589.098 295.231 589.35 296.595 589.661 298.642H589.663C589.756 299.27 589.857 299.964 589.958 300.702C590.478 304.509 590.78 309.391 591.089 313.026C591.101 313.152 591.112 313.28 591.124 313.411C591.278 314.978 591.547 316.807 591.036 317.414Z" fill="#FFD524"/>
<path d="M603.483 350.455C602.893 350.461 601.12 350.765 598.698 351.24C589.927 352.955 572.684 356.889 572.684 356.889C572.684 356.889 572.684 356.888 572.683 356.881C572.669 356.752 572.478 355.036 572.433 352.821C572.363 349.289 572.669 344.49 574.666 342.857C575.729 341.987 578.979 341.898 582.902 342.175C591.168 342.756 602.414 344.972 602.414 344.972C604.254 347.499 603.483 350.455 603.483 350.455Z" fill="#F4458D"/>
<path d="M590.101 322.291C585.538 322.13 574.094 315.858 574.282 315.808C576.412 315.223 578.318 314.818 580.019 314.562C584.735 314.986 589.733 315.889 590.545 317.813C590.814 318.451 590.627 320.063 590.101 322.291Z" fill="#E5287E"/>
<path d="M575.45 284.195C575.45 284.195 575.184 307.368 567.73 309.732C568.669 306.002 566.8 299.621 565.998 297.147C567.919 291.187 571.456 285.176 575.45 284.195Z" fill="#F2B111"/>
<path d="M573.044 270.621C573.044 270.621 567.303 271.955 566.742 277.571C566.334 281.661 570.34 290.923 570.34 290.923L571.103 290.072C571.103 290.072 567.586 278.636 568.127 276.69C568.821 274.196 572.121 270.464 575.157 271.955L573.044 270.621Z" fill="#F77721"/>
<path d="M591.035 317.412C587.953 321.059 564.832 313.596 566.729 311.674C567.211 311.186 567.534 310.519 567.73 309.733C568.669 306.003 566.8 299.622 565.998 297.147C565.811 296.574 565.682 296.212 565.658 296.138L566.826 294.837L571.104 290.07C571.104 290.07 572.369 291.672 574.761 293.49C577.895 295.875 582.965 298.63 589.661 298.641H589.662C589.756 299.269 589.857 299.963 589.958 300.701C590.478 304.508 590.78 309.39 591.089 313.024C591.101 313.151 591.112 313.278 591.124 313.41C591.278 314.977 591.547 316.806 591.035 317.412Z" fill="#F4458D"/>
<path d="M574.761 293.49C573.905 300.227 571.992 308.381 567.73 309.733C568.669 306.003 566.8 299.622 565.998 297.148C566.248 296.375 566.524 295.6 566.826 294.837L571.104 290.07C571.104 290.071 572.369 291.673 574.761 293.49Z" fill="#E5287E"/>
<path d="M544.121 304.884C544.121 304.884 540.992 304.116 540.466 304.162C539.94 304.207 538.345 304.712 538.321 304.879C538.298 305.045 538.235 305.551 538.553 305.572C538.871 305.593 539.187 305.396 539.122 305.538C539.056 305.68 537.858 305.592 537.829 306.269C537.801 306.946 538.297 309.002 539.692 309.073C541.087 309.144 543.814 307.31 544.049 307.285C546.041 307.071 544.121 304.884 544.121 304.884Z" fill="#ECAF94"/>
<path d="M543.505 305.966C543.026 304.418 543.694 303.935 543.694 303.935C543.694 303.935 557.36 296.701 558.478 295.904C559.595 295.107 567.108 279.833 567.108 279.833C567.108 279.833 569.893 273.587 573.44 273.713C576.523 273.822 578.236 275.967 579.186 278.216C580.318 280.895 579.84 284.078 578.017 286.232C573.926 291.066 565.708 300.638 563.579 302.091C558.84 305.325 544.641 307.939 544.641 307.939C544.641 307.939 543.882 307.183 543.505 305.966Z" fill="#FFD524"/>
<path d="M598.698 351.24C589.927 352.955 572.684 356.889 572.684 356.889C572.684 356.889 572.684 356.888 572.682 356.882C572.288 356.963 571.917 356.928 571.571 356.764C570.714 356.355 570.088 355.231 569.646 353.598V353.596C569.646 353.596 570.665 353.265 572.432 352.821C573.823 352.47 575.676 352.052 577.861 351.672C583.392 350.707 591.051 349.984 598.698 351.24Z" fill="#E5287E"/>
<path d="M529.331 300.693H533.726C534.677 300.693 535.455 300.21 535.455 299.619V292.007C535.455 291.417 534.677 290.934 533.726 290.934H529.331C528.38 290.934 527.602 291.417 527.602 292.007V299.619C527.602 300.21 528.38 300.693 529.331 300.693Z" fill="#F77721"/>
<path d="M538.153 306.269L537.424 306.624C537.317 306.677 537.185 306.632 537.135 306.527L532.658 297.179C532.61 297.079 532.653 296.959 532.756 296.909C532.858 296.859 532.982 296.896 533.038 296.992L538.243 305.985C538.302 306.087 538.261 306.216 538.153 306.269Z" fill="#E5287E"/>
<path d="M531.115 295.032L528.843 293.746L524.031 295.946C523.791 296.055 523.682 296.346 523.789 296.594L524.427 298.085C524.533 298.333 524.814 298.445 525.054 298.336L531.305 295.477L531.115 295.032Z" fill="#E5287E"/>
<path d="M200.053 245.358C200.053 245.358 202.232 236.296 204.338 235.465C206.444 234.634 206.319 238.287 204.319 239.673C202.32 241.059 200.053 245.358 200.053 245.358Z" fill="#F4458D"/>
<path d="M197.798 244.411C197.798 244.411 198.102 238.431 197.135 236.791C196.167 235.15 195.652 237.13 196.475 238.999C197.298 240.868 197.798 244.411 197.798 244.411Z" fill="#57E5D4"/>
<path d="M203.553 251.812C203.553 251.812 205.857 252.419 206.31 254.01C206.763 255.601 205.93 255.963 205.366 254.529C204.802 253.094 203.553 251.812 203.553 251.812Z" fill="#363C54"/>
<path d="M201.324 248.162C201.324 248.162 206.448 242.831 209.205 246.134C210.704 247.929 211.219 250.049 210.162 250.818C209.466 251.325 208.976 249.365 206.952 247.898C204.339 246.005 201.324 248.162 201.324 248.162Z" fill="#FFD524"/>
<path d="M193.466 256.885H190.054C189.315 256.885 188.711 256.401 188.711 255.811V248.199C188.711 247.608 189.315 247.125 190.054 247.125H193.466C194.204 247.125 194.809 247.608 194.809 248.199V255.811C194.809 256.401 194.204 256.885 193.466 256.885Z" fill="#F77721"/>
<path d="M186.618 262.46L187.183 262.816C187.267 262.868 187.369 262.824 187.408 262.718L190.883 253.371C190.921 253.27 190.887 253.15 190.808 253.1C190.728 253.051 190.632 253.087 190.588 253.184L186.548 262.176C186.502 262.278 186.534 262.408 186.618 262.46Z" fill="#E5287E"/>
<path d="M192.081 251.223L193.845 249.938L197.581 252.137C197.767 252.247 197.852 252.537 197.769 252.785L197.274 254.276C197.191 254.524 196.974 254.637 196.787 254.527L191.933 251.669L192.081 251.223Z" fill="#E5287E"/>
</svg>
