<svg width="55" height="11" viewBox="0 0 55 11" fill="none" xmlns="http://www.w3.org/2000/svg">
<path d="M3.12308 1.06589C2.79468 1.19095 2.51396 1.39961 2.35857 1.62629C2.27489 1.75157 1.71845 3.26121 1.12003 4.98569C0.515642 6.71017 0.0189493 8.14823 0.00101089 8.18403C-0.0109586 8.21983 0.126247 8.30949 0.311224 8.37531C0.621501 8.49496 0.764745 8.50703 1.92271 8.50805C3.16424 8.50915 3.20603 8.50322 3.3494 8.37203C3.46289 8.27663 3.61242 7.93654 3.88767 7.16679L4.27063 6.09273L5.73899 6.07612C6.97457 6.06528 7.20734 6.07742 7.20728 6.14905C7.20724 6.1968 7.03367 6.72191 6.81826 7.32458C6.60285 7.92128 6.4293 8.43445 6.42927 8.46429C6.42925 8.48817 7.11565 8.51265 7.95727 8.5134C9.24655 8.51454 9.51517 8.49687 9.68833 8.41943C9.96899 8.28836 10.0228 8.19887 10.316 7.36349C10.4536 6.96369 10.5972 6.59972 10.6271 6.55796C10.8064 6.3313 10.9137 6.45078 12.5174 8.60697L14.0913 10.7273L15.9059 10.7289C17.3384 10.7302 17.7085 10.7126 17.6727 10.6529C17.6489 10.6171 17.2972 10.1333 16.8918 9.58974C16.4864 9.04025 16.1585 8.58035 16.1585 8.56244C16.1585 8.54454 16.4629 8.52093 16.839 8.50932C17.3881 8.49787 17.5434 8.47414 17.6389 8.38469C17.6987 8.32505 17.914 7.8537 18.1055 7.3286C18.3029 6.80351 18.4764 6.37391 18.4943 6.37392C18.5122 6.37394 18.5539 6.45754 18.5836 6.56501C18.655 6.82173 18.9354 6.97717 19.3831 7.01338C19.58 7.03146 19.7412 7.06742 19.7411 7.0913C19.7411 7.11517 19.6992 7.23451 19.6514 7.34788C19.5437 7.60445 19.5374 7.98048 19.6268 8.18947C19.7578 8.4761 19.9786 8.52404 21.244 8.52516C22.5333 8.52631 22.6885 8.48466 22.8441 8.11473C22.8859 8.01329 22.9338 7.92977 22.9576 7.92979C22.9755 7.92981 23.065 8.01942 23.1544 8.12694C23.4764 8.53311 23.4048 8.52708 26.6519 8.52995C30.0661 8.53298 29.7914 8.58645 30.0309 7.85249C30.0668 7.75105 30.0966 7.77495 30.2874 7.99597C30.4066 8.13336 30.6452 8.31264 30.8063 8.39038C31.1106 8.5339 31.1106 8.5339 33.5698 8.53608C36.2678 8.53847 36.3274 8.53255 36.859 8.17489C37.1158 8.00202 37.2292 7.99615 37.2291 8.14537C37.2291 8.18715 37.3006 8.29466 37.39 8.38427L37.5511 8.54557L38.8821 8.52884L40.2132 8.51212L40.3626 8.36303C40.4641 8.25568 40.5778 7.99315 40.7155 7.52769L40.9131 6.84144L42.6978 6.81318L44.4825 6.78492L44.8886 6.59427C45.1394 6.47511 45.2886 6.43346 45.2886 6.47525C45.2886 6.51703 45.1389 6.99441 44.9594 7.53145C44.7798 8.06849 44.6302 8.522 44.6302 8.52797C44.6302 8.5399 45.3166 8.54648 46.1582 8.54723C48.1996 8.54903 48.0921 8.60266 48.4274 7.36142C48.5412 6.94967 48.649 6.56179 48.667 6.49614C48.6969 6.40067 48.7267 6.41263 48.9235 6.59784C49.2038 6.86669 49.4365 6.98031 49.8185 7.03437L50.1348 7.07643L50.0809 7.29126C50.0569 7.41062 50.0328 7.69113 50.0326 7.91198C50.0323 8.27609 50.0501 8.33579 50.1754 8.44334C50.3126 8.5509 50.4021 8.55695 51.578 8.54009C52.7181 8.52319 52.8554 8.51137 53.0465 8.39813C53.2555 8.27894 53.2615 8.25507 54.0755 5.75482C54.9792 2.96814 55.0511 2.69961 54.9918 2.29964C54.9087 1.75042 54.6702 1.43983 54.1272 1.18866L53.7991 1.03317L51.0832 1.03077L48.3674 1.02836L48.0509 1.17731C47.8777 1.25475 47.5731 1.47533 47.376 1.66019C47.1848 1.85103 47.0116 1.98816 46.9997 1.97621C46.9878 1.96426 46.9222 1.83885 46.8507 1.70151C46.7852 1.56416 46.648 1.39691 46.5466 1.3252C46.141 1.03833 46.0097 1.02628 42.8044 1.02344C39.3842 1.02041 39.6111 0.984796 39.33 1.53966L39.1686 1.86183L39.0255 1.63489C38.9242 1.47961 38.7572 1.34814 38.4887 1.21062L38.1009 1.0133L35.5939 1.02899L33.081 1.04467L32.6988 1.23534C32.4839 1.33662 32.3047 1.41406 32.2928 1.40211C32.2809 1.39016 32.3168 1.30066 32.3706 1.19923L32.4663 1.01428L28.9267 1.01115C25.4468 1.00807 25.3931 1.00802 25.1304 1.13313C24.9751 1.21059 24.778 1.38352 24.6525 1.55053C24.527 1.70561 24.4194 1.83683 24.4015 1.83682C24.3836 1.84277 24.33 1.73528 24.2764 1.60989C24.199 1.42478 24.1095 1.34711 23.8291 1.20958L23.4771 1.03617L20.6836 1.01579C17.8902 0.995406 17.8842 0.995401 17.6096 1.12647C17.4543 1.20393 17.1855 1.41261 17.0063 1.59151C16.8271 1.77639 16.6718 1.89563 16.6598 1.86578C16.5765 1.60904 16.3737 1.41189 16.0038 1.22652L15.5981 1.02919L9.45017 1.01181C4.83621 1.00175 3.25444 1.01229 3.12308 1.06589ZM15.4662 1.69162C15.6333 1.74549 15.8242 1.87697 15.9554 2.02034C16.1343 2.21748 16.164 2.2951 16.1638 2.53982C16.1633 3.12478 15.8342 4.07354 15.4098 4.70587C14.9197 5.44558 14.436 5.76747 13.7316 5.82654L13.2958 5.86196L14.8161 7.90467C15.6507 9.0216 16.3363 9.97126 16.3363 10.0071C16.3362 10.0548 16.0258 10.0725 15.3633 10.0719L14.3844 10.071L12.8105 7.98049L11.2365 5.89595L10.6695 5.88948L10.1024 5.88898L9.78523 6.84372L9.46803 7.79847L8.33991 7.79747L7.21179 7.79647L7.47507 7.06253C7.61868 6.66274 7.98966 5.63045 8.30081 4.76523L8.86327 3.20188L6.38618 3.19968L3.90312 3.19748L4.05817 3.35878C4.24303 3.56189 4.34433 3.74701 4.3442 3.9022C4.34411 4.00368 4.40378 4.02164 4.8932 4.05788C5.19163 4.07605 5.94369 4.09463 6.55849 4.09517C7.17328 4.09571 7.69256 4.12005 7.71044 4.14991C7.73429 4.17978 7.64448 4.48411 7.51883 4.82423L7.29147 5.43882L5.20831 5.45488L3.12515 5.46498L3.3458 5.69199L3.56645 5.91901L3.27908 6.89765L2.98574 7.87629L2.00685 7.86349C1.0399 7.84472 0.759389 7.81463 0.759457 7.73704C0.759494 7.69525 2.36919 3.11256 2.58458 2.53377C2.75209 2.10415 3.07474 1.73437 3.36729 1.64509C3.46282 1.6213 6.16079 1.59385 9.36608 1.59669C14.5232 1.59528 15.2216 1.60784 15.4662 1.69162ZM23.2377 1.73432C23.3749 1.77025 23.5659 1.88383 23.697 2.02123C24.0608 2.37969 24.0429 2.4513 23.1092 5.30361C22.6603 6.66412 22.2833 7.79191 22.2654 7.8098C22.2355 7.84559 20.2716 7.91547 20.212 7.88558C20.1881 7.87959 20.266 7.55734 20.3738 7.16945C20.4875 6.78157 20.5774 6.45336 20.5774 6.42949C20.5774 6.41158 20.3267 6.38151 20.0223 6.36334C18.9659 6.30868 18.3813 5.8605 18.549 5.23988L18.6149 5.00118L19.8743 4.99036L21.1397 4.97357L21.421 4.16802C21.5825 3.72646 21.7082 3.32666 21.7083 3.28488C21.7143 3.23116 21.3263 3.21291 19.9535 3.2117C18.9865 3.21084 18.1926 3.22804 18.1926 3.24595C18.1926 3.26386 18.288 3.40123 18.4072 3.54459L18.6279 3.80741L17.9397 5.79445L17.2515 7.77552L16.1711 7.79247C15.5742 7.79791 15.0848 7.78553 15.0848 7.76166C15.0849 7.66019 16.8859 2.77325 17.0234 2.50477C17.1908 2.1826 17.7046 1.6757 17.9135 1.64007C18.1881 1.59256 23.0109 1.67443 23.2377 1.73432ZM31.4689 1.66401C31.4868 1.69387 31.3909 2.03401 31.2474 2.42186L30.996 3.13194L29.8022 3.1667C29.1456 3.18999 28.0055 3.20689 27.2654 3.2122L25.9224 3.22295L26.1908 3.45001C26.4294 3.65913 26.4532 3.7069 26.4351 3.90983L26.417 4.13066L28.2435 4.10244C29.2523 4.08542 30.0819 4.09213 30.0998 4.11602C30.1177 4.14588 30.0339 4.43231 29.9142 4.76049L29.7048 5.35123L29.3944 5.39274C29.2212 5.41049 28.3199 5.4276 27.3828 5.42677C26.4457 5.42594 25.616 5.44311 25.5444 5.46692L25.4011 5.50261L25.5681 5.63407C25.7291 5.76553 25.7351 5.77748 25.6751 6.0699L25.6152 6.36829L27.7222 6.34031C29.507 6.31205 29.8293 6.3183 29.8232 6.38992C29.8232 6.43768 29.7095 6.79571 29.5718 7.18953L29.3205 7.90558L27.0822 7.88569C25.8526 7.87863 24.5633 7.85362 24.2231 7.82944C23.6322 7.7931 23.5905 7.78113 23.3937 7.60786C23.012 7.25535 23.024 7.18374 23.9215 4.68356C24.3523 3.47225 24.7592 2.38031 24.819 2.26695C24.9326 2.0462 25.1775 1.78975 25.3865 1.67653C25.5358 1.5931 31.4212 1.5804 31.4689 1.66401ZM38.2256 1.77146C38.5835 2.04038 38.6371 2.17175 38.6365 2.82832C38.6362 3.16258 38.618 3.48489 38.5941 3.53859C38.5522 3.63405 38.4388 3.64589 37.442 3.64501C36.8332 3.64447 36.3378 3.63209 36.3378 3.61418C36.3378 3.59031 36.3797 3.50081 36.4275 3.40535L36.5231 3.22637L34.8041 3.22485L33.091 3.22333L33.3117 3.45034C33.4548 3.59969 33.5323 3.73108 33.5322 3.83852L33.532 3.99968L35.3108 4.00125C37.0358 4.00278 37.0955 4.0088 37.352 4.13438C37.883 4.40942 37.984 4.9288 37.6788 5.85371C37.3556 6.84426 36.9372 7.45272 36.4297 7.697C36.1729 7.82212 36.1132 7.82803 33.5705 7.80787C31.0516 7.78774 30.968 7.78169 30.807 7.66217C30.4849 7.42313 30.3955 7.24398 30.4078 6.84408C30.408 6.64114 30.462 6.33677 30.5278 6.17567L30.6414 5.87732L31.7099 5.87827L32.7843 5.87922L32.802 6.08815L32.8197 6.29708L33.9896 6.2802C34.6343 6.26884 35.2193 6.23951 35.2909 6.20973C35.3685 6.17995 35.4462 6.07258 35.4941 5.91146C35.536 5.77422 35.5839 5.62504 35.6019 5.5773C35.6258 5.5057 35.3691 5.49353 34.0023 5.49232C33.101 5.48555 32.2534 5.46093 32.1102 5.43692C31.6506 5.34698 31.3227 4.91693 31.3232 4.40361C31.3235 4.09322 31.4912 3.46664 31.7364 2.86997C31.9218 2.41052 32.2266 2.03475 32.5491 1.86194C33.0029 1.62359 33.1283 1.61773 35.6352 1.63189C37.981 1.6459 38.0645 1.65194 38.2256 1.77146ZM45.8658 1.73645C46.5937 2.06538 46.5811 2.87714 45.8276 4.40451C45.427 5.20996 44.9789 5.74677 44.5131 5.98511C44.2563 6.1162 44.1668 6.12209 42.3522 6.15629C41.3076 6.17328 40.4481 6.20236 40.4301 6.22025C40.4122 6.23217 40.2806 6.59019 40.131 7.01385C39.9814 7.43751 39.8438 7.80149 39.8199 7.81938C39.784 7.86113 37.8142 7.93698 37.7665 7.89515C37.7427 7.87723 39.4483 2.75742 39.8074 1.74899L39.8612 1.61772L42.7382 1.62027C45.4182 1.62264 45.6391 1.63478 45.8658 1.73645ZM53.876 1.82114C54.0132 1.91676 54.1682 2.07209 54.2219 2.17958C54.4185 2.56773 54.3646 2.80644 53.4908 5.3902C52.7966 7.44289 52.647 7.8367 52.5456 7.86049C52.3724 7.90212 50.5519 7.92438 50.5101 7.88853C50.4922 7.87061 50.588 7.53644 50.7197 7.14857C50.8514 6.75474 50.9591 6.43849 50.9591 6.43252C50.9591 6.43252 50.7502 6.43233 50.4935 6.42614C49.4788 6.4133 48.9061 6.03078 48.9008 5.36823L48.901 5.05785L50.1784 5.02913L51.4558 5.00042L51.743 4.16503C51.8986 3.70556 52.0303 3.31173 52.0363 3.28189C52.0363 3.25801 51.2663 3.23943 50.3232 3.23859L48.6102 3.23707L48.8427 3.47604L49.0694 3.70902L48.3513 5.75572L47.6332 7.80242L46.5528 7.81937C45.9559 7.82481 45.4665 7.81244 45.4665 7.78259C45.4665 7.75872 45.8615 6.61304 46.3402 5.23465C47.2438 2.63897 47.4113 2.26905 47.8174 1.95903C48.2415 1.63111 48.2714 1.63114 51.0588 1.64554L53.6254 1.65975L53.876 1.82114Z" fill="#ECECEC"/>
<path d="M10.457 3.33073C10.6896 3.51597 10.8087 3.78468 10.7727 4.04131L10.7426 4.26213L12.0558 4.31105C12.778 4.33556 13.3928 4.33014 13.4167 4.30031C13.4465 4.27646 13.5482 4.01989 13.65 3.7275L13.8295 3.20837L12.0627 3.2068L10.2959 3.20524L10.457 3.33073Z" fill="#ECECEC"/>
<path d="M40.9522 3.46222C41.2145 3.75493 41.274 4.03552 41.1543 4.40548L41.0645 4.67997L41.6376 4.64467C41.9599 4.62108 42.5568 4.6037 42.9687 4.60406L43.7267 4.60473L43.8882 4.19899C43.978 3.97822 44.1036 3.67392 44.1634 3.51281L44.2771 3.23237L42.5103 3.23081L40.7435 3.22925L40.9522 3.46222Z" fill="#ECECEC"/>
</svg>
