<svg width="76" height="15" viewBox="0 0 76 15" fill="none" xmlns="http://www.w3.org/2000/svg">
<path d="M4.29738 0.116878C3.84469 0.289721 3.45785 0.577792 3.24386 0.890555C3.12863 1.0634 2.36318 3.14574 1.54012 5.52439C0.70883 7.90304 0.0256887 9.88662 0.000996816 9.936C-0.0154644 9.98538 0.17384 10.1088 0.428989 10.1994C0.856981 10.364 1.05452 10.3805 2.65125 10.3805C4.36322 10.3805 4.42084 10.3722 4.61837 10.1911C4.77475 10.0595 4.98052 9.59031 5.35913 8.52857L5.88589 7.04706L7.91062 7.02236C9.61435 7.0059 9.93535 7.02236 9.93535 7.12113C9.93535 7.18698 9.69666 7.91127 9.40036 8.74256C9.10406 9.56562 8.86537 10.2735 8.86537 10.3146C8.86537 10.3475 9.81189 10.3805 10.9724 10.3805C12.7502 10.3805 13.1206 10.3558 13.3593 10.2488C13.7461 10.0677 13.8202 9.94423 14.2235 8.79195C14.4128 8.24049 14.6103 7.73843 14.6515 7.68081C14.8984 7.36805 15.0466 7.53266 17.2606 10.5039L19.4335 13.4258H21.9356C23.9109 13.4258 24.4212 13.4011 24.3718 13.3188C24.3389 13.2694 23.8533 12.6027 23.2936 11.8537C22.734 11.0965 22.2813 10.4628 22.2813 10.4381C22.2813 10.4134 22.701 10.3805 23.2196 10.364C23.9768 10.3475 24.1908 10.3146 24.3225 10.1911C24.4048 10.1088 24.7011 9.45863 24.9644 8.73433C25.2361 8.01004 25.4747 7.41743 25.4994 7.41743C25.5241 7.41743 25.5817 7.53266 25.6229 7.68081C25.7217 8.03473 26.1085 8.24872 26.7258 8.29811C26.9974 8.3228 27.2196 8.37218 27.2196 8.40511C27.2196 8.43803 27.162 8.60264 27.0962 8.75902C26.948 9.11294 26.9398 9.63147 27.0633 9.91954C27.2443 10.3146 27.5489 10.3805 29.2938 10.3805C31.0716 10.3805 31.2856 10.3228 31.4996 9.81254C31.5572 9.67262 31.623 9.55739 31.6559 9.55739C31.6806 9.55739 31.8041 9.68085 31.9275 9.829C32.372 10.3887 32.2732 10.3805 36.7507 10.3805C41.4586 10.3805 41.08 10.4545 41.4092 9.44216C41.4586 9.30224 41.4998 9.33517 41.7631 9.6397C41.9277 9.829 42.257 10.0759 42.4792 10.1829C42.899 10.3805 42.899 10.3805 46.29 10.3805C50.0102 10.3805 50.0925 10.3722 50.825 9.87839C51.179 9.6397 51.3353 9.63147 51.3353 9.83723C51.3353 9.89485 51.4341 10.043 51.5576 10.1665L51.7798 10.3887L53.6152 10.364L55.4506 10.3393L55.6564 10.1335C55.7963 9.98538 55.9527 9.62324 56.142 8.98125L56.4136 8.03473L58.8746 7.99358L61.3355 7.95242L61.8952 7.68904C62.2409 7.52443 62.4467 7.46682 62.4467 7.52443C62.4467 7.58204 62.2409 8.24049 61.994 8.98125C61.7471 9.722 61.5413 10.3475 61.5413 10.3558C61.5413 10.3722 62.4878 10.3805 63.6483 10.3805C66.4632 10.3805 66.3151 10.4545 66.776 8.74256C66.9323 8.17465 67.0805 7.63966 67.1052 7.54912C67.1463 7.41743 67.1875 7.43389 67.4591 7.68904C67.8459 8.05942 68.1669 8.2158 68.6937 8.28988L69.1299 8.34749L69.0558 8.64379C69.0229 8.80841 68.99 9.19525 68.99 9.49978C68.99 10.0018 69.0147 10.0842 69.1875 10.2323C69.3768 10.3805 69.5003 10.3887 71.1217 10.364C72.6938 10.3393 72.8831 10.3228 73.1465 10.1665C73.4345 10.0018 73.4428 9.96892 74.5621 6.5203C75.8049 2.6766 75.9037 2.30622 75.8214 1.75477C75.7062 0.997553 75.377 0.569561 74.628 0.223876L74.1753 0.00987965H70.4304H66.6854L66.2492 0.215645C66.0105 0.322643 65.5908 0.627176 65.3191 0.882325C65.0558 1.1457 64.8171 1.33501 64.8006 1.31855C64.7842 1.30209 64.6936 1.12924 64.5949 0.939939C64.5043 0.750635 64.315 0.520178 64.1751 0.42141C63.6154 0.0263409 63.4343 0.00987965 59.0145 0.00987965C54.2984 0.00987965 54.6111 -0.039504 54.2243 0.725943L54.0021 1.1704L53.8045 0.857633C53.6646 0.643637 53.4341 0.462563 53.0638 0.273259L52.5288 0.00164904L49.0719 0.0263409L45.6068 0.0510327L45.0801 0.314412C44.7838 0.454333 44.5368 0.561331 44.5204 0.54487C44.5039 0.528408 44.5533 0.404949 44.6274 0.265029L44.7591 0.00987965H39.8783C35.0799 0.00987965 35.0058 0.00987965 34.6436 0.182723C34.4297 0.289721 34.158 0.528408 33.9852 0.758866C33.8124 0.972862 33.6642 1.15394 33.6395 1.15394C33.6148 1.16217 33.5407 1.01401 33.4667 0.841172C33.3597 0.586023 33.2362 0.479025 32.8494 0.289721L32.3638 0.0510327L28.5118 0.0263409C24.6599 0.00164904 24.6517 0.00164904 24.2731 0.182723C24.0591 0.289721 23.6887 0.577792 23.4418 0.82471C23.1949 1.07986 22.9809 1.24447 22.9644 1.20332C22.8492 0.849402 22.5693 0.577792 22.059 0.322643L21.4994 0.0510327L13.0218 0.0345715C6.65956 0.0263409 4.47845 0.0428021 4.29738 0.116878ZM21.3183 0.964631C21.5487 1.03871 21.8121 1.21978 21.9932 1.41731C22.2401 1.68893 22.2813 1.79592 22.2813 2.13338C22.2813 2.93998 21.8286 4.24865 21.2442 5.12109C20.5693 6.14169 19.9026 6.58614 18.9314 6.66845L18.3306 6.71783L20.4294 9.5327C21.5817 11.0718 22.5282 12.3805 22.5282 12.4299C22.5282 12.4957 22.1002 12.5204 21.1866 12.5204H19.8368L17.6639 9.6397L15.491 6.76721L14.7091 6.75898H13.9272L13.491 8.07588L13.0547 9.39278H11.4992H9.94358L10.3057 8.38041C10.5033 7.82896 11.0136 6.40507 11.4415 5.21163L12.2152 3.05521H8.79952H5.37559L5.58958 3.27743C5.84473 3.55727 5.98465 3.81242 5.98465 4.02642C5.98465 4.16634 6.06696 4.19103 6.74187 4.24042C7.1534 4.26511 8.19046 4.2898 9.03821 4.2898C9.88596 4.2898 10.602 4.32272 10.6267 4.36387C10.6596 4.40503 10.5362 4.82479 10.3633 5.29393L10.0506 6.14169L7.17809 6.16638L4.30561 6.18284L4.61014 6.4956L4.91467 6.80837L4.5196 8.15819L4.1163 9.50801L2.76648 9.49155C1.43312 9.46686 1.04628 9.4257 1.04628 9.3187C1.04628 9.26109 3.26032 2.93998 3.55662 2.14161C3.78708 1.549 4.23153 1.03871 4.63483 0.915247C4.76652 0.882325 8.48676 0.841172 12.9066 0.841172C20.0178 0.832941 20.9808 0.849402 21.3183 0.964631ZM32.0345 1.01401C32.2238 1.0634 32.4872 1.21978 32.6683 1.40908C33.1704 1.90292 33.1457 2.00169 31.8617 5.93592C31.2444 7.8125 30.7259 9.36809 30.7012 9.39278C30.66 9.44216 27.9522 9.54093 27.8699 9.49978C27.8369 9.49155 27.9439 9.04709 28.0921 8.5121C28.2485 7.97711 28.3719 7.52443 28.3719 7.49151C28.3719 7.46682 28.0262 7.42566 27.6065 7.40097C26.1497 7.3269 25.3431 6.7096 25.5735 5.85362L25.664 5.52439L27.4007 5.50793L29.1456 5.48324L29.5324 4.37211C29.7547 3.76304 29.9275 3.21159 29.9275 3.15397C29.9357 3.0799 29.4007 3.05521 27.5077 3.05521C26.1743 3.05521 25.0797 3.0799 25.0797 3.10459C25.0797 3.12928 25.2114 3.31859 25.376 3.51612L25.6805 3.87827L24.734 6.61906L23.7875 9.35163L22.2977 9.37632C21.4747 9.38455 20.7998 9.36809 20.7998 9.33517C20.7998 9.19525 23.2772 2.45437 23.4665 2.08399C23.6969 1.63954 24.4048 0.939939 24.6928 0.890555C25.0714 0.82471 31.7218 0.931708 32.0345 1.01401ZM43.3846 0.907017C43.4093 0.94817 43.2776 1.41731 43.08 1.9523L42.7343 2.93175L41.0882 2.98113C40.1829 3.01405 38.6108 3.03875 37.5902 3.04698L35.7383 3.06344L36.1087 3.3762C36.4379 3.66427 36.4708 3.73012 36.4462 4.00996L36.4215 4.31449L38.94 4.27334C40.331 4.24865 41.4751 4.25688 41.4998 4.2898C41.5244 4.33095 41.4092 4.72602 41.2446 5.17871L40.9565 5.99354L40.5285 6.05115C40.2898 6.07584 39.047 6.10053 37.7548 6.10053C36.4626 6.10053 35.3186 6.12523 35.2198 6.15815L35.0223 6.20753L35.2527 6.38861C35.4749 6.56968 35.4832 6.58614 35.4009 6.98944L35.3186 7.40097L38.224 7.35982C40.6849 7.31867 41.1294 7.3269 41.1211 7.42566C41.1211 7.49151 40.9648 7.98535 40.7755 8.52857L40.4298 9.51624L37.3433 9.49155C35.6478 9.48332 33.87 9.45039 33.4008 9.41747C32.586 9.36809 32.5284 9.35163 32.2568 9.11294C31.73 8.62733 31.7465 8.52857 32.9811 5.07994C33.5737 3.40912 34.1334 1.90292 34.2157 1.74654C34.372 1.44201 34.7095 1.08809 34.9976 0.931708C35.2033 0.81648 43.3187 0.791788 43.3846 0.907017ZM52.7016 1.04694C53.1955 1.41731 53.2695 1.59839 53.2695 2.50376C53.2695 2.96467 53.2448 3.40912 53.2119 3.4832C53.1543 3.61489 52.9979 3.63135 51.6234 3.63135C50.7839 3.63135 50.1007 3.61489 50.1007 3.5902C50.1007 3.55727 50.1584 3.43382 50.2242 3.30213L50.3559 3.05521H47.9855H45.6233L45.9278 3.36797C46.1254 3.57374 46.2324 3.75481 46.2324 3.90296V4.12519H48.6851C51.0637 4.12519 51.146 4.13342 51.4999 4.30626C52.2325 4.68487 52.3724 5.40093 51.9526 6.67668C51.5082 8.04296 50.932 8.88248 50.2324 9.21994C49.8785 9.39278 49.7962 9.40101 46.29 9.37632C42.8166 9.35163 42.7014 9.3434 42.4792 9.17878C42.0347 8.84956 41.9113 8.60264 41.9277 8.05119C41.9277 7.77135 42.0018 7.35159 42.0924 7.12936L42.2487 6.71783H43.722H45.2035L45.2282 7.0059L45.2529 7.29397L46.8661 7.26928C47.755 7.25282 48.5616 7.21167 48.6604 7.17051C48.7674 7.12936 48.8744 6.98121 48.9402 6.75898C48.9978 6.56968 49.0637 6.36391 49.0884 6.29807C49.1213 6.1993 48.7674 6.18284 46.8826 6.18284C45.6397 6.17461 44.471 6.14169 44.2735 6.10876C43.6397 5.98531 43.187 5.3927 43.187 4.68487C43.187 4.25688 43.4175 3.39266 43.7549 2.5696C44.0101 1.93584 44.4298 1.41731 44.8743 1.17863C45.4998 0.849402 45.6727 0.841172 49.1295 0.857633C52.3642 0.874094 52.4794 0.882325 52.7016 1.04694ZM63.2368 0.989323C64.2409 1.44201 64.2245 2.56137 63.1874 4.66841C62.636 5.77954 62.0187 6.5203 61.3767 6.84952C61.0228 7.03059 60.8993 7.03882 58.3972 7.08821C56.9568 7.1129 55.7716 7.15405 55.7469 7.17874C55.7223 7.19521 55.5412 7.68904 55.3354 8.27342C55.1296 8.85779 54.9403 9.35986 54.9074 9.38455C54.858 9.44216 52.1419 9.54916 52.0761 9.49155C52.0432 9.46686 54.3889 2.40499 54.8827 1.01401L54.9568 0.832941H58.924C62.6195 0.832941 62.924 0.849402 63.2368 0.989323ZM74.2823 1.09632C74.4716 1.22801 74.6856 1.44201 74.7597 1.59016C75.0313 2.12515 74.9572 2.45437 73.7555 6.01823C72.8008 8.84956 72.595 9.39278 72.4551 9.4257C72.2164 9.48332 69.7061 9.51624 69.6484 9.46686C69.6238 9.44216 69.7554 8.98125 69.9365 8.44626C70.1176 7.90304 70.2657 7.46682 70.2657 7.45859C70.2657 7.45859 69.9777 7.45859 69.6238 7.45036C68.2246 7.43389 67.4344 6.90713 67.4262 5.99354V5.56554L69.1875 5.52439L70.9489 5.48324L71.344 4.33095C71.558 3.69719 71.739 3.15397 71.7473 3.11282C71.7473 3.0799 70.6855 3.05521 69.3851 3.05521H67.0229L67.3439 3.38443L67.6566 3.70543L66.669 6.52853L65.6813 9.35163L64.1916 9.37632C63.3685 9.38455 62.6936 9.36809 62.6936 9.32694C62.6936 9.29401 63.2368 7.71373 63.8952 5.81246C65.1381 2.23215 65.3685 1.72185 65.9282 1.29386C66.5126 0.841172 66.5537 0.841172 70.3974 0.857633L73.9366 0.874094L74.2823 1.09632Z" fill="#ECECEC"/>
<path d="M14.4136 3.22752C14.7346 3.48267 14.8992 3.85305 14.8499 4.20696L14.8087 4.5115L16.6194 4.57734C17.6153 4.61026 18.4631 4.60203 18.496 4.56088C18.5372 4.52796 18.6771 4.17404 18.817 3.77074L19.0639 3.05468H16.6277H14.1914L14.4136 3.22752Z" fill="#ECECEC"/>
<path d="M56.4639 3.37564C56.826 3.77894 56.9083 4.16578 56.7437 4.67608L56.6202 5.05469L57.4104 5.0053C57.8548 4.97238 58.6779 4.94769 59.2458 4.94769H60.2911L60.5133 4.38801C60.6368 4.08348 60.8096 3.66371 60.8919 3.44149L61.0483 3.05465H58.612H56.1758L56.4639 3.37564Z" fill="#ECECEC"/>
<path d="M25.8123 12.124C25.8123 12.1405 25.6889 12.7907 25.5407 13.5644L25.2773 14.9883H25.4913C25.6971 14.9883 25.7218 14.9471 25.8123 14.5027L25.9029 14.0253L26.4049 13.9759C26.8 13.943 26.9564 13.8854 27.1375 13.7125C27.6231 13.2516 27.6148 12.3709 27.121 12.1981C26.907 12.124 25.837 12.0664 25.8123 12.124ZM27.014 12.8483C27.0469 12.9553 27.014 13.1035 26.9399 13.2187C26.8247 13.3915 26.7342 13.4245 26.4049 13.4245H26.0016L26.0757 13.1117C26.1169 12.9471 26.1498 12.7825 26.1498 12.7413C26.1498 12.7084 26.3309 12.6837 26.5531 12.6837C26.8905 12.6837 26.9729 12.7084 27.014 12.8483Z" fill="#ECECEC"/>
<path d="M27.8456 13.4409C27.714 14.1817 27.5905 14.8319 27.574 14.8813C27.5411 14.9554 27.6152 14.9883 27.788 14.9883C27.928 14.9883 28.0432 14.9554 28.0432 14.9224C28.0432 14.8895 28.1584 14.2475 28.2901 13.5068C28.43 12.766 28.537 12.1405 28.537 12.1323C28.537 12.1158 28.4382 12.1076 28.3066 12.1076H28.0843L27.8456 13.4409Z" fill="#ECECEC"/>
<path d="M29.0722 12.2063C29.0557 12.2639 28.9405 12.8483 28.8253 13.5068C28.7101 14.1652 28.6031 14.7661 28.5866 14.8401C28.5619 14.9554 28.6031 14.9883 28.7841 14.9883C29.0064 14.9883 29.0146 14.9718 29.1545 14.1817C29.2368 13.7455 29.3191 13.3504 29.3356 13.3175C29.3603 13.2763 29.5496 13.6385 29.7553 14.1158C30.0681 14.8566 30.1504 14.9883 30.3068 14.9883C30.4796 14.9883 30.5126 14.9142 30.7019 13.8525C31.0722 11.8853 31.064 12.0911 30.7924 12.124C30.5702 12.1487 30.5537 12.1734 30.4138 12.9636C30.2574 13.836 30.2163 13.9512 30.134 13.7043C30.1093 13.622 29.9446 13.2352 29.78 12.8483C29.5413 12.3216 29.4261 12.1405 29.2862 12.124C29.1957 12.1076 29.0969 12.1487 29.0722 12.2063Z" fill="#ECECEC"/>
<path d="M31.3345 12.2639C31.3345 12.3545 31.3098 12.4779 31.2851 12.552C31.244 12.659 31.3016 12.6837 31.6144 12.6837C31.8201 12.6837 31.993 12.7002 31.993 12.7084C31.993 12.7249 31.9024 13.2352 31.7872 13.8442C31.672 14.4533 31.5815 14.9554 31.5815 14.9636C31.5815 14.9801 31.6884 14.9883 31.8119 14.9883H32.0424L32.2399 13.836L32.4374 12.6837H32.8243C33.2029 12.6837 33.2111 12.6755 33.244 12.3956L33.277 12.1076H32.3057C31.4004 12.1076 31.3345 12.1158 31.3345 12.2639Z" fill="#ECECEC"/>
<path d="M33.6068 12.2476C33.5081 12.6015 33.3105 13.8032 33.3105 14.0912C33.3105 14.8649 33.8702 15.2024 34.5945 14.8567C35.0637 14.6345 35.2777 14.1077 35.574 12.4122C35.6233 12.1077 35.6151 12.0994 35.3929 12.1241C35.1871 12.1488 35.1624 12.19 35.0637 12.6838C34.7591 14.2641 34.6851 14.4122 34.1748 14.4122C33.7385 14.4122 33.6892 14.1982 33.8867 13.12C33.9772 12.6344 34.0513 12.2147 34.0513 12.1735C34.0513 12.0418 33.648 12.1077 33.6068 12.2476Z" fill="#ECECEC"/>
<path d="M35.9105 13.3586C35.7871 14.05 35.6636 14.7002 35.6389 14.799C35.606 14.9636 35.6307 14.9883 35.8447 14.9883C36.0834 14.9883 36.0916 14.9718 36.1575 14.5109C36.1904 14.2558 36.2151 14.0171 36.2068 13.9759C36.1821 13.8689 36.8241 13.9101 36.9147 14.0253C36.9723 14.0829 37.0464 14.3298 37.104 14.5603C37.1863 14.9636 37.211 14.9883 37.4414 14.9883C37.6801 14.9883 37.6883 14.9883 37.6307 14.6344C37.5978 14.4451 37.5237 14.1488 37.4661 13.9841C37.3756 13.7125 37.3838 13.6632 37.5073 13.5479C37.746 13.3339 37.8612 12.9636 37.8036 12.6343C37.7295 12.2639 37.4003 12.1076 36.6595 12.1076H36.141L35.9105 13.3586ZM37.3262 12.9471C37.3591 13.2269 37.0875 13.4245 36.6595 13.4245C36.3632 13.4245 36.3385 13.408 36.3879 13.2352C36.4126 13.1364 36.4373 12.9718 36.4373 12.8648C36.4373 12.6919 36.4702 12.6755 36.8735 12.7002C37.2686 12.7249 37.3015 12.7413 37.3262 12.9471Z" fill="#ECECEC"/>
<path d="M39.252 12.3705C39.0709 12.6751 38.182 14.3047 37.968 14.7163L37.8281 14.9879H38.0833C38.2973 14.9879 38.3549 14.9385 38.5113 14.6175L38.6923 14.2471H39.1697C39.6718 14.2471 39.6636 14.2389 39.7459 14.7821C39.7623 14.8973 39.8446 14.9549 40.0257 14.9714L40.2808 14.9961L40.0915 13.9426C39.9845 13.3664 39.8775 12.7162 39.8446 12.494C39.7952 12.1648 39.7623 12.1071 39.6059 12.1071C39.4742 12.1071 39.359 12.1977 39.252 12.3705ZM39.4825 13.1936C39.4825 13.3006 39.5072 13.4652 39.5319 13.564C39.5812 13.7368 39.5566 13.7533 39.2849 13.7533H38.9886L39.1697 13.3829C39.3672 12.9796 39.4825 12.9137 39.4825 13.1936Z" fill="#ECECEC"/>
<path d="M41.4011 12.2709C41.0884 12.4602 40.9484 12.6907 40.9402 13.061C40.932 13.415 41.0966 13.5878 41.5987 13.7606C42.0102 13.9006 42.1748 14.0652 42.0925 14.2792C42.0184 14.4685 41.4505 14.452 41.1954 14.2463L40.9896 14.0899L40.8003 14.2874C40.5698 14.5343 40.6275 14.7072 41.0061 14.8636C41.7715 15.1928 42.611 14.7401 42.611 13.9993C42.611 13.629 42.3888 13.3903 41.8456 13.2092C41.4011 13.061 41.3188 12.9705 41.4587 12.8059C41.6151 12.6248 42.1419 12.6495 42.323 12.8471L42.4793 13.0199L42.6604 12.7894C42.8744 12.5261 42.8415 12.3944 42.5205 12.2298C42.1995 12.0569 41.7139 12.0734 41.4011 12.2709Z" fill="#ECECEC"/>
<path d="M44.3468 12.9466C44.6925 13.819 44.6925 13.8355 44.5279 14.7244C44.4867 14.9878 44.495 14.996 44.7172 14.9713C44.9312 14.9466 44.9559 14.9137 45.0546 14.3787C45.1452 13.8849 45.2192 13.7285 45.7213 13.0618C46.4785 12.0494 46.4538 12.1071 46.1246 12.1071C45.8695 12.1071 45.8119 12.1647 45.4497 12.6832C45.2275 13.0042 45.0382 13.2511 45.0299 13.2347C45.0135 13.2264 44.9229 12.9713 44.8159 12.6832C44.6349 12.1647 44.6184 12.1482 44.3221 12.1235L44.0176 12.0988L44.3468 12.9466Z" fill="#ECECEC"/>
<path d="M48.1672 12.1899C47.8956 12.2969 47.4018 12.8978 47.3112 13.2352C47.2619 13.4081 47.2207 13.762 47.2207 14.0254C47.2207 14.4451 47.2536 14.5357 47.4594 14.7496C47.838 15.1283 48.5541 15.0542 48.9738 14.5933C49.1137 14.4451 49.1137 14.4287 48.9574 14.2393C48.8668 14.1324 48.7928 14.083 48.7845 14.1324C48.7845 14.2723 48.3483 14.4287 48.0767 14.3957C47.3195 14.3134 47.7063 12.6838 48.48 12.6838C48.6199 12.6838 48.8092 12.7578 48.908 12.8484L49.0808 13.013L49.2701 12.8155C49.4265 12.6426 49.443 12.5932 49.3524 12.4533C49.1549 12.1405 48.587 12.0171 48.1672 12.1899Z" fill="#ECECEC"/>
<path d="M50.3649 12.8236C50.1427 13.2269 49.7888 13.8689 49.5748 14.264L49.1797 14.9883H49.4348C49.6571 14.9883 49.7147 14.9389 49.8711 14.6179L50.0521 14.2393L50.5542 14.264C50.974 14.2887 51.048 14.3134 51.0727 14.4533C51.1468 14.9471 51.1715 14.9883 51.4266 14.9883C51.5995 14.9883 51.6736 14.9554 51.6406 14.8813C51.6242 14.8319 51.5007 14.1817 51.3773 13.4409C51.155 12.1734 51.1303 12.1076 50.9575 12.1076C50.8093 12.1076 50.6859 12.2557 50.3649 12.8236ZM50.8423 13.194C50.8423 13.301 50.867 13.4656 50.8917 13.5644C50.941 13.7372 50.9163 13.7537 50.653 13.7537H50.3567L50.5377 13.3833C50.7353 12.98 50.8423 12.9142 50.8423 13.194Z" fill="#ECECEC"/>
<path d="M52.2894 13.3586C52.1578 14.05 52.0425 14.7002 52.0178 14.799C51.9849 14.9636 52.0096 14.9883 52.2236 14.9883C52.4623 14.9883 52.4705 14.9718 52.5364 14.5109C52.5693 14.2558 52.594 14.0171 52.5857 13.9759C52.5611 13.8689 53.203 13.9101 53.2936 14.0253C53.3512 14.0829 53.4253 14.3298 53.4829 14.5603C53.5652 14.9636 53.5899 14.9883 53.8203 14.9883C54.059 14.9883 54.0673 14.9883 54.0096 14.6344C53.9767 14.4451 53.9026 14.1488 53.845 13.9841C53.7545 13.7125 53.7627 13.6632 53.8862 13.5479C54.1249 13.3339 54.2401 12.9636 54.1825 12.6343C54.1084 12.2639 53.7792 12.1076 53.0384 12.1076H52.5199L52.2894 13.3586ZM53.7051 12.9471C53.738 13.2269 53.4664 13.4245 53.0384 13.4245C52.7421 13.4245 52.7174 13.408 52.7668 13.2352C52.7915 13.1364 52.8162 12.9718 52.8162 12.8648C52.8162 12.6919 52.8491 12.6755 53.2524 12.7002C53.6475 12.7249 53.6804 12.7413 53.7051 12.9471Z" fill="#ECECEC"/>
<path d="M54.676 13.3915C54.5525 14.1158 54.4291 14.7661 54.4126 14.8401C54.3797 14.9554 54.4208 14.9883 54.6102 14.9883C54.8406 14.9883 54.8571 14.9636 54.9065 14.5932C54.997 13.9512 55.0217 13.9183 55.318 13.9183C55.6637 13.9183 55.7542 14.0253 55.8694 14.5603C55.9517 14.9636 55.9764 14.9883 56.2069 14.9883C56.4538 14.9883 56.4538 14.9801 56.4044 14.6591C56.3797 14.4698 56.2974 14.1735 56.2398 13.9924C56.1493 13.729 56.1493 13.6549 56.2316 13.6055C56.4044 13.515 56.602 13.0788 56.602 12.7989C56.602 12.6508 56.5361 12.4533 56.4538 12.3463C56.3221 12.1899 56.1987 12.1569 55.6061 12.124L54.9065 12.0911L54.676 13.3915ZM56.0917 12.9471C56.1246 13.2269 55.853 13.4245 55.425 13.4245C55.1616 13.4245 55.1122 13.3998 55.1534 13.2928C55.1781 13.2187 55.2028 13.0541 55.2028 12.9224C55.2028 12.6755 55.2028 12.6755 55.639 12.7002C56.034 12.7249 56.067 12.7413 56.0917 12.9471Z" fill="#ECECEC"/>
<path d="M57.7644 12.2475C56.999 12.6261 56.6368 14.3052 57.213 14.799C57.7068 15.2188 58.5052 14.9554 58.9085 14.2476C59.0813 13.9348 59.1143 13.7702 59.1143 13.194C59.1143 12.5438 59.106 12.4944 58.8838 12.3051C58.604 12.0664 58.176 12.05 57.7644 12.2475ZM58.5875 12.8154C58.8426 13.12 58.6204 14.1323 58.2583 14.3299C58.0196 14.4533 57.6245 14.4286 57.5093 14.2887C57.3858 14.1406 57.3858 13.548 57.5011 13.2352C57.6904 12.7331 58.3159 12.4944 58.5875 12.8154Z" fill="#ECECEC"/>
<path d="M60.4297 12.1816C59.8865 12.4121 59.549 13.0047 59.4996 13.8525C59.4667 14.4698 59.4667 14.4944 59.7136 14.7414C59.8947 14.9224 60.0429 14.9883 60.2568 14.9883C60.6108 14.9883 60.9482 14.8648 61.1869 14.6426C61.3515 14.4862 61.3598 14.4615 61.2363 14.2804L61.1128 14.0829L60.9071 14.2475C60.6025 14.4862 60.1828 14.4615 60.0099 14.2064C59.7877 13.8689 60.0182 12.9636 60.3803 12.766C60.6355 12.6343 60.9811 12.6672 61.1704 12.8483L61.3433 13.0129L61.5326 12.8154L61.7301 12.6096L61.475 12.3627C61.2774 12.1652 61.154 12.1076 60.9071 12.1158C60.7342 12.1158 60.5202 12.1487 60.4297 12.1816Z" fill="#ECECEC"/>
<path d="M61.9203 13.3998C61.7968 14.1158 61.6734 14.7661 61.6569 14.8401C61.6157 14.9718 61.698 14.9883 62.5129 14.9883H63.4182L63.4512 14.7002L63.4841 14.4121H62.8339C62.2001 14.4121 62.1837 14.4039 62.233 14.2228C62.2577 14.1241 62.2824 13.9924 62.2824 13.9348C62.2824 13.8689 62.4635 13.836 62.8997 13.836C63.4512 13.836 63.517 13.8195 63.517 13.6796C63.517 13.5891 63.5417 13.4656 63.5664 13.3915C63.6076 13.2763 63.5335 13.2599 63.0067 13.2599H62.3977L62.4306 12.9718L62.4635 12.6837H63.1549C63.7804 12.6837 63.8462 12.6672 63.8462 12.5273C63.8462 12.4368 63.8709 12.3133 63.8956 12.2393C63.9368 12.124 63.8298 12.1076 63.0479 12.1076H62.1507L61.9203 13.3998Z" fill="#ECECEC"/>
<path d="M64.389 12.1981C64.3643 12.2639 64.2491 12.8483 64.1339 13.5068C64.0187 14.1652 63.9117 14.7661 63.8952 14.8401C63.8705 14.9554 63.9117 14.9883 64.0927 14.9883C64.2903 14.9883 64.3314 14.9471 64.3726 14.6755C64.5125 13.8936 64.496 13.9183 64.8006 13.9183C65.1298 13.9183 65.2862 14.1158 65.3685 14.6344C65.4179 14.9718 65.4425 14.9883 65.6977 14.9883H65.9693L65.8541 14.4698C65.7882 14.1899 65.7224 13.9101 65.6977 13.8525C65.6812 13.8031 65.7553 13.622 65.8623 13.4574C66.1092 13.0952 66.1339 12.6179 65.9199 12.3545C65.7882 12.1899 65.6648 12.157 65.0969 12.124C64.5701 12.0911 64.4137 12.1158 64.389 12.1981ZM65.5578 12.9965C65.5825 13.2187 65.5495 13.2763 65.3685 13.3422C65.2532 13.3915 65.0228 13.4245 64.8664 13.4245C64.6113 13.4245 64.5866 13.408 64.6277 13.2352C64.6524 13.1364 64.6853 12.9718 64.6936 12.8648C64.7018 12.6919 64.7347 12.6755 65.1216 12.7002C65.5166 12.7249 65.5331 12.7331 65.5578 12.9965Z" fill="#ECECEC"/>
<path d="M66.7671 12.2886C66.6848 12.6755 66.3145 14.7743 66.3145 14.8813C66.3145 14.9389 66.405 14.9883 66.5202 14.9883C66.6601 14.9883 66.7342 14.9307 66.7671 14.799C66.8494 14.4204 67.2198 12.3216 67.2198 12.2146C67.2198 12.157 67.1293 12.1076 67.0141 12.1076C66.8741 12.1076 66.8001 12.1652 66.7671 12.2886Z" fill="#ECECEC"/>
<path d="M67.8624 13.5479L67.0723 14.9883H67.3356C67.5661 14.9883 67.6237 14.9389 67.7801 14.6179L67.9612 14.2475H68.4468H68.9324L68.9818 14.6179C69.0394 14.9636 69.0558 14.9883 69.2863 14.9883C69.418 14.9883 69.525 14.9554 69.525 14.9224C69.525 14.8895 69.418 14.2475 69.2781 13.5068C69.1464 12.766 69.0312 12.1405 69.0312 12.1323C69.0312 12.1158 68.9488 12.1076 68.8418 12.1076C68.6772 12.1076 68.5291 12.3216 67.8624 13.5479ZM68.7678 13.408L68.8501 13.7537H68.5702C68.4139 13.7537 68.2904 13.7372 68.2904 13.7125C68.2904 13.622 68.6279 12.9965 68.6608 13.0294C68.6772 13.0459 68.7266 13.2187 68.7678 13.408Z" fill="#ECECEC"/>
<path d="M70.7918 12.1915C70.5037 12.3067 70.1827 12.7594 70.1827 13.0475C70.1827 13.3849 70.4297 13.6236 70.9564 13.8047C71.1704 13.8788 71.3679 13.994 71.3926 14.0516C71.5161 14.3808 70.8659 14.5372 70.4626 14.2821C70.265 14.1504 70.2486 14.1504 70.0593 14.3314C69.8947 14.4796 69.8782 14.5454 69.9523 14.636C70.1498 14.8747 70.5367 15.0063 70.907 14.9652C71.3762 14.9158 71.6725 14.6854 71.8206 14.2821C72.0017 13.7718 71.8371 13.5166 71.1869 13.2697C70.8412 13.1298 70.6766 13.0228 70.6766 12.924C70.6766 12.6524 71.3186 12.5865 71.5737 12.8417C71.7301 12.9981 71.7383 12.9981 71.9194 12.8005C72.0676 12.6359 72.0922 12.5619 72.0264 12.4549C71.8371 12.1503 71.2198 12.0186 70.7918 12.1915Z" fill="#ECECEC"/>
</svg>
